SplineFontDB: 3.2
FontName: DroidSansMono
FullName: Droid Sans Mono
FamilyName: Droid Sans Mono
Weight: Book
Copyright: Digitized data copyright (c) 2007, Google Corporation.
Version: 1.00 build 112
ItalicAngle: 0
UnderlinePosition: -205
UnderlineWidth: 102
Ascent: 1638
Descent: 410
InvalidEm: 0
sfntRevision: 0x00010000
LayerCount: 2
Layer: 0 1 "Back" 1
Layer: 1 1 "Fore" 0
XUID: [1021 80 -2081867686 25917]
StyleMap: 0x0040
FSType: 8
OS2Version: 3
OS2_WeightWidthSlopeOnly: 0
OS2_UseTypoMetrics: 0
CreationTime: 1168259284
ModificationTime: 1609926621
PfmFamily: 17
TTFWeight: 400
TTFWidth: 5
LineGap: 0
VLineGap: 0
Panose: 2 11 6 9 3 8 4 2 2 4
OS2TypoAscent: 1567
OS2TypoAOffset: 0
OS2TypoDescent: -492
OS2TypoDOffset: 0
OS2TypoLinegap: 132
OS2WinAscent: 2163
OS2WinAOffset: 0
OS2WinDescent: 555
OS2WinDOffset: 0
HheadAscent: 2163
HheadAOffset: 0
HheadDescent: -555
HheadDOffset: 0
OS2SubXSize: 1434
OS2SubYSize: 1331
OS2SubXOff: 0
OS2SubYOff: 286
OS2SupXSize: 1434
OS2SupYSize: 1331
OS2SupXOff: 0
OS2SupYOff: 976
OS2StrikeYSize: 102
OS2StrikeYPos: 498
OS2CapHeight: 1462
OS2XHeight: 1098
OS2Vendor: '1ASC'
OS2CodePages: 2000019f.00000000
OS2UnicodeRanges: e00002ef.4000205b.00000028.00000000
DEI: 91125
TtTable: prep
NPUSHB
 21
 248
 3
 255
 31
 241
 111
 26
 31
 47
 239
 111
 239
 2
 230
 228
 51
 31
 229
 228
 25
 31
PUSHW_1
 256
NPUSHB
 16
 51
 255
 85
 223
 51
 221
 85
 222
 51
 3
 85
 176
 255
 208
 255
 2
PUSHW_1
 -64
NPUSHB
 104
 255
 9
 17
 70
 0
 221
 32
 221
 112
 221
 3
 221
 1
 3
 85
 220
 3
 255
 31
 214
 213
 51
 31
 211
 210
 25
 31
 135
 210
 1
 254
 194
 25
 31
 6
 186
 22
 186
 230
 186
 246
 186
 4
 15
 178
 31
 178
 47
 178
 3
 64
 178
 15
 19
 70
 167
 177
 1
 175
 83
 25
 31
 174
 173
 25
 31
 172
 74
 25
 31
 171
 170
 25
 31
 169
 3
 255
 31
 158
 157
 25
 31
 31
 157
 1
 112
 156
 128
 156
 144
 156
 208
 156
 224
 156
 240
 156
 6
 15
 153
 1
 151
 152
 1
PUSHW_1
 -8
NPUSHB
 56
 152
 9
 15
 70
 32
 151
 128
 151
 144
 151
 240
 151
 4
 169
 150
 185
 150

StartChar: .notdef
Encoding: 65536 -1 0
Width: 1229
Flags: W
LayerCount: 2
Fore
SplineSet
193 1462 m 1,0,-1
 1034 1462 l 1,1,-1
 1034 0 l 1,2,-1
 193 0 l 1,3,-1
 193 1462 l 1,0,-1
297 104 m 1,4,-1
 930 104 l 1,5,-1
 930 1358 l 1,6,-1
 297 1358 l 1,7,-1
 297 104 l 1,4,-1
EndSplineSet
EndChar

StartChar: exclam
Encoding: 33 33 4
Width: 1229
Flags: W
LayerCount: 2
Fore
SplineSet
676 414 m 1,0,-1
 555 414 l 1,1,-1
 504 1462 l 1,2,-1
 727 1462 l 1,3,-1
 676 414 l 1,0,-1
614 250 m 256,4,5
 741 250 741 250 741 111 c 0,6,7
 741 -29 741 -29 614 -29 c 256,8,9
 487 -29 487 -29 487 111 c 0,10,11
 487 250 487 250 614 250 c 256,4,5
EndSplineSet
EndChar

StartChar: quotedbl
Encoding: 34 34 5
Width: 1229
Flags: W
LayerCount: 2
Fore
SplineSet
522 1462 m 1,0,-1
 481 934 l 1,1,-1
 326 934 l 1,2,-1
 285 1462 l 1,3,-1
 522 1462 l 1,0,-1
944 1462 m 1,4,-1
 903 934 l 1,5,-1
 748 934 l 1,6,-1
 707 1462 l 1,7,-1
 944 1462 l 1,4,-1
EndSplineSet
EndChar

StartChar: numbersign
Encoding: 35 35 6
Width: 1229
Flags: W
LayerCount: 2
Fore
SplineSet
936 893 m 1,0,-1
 872 565 l 1,1,-1
 1112 565 l 1,2,-1
 1112 428 l 1,3,-1
 846 428 l 1,4,-1
 764 0 l 1,5,-1
 616 0 l 1,6,-1
 700 428 l 1,7,-1
 410 428 l 1,8,-1
 328 0 l 1,9,-1
 184 0 l 1,10,-1
 262 428 l 1,11,-1
 45 428 l 1,12,-1
 45 565 l 1,13,-1
 289 565 l 1,14,-1
 354 893 l 1,15,-1
 121 893 l 1,16,-1
 121 1030 l 1,17,-1
 379 1030 l 1,18,-1
 461 1462 l 1,19,-1
 608 1462 l 1,20,-1
 526 1030 l 1,21,-1
 819 1030 l 1,22,-1
 903 1462 l 1,23,-1
 1047 1462 l 1,24,-1
 963 1030 l 1,25,-1
 1184 1030 l 1,26,-1
 1184 893 l 1,27,-1
 936 893 l 1,0,-1
436 565 m 1,28,-1
 727 565 l 1,29,-1
 791 893 l 1,30,-1
 500 893 l 1,31,-1
 436 565 l 1,28,-1
EndSplineSet
EndChar

StartChar: dollar
Encoding: 36 36 7
Width: 1229
Flags: W
LayerCount: 2
Fore
SplineSet
684 111 m 1,0,-1
 684 -119 l 1,1,-1
 547 -119 l 1,2,-1
 547 102 l 1,3,4
 319 102 319 102 182 172 c 1,5,-1
 182 344 l 1,6,7
 378 252 378 252 547 252 c 1,8,-1
 547 686 l 1,9,10
 354 750 354 750 276.5 831.5 c 128,-1,11
 199 913 199 913 199 1051 c 0,12,13
 199 1182 199 1182 291 1268 c 128,-1,14
 383 1354 383 1354 547 1374 c 1,15,-1
 547 1554 l 1,16,-1
 684 1554 l 1,17,-1
 684 1378 l 1,18,19
 871 1369 871 1369 1020 1300 c 1,20,-1
 954 1155 l 1,21,22
 814 1217 814 1217 684 1227 c 1,23,-1
 684 805 l 1,24,25
 883 737 883 737 963.5 656.5 c 128,-1,26
 1044 576 1044 576 1044 446 c 0,27,28
 1044 166 1044 166 684 111 c 1,0,-1
547 854 m 1,29,-1
 547 1223 l 1,30,31
 375 1194 375 1194 375 1049 c 0,32,33
 375 971 375 971 415.5 928 c 128,-1,34
 456 885 456 885 547 854 c 1,29,-1
684 635 m 1,35,-1
 684 262 l 1,36,37
 868 290 868 290 868 446 c 0,38,39
 868 573 868 573 684 635 c 1,35,-1
EndSplineSet
EndChar

StartChar: percent
Encoding: 37 37 8
Width: 1229
Flags: W
LayerCount: 2
Fore
SplineSet
291 784 m 0,0,1
 160 784 160 784 80 878.5 c 128,-1,2
 0 973 0 973 0 1133 c 0,3,4
 0 1297 0 1297 79 1388 c 128,-1,5
 158 1479 158 1479 295 1479 c 0,6,7
 424 1479 424 1479 505 1386 c 128,-1,8
 586 1293 586 1293 586 1133 c 0,9,10
 586 971 586 971 507.5 877.5 c 128,-1,11
 429 784 429 784 291 784 c 0,0,1
293 903 m 0,12,13
 432 903 432 903 432 1133 c 0,14,15
 432 1358 432 1358 293 1358 c 0,16,17
 152 1358 152 1358 152 1133 c 0,18,19
 152 903 152 903 293 903 c 0,12,13
1057 1462 m 1,20,-1
 328 0 l 1,21,-1
 170 0 l 1,22,-1
 899 1462 l 1,23,-1
 1057 1462 l 1,20,-1
934 -18 m 0,24,25
 804 -18 804 -18 723.5 76.5 c 128,-1,26
 643 171 643 171 643 330 c 0,27,28
 643 494 643 494 722 585 c 128,-1,29
 801 676 801 676 938 676 c 0,30,31
 1067 676 1067 676 1148 583 c 128,-1,32
 1229 490 1229 490 1229 330 c 0,33,34
 1229 169 1229 169 1150.5 75.5 c 128,-1,35
 1072 -18 1072 -18 934 -18 c 0,24,25
936 100 m 0,36,37
 1075 100 1075 100 1075 330 c 0,38,39
 1075 555 1075 555 936 555 c 0,40,41
 795 555 795 555 795 330 c 0,42,43
 795 100 795 100 936 100 c 0,36,37
EndSplineSet
EndChar

StartChar: ampersand
Encoding: 38 38 9
Width: 1229
Flags: W
LayerCount: 2
Fore
SplineSet
602 776 m 1,0,-1
 883 428 l 1,1,2
 954 549 954 549 987 694 c 1,3,-1
 1171 694 l 1,4,5
 1118 460 1118 460 993 291 c 1,6,-1
 1227 0 l 1,7,-1
 1010 0 l 1,8,-1
 879 166 l 1,9,10
 705 -20 705 -20 467 -20 c 0,11,12
 278 -20 278 -20 169.5 87 c 128,-1,13
 61 194 61 194 61 381 c 0,14,15
 61 512 61 512 124.5 609.5 c 128,-1,16
 188 707 188 707 360 809 c 1,17,18
 197 1001 197 1001 197 1165 c 0,19,20
 197 1313 197 1313 292.5 1399 c 128,-1,21
 388 1485 388 1485 567 1485 c 0,22,23
 735 1485 735 1485 827.5 1399.5 c 128,-1,24
 920 1314 920 1314 920 1165 c 0,25,26
 920 962 920 962 602 776 c 1,0,-1
508 897 m 1,27,28
 642 976 642 976 691.5 1035.5 c 128,-1,29
 741 1095 741 1095 741 1169 c 256,30,31
 741 1243 741 1243 691.5 1289 c 128,-1,32
 642 1335 642 1335 561 1335 c 0,33,34
 474 1335 474 1335 424.5 1290.5 c 128,-1,35
 375 1246 375 1246 375 1165 c 0,36,37
 375 1047 375 1047 508 897 c 1,27,28
778 287 m 1,38,-1
 455 688 l 1,39,40
 252 565 252 565 252 387 c 0,41,42
 252 282 252 282 319 211.5 c 128,-1,43
 386 141 386 141 479 141 c 0,44,45
 639 141 639 141 778 287 c 1,38,-1
EndSplineSet
EndChar

StartChar: quotesingle
Encoding: 39 39 10
Width: 1229
Flags: W
LayerCount: 2
Fore
SplineSet
733 1462 m 1,0,-1
 692 934 l 1,1,-1
 537 934 l 1,2,-1
 496 1462 l 1,3,-1
 733 1462 l 1,0,-1
EndSplineSet
EndChar

StartChar: parenleft
Encoding: 40 40 11
Width: 1229
Flags: W
LayerCount: 2
Fore
SplineSet
739 1462 m 1,0,-1
 932 1462 l 1,1,2
 483 1086 483 1086 483 569 c 0,3,4
 483 48 483 48 930 -324 c 1,5,-1
 739 -324 l 1,6,7
 295 29 295 29 295 567 c 0,8,9
 295 1099 295 1099 739 1462 c 1,0,-1
EndSplineSet
EndChar

StartChar: parenright
Encoding: 41 41 12
Width: 1229
Flags: W
LayerCount: 2
Fore
SplineSet
489 -324 m 1,0,-1
 299 -324 l 1,1,2
 745 47 745 47 745 569 c 0,3,4
 745 1087 745 1087 297 1462 c 1,5,-1
 489 1462 l 1,6,7
 934 1101 934 1101 934 567 c 0,8,9
 934 27 934 27 489 -324 c 1,0,-1
EndSplineSet
EndChar

StartChar: asterisk
Encoding: 42 42 13
Width: 1229
Flags: W
LayerCount: 2
Fore
SplineSet
715 1556 m 1,0,-1
 672 1163 l 1,1,-1
 1069 1274 l 1,2,-1
 1096 1081 l 1,3,-1
 717 1053 l 1,4,-1
 963 727 l 1,5,-1
 784 631 l 1,6,-1
 608 989 l 1,7,-1
 451 631 l 1,8,-1
 266 727 l 1,9,-1
 508 1053 l 1,10,-1
 133 1081 l 1,11,-1
 162 1274 l 1,12,-1
 553 1163 l 1,13,-1
 510 1556 l 1,14,-1
 715 1556 l 1,0,-1
EndSplineSet
EndChar

StartChar: plus
Encoding: 43 43 14
Width: 1229
Flags: W
LayerCount: 2
Fore
SplineSet
539 647 m 1,0,-1
 152 647 l 1,1,-1
 152 797 l 1,2,-1
 539 797 l 1,3,-1
 539 1186 l 1,4,-1
 688 1186 l 1,5,-1
 688 797 l 1,6,-1
 1075 797 l 1,7,-1
 1075 647 l 1,8,-1
 688 647 l 1,9,-1
 688 262 l 1,10,-1
 539 262 l 1,11,-1
 539 647 l 1,0,-1
EndSplineSet
EndChar

StartChar: comma
Encoding: 44 44 15
Width: 1229
Flags: W
LayerCount: 2
Fore
SplineSet
770 262 m 1,0,-1
 786 238 l 1,1,2
 729 14 729 14 592 -289 c 1,3,-1
 440 -289 l 1,4,5
 516 34 516 34 551 262 c 1,6,-1
 770 262 l 1,0,-1
EndSplineSet
EndChar

StartChar: hyphen
Encoding: 45 45 16
Width: 1229
Flags: W
LayerCount: 2
Fore
SplineSet
285 465 m 1,0,-1
 285 633 l 1,1,-1
 944 633 l 1,2,-1
 944 465 l 1,3,-1
 285 465 l 1,0,-1
EndSplineSet
EndChar

StartChar: period
Encoding: 46 46 17
Width: 1229
Flags: W
LayerCount: 2
Fore
SplineSet
614 301 m 0,0,1
 766 301 766 301 766 135 c 256,2,3
 766 -31 766 -31 614 -31 c 0,4,5
 463 -31 463 -31 463 135 c 256,6,7
 463 301 463 301 614 301 c 0,0,1
EndSplineSet
EndChar

StartChar: slash
Encoding: 47 47 18
Width: 1229
Flags: W
LayerCount: 2
Fore
SplineSet
1016 1462 m 1,0,-1
 389 0 l 1,1,-1
 211 0 l 1,2,-1
 838 1462 l 1,3,-1
 1016 1462 l 1,0,-1
EndSplineSet
EndChar

StartChar: zero
Encoding: 48 48 19
Width: 1229
Flags: W
LayerCount: 2
Fore
SplineSet
612 -20 m 0,0,1
 383 -20 383 -20 265 173.5 c 128,-1,2
 147 367 147 367 147 733 c 0,3,4
 147 1485 147 1485 612 1485 c 0,5,6
 844 1485 844 1485 962.5 1291.5 c 128,-1,7
 1081 1098 1081 1098 1081 733 c 0,8,9
 1081 -20 1081 -20 612 -20 c 0,0,1
612 135 m 0,10,11
 759 135 759 135 828 275.5 c 128,-1,12
 897 416 897 416 897 733 c 0,13,14
 897 1048 897 1048 828 1188.5 c 128,-1,15
 759 1329 759 1329 612 1329 c 0,16,17
 467 1329 467 1329 399.5 1189.5 c 128,-1,18
 332 1050 332 1050 332 733 c 0,19,20
 332 415 332 415 399.5 275 c 128,-1,21
 467 135 467 135 612 135 c 0,10,11
EndSplineSet
EndChar

StartChar: one
Encoding: 49 49 20
Width: 1229
Flags: W
LayerCount: 2
Fore
SplineSet
758 0 m 1,0,-1
 582 0 l 1,1,-1
 582 913 l 2,2,3
 582 1035 582 1035 590 1274 c 1,4,5
 551 1231 551 1231 469 1161 c 2,6,-1
 322 1040 l 1,7,-1
 225 1163 l 1,8,-1
 608 1462 l 1,9,-1
 758 1462 l 1,10,-1
 758 0 l 1,0,-1
EndSplineSet
EndChar

StartChar: two
Encoding: 50 50 21
Width: 1229
Flags: W
LayerCount: 2
Fore
SplineSet
1069 0 m 1,0,-1
 158 0 l 1,1,-1
 158 156 l 1,2,-1
 508 537 l 2,3,4
 703 750 703 750 765 854.5 c 128,-1,5
 827 959 827 959 827 1085 c 0,6,7
 827 1198 827 1198 763.5 1263.5 c 128,-1,8
 700 1329 700 1329 592 1329 c 0,9,10
 432 1329 432 1329 274 1192 c 1,11,-1
 172 1311 l 1,12,13
 364 1483 364 1483 594 1483 c 0,14,15
 788 1483 788 1483 900 1377 c 128,-1,16
 1012 1271 1012 1271 1012 1092 c 0,17,18
 1012 973 1012 973 953 848 c 128,-1,19
 894 723 894 723 662 473 c 2,20,-1
 381 174 l 1,21,-1
 381 166 l 1,22,-1
 1069 166 l 1,23,-1
 1069 0 l 1,0,-1
EndSplineSet
EndChar

StartChar: three
Encoding: 51 51 22
Width: 1229
Flags: W
LayerCount: 2
Fore
SplineSet
694 770 m 1,0,-1
 694 764 l 1,1,2
 1055 717 1055 717 1055 416 c 0,3,4
 1055 213 1055 213 917 96.5 c 128,-1,5
 779 -20 779 -20 518 -20 c 0,6,7
 276 -20 276 -20 131 59 c 1,8,-1
 131 229 l 1,9,10
 315 133 315 133 514 133 c 0,11,12
 868 133 868 133 868 422 c 0,13,14
 868 680 868 680 487 680 c 2,15,-1
 354 680 l 1,16,-1
 354 831 l 1,17,-1
 487 831 l 2,18,19
 647 831 647 831 735 907 c 128,-1,20
 823 983 823 983 823 1108 c 0,21,22
 823 1210 823 1210 755 1269.5 c 128,-1,23
 687 1329 687 1329 573 1329 c 0,24,25
 395 1329 395 1329 229 1208 c 1,26,-1
 137 1333 l 1,27,28
 324 1483 324 1483 573 1483 c 0,29,30
 779 1483 779 1483 894.5 1384 c 128,-1,31
 1010 1285 1010 1285 1010 1120 c 0,32,33
 1010 982 1010 982 928 889 c 128,-1,34
 846 796 846 796 694 770 c 1,0,-1
EndSplineSet
EndChar

StartChar: four
Encoding: 52 52 23
Width: 1229
Flags: W
LayerCount: 2
Fore
SplineSet
1126 328 m 1,0,-1
 913 328 l 1,1,-1
 913 0 l 1,2,-1
 737 0 l 1,3,-1
 737 328 l 1,4,-1
 61 328 l 1,5,-1
 61 487 l 1,6,-1
 725 1470 l 1,7,-1
 913 1470 l 1,8,-1
 913 494 l 1,9,-1
 1126 494 l 1,10,-1
 1126 328 l 1,0,-1
737 494 m 1,11,-1
 737 850 l 2,12,13
 737 1026 737 1026 750 1282 c 1,14,-1
 741 1282 l 1,15,16
 705 1180 705 1180 651 1102 c 2,17,-1
 240 494 l 1,18,-1
 737 494 l 1,11,-1
EndSplineSet
EndChar

StartChar: five
Encoding: 53 53 24
Width: 1229
Flags: W
LayerCount: 2
Fore
SplineSet
172 59 m 1,0,-1
 172 231 l 1,1,2
 316 135 316 135 532 135 c 0,3,4
 868 135 868 135 868 449 c 0,5,6
 868 743 868 743 524 743 c 0,7,8
 435 743 435 743 293 717 c 1,9,-1
 203 774 l 1,10,-1
 258 1462 l 1,11,-1
 948 1462 l 1,12,-1
 948 1296 l 1,13,-1
 416 1296 l 1,14,-1
 377 877 l 1,15,16
 484 897 484 897 586 897 c 0,17,18
 796 897 796 897 925.5 782.5 c 128,-1,19
 1055 668 1055 668 1055 469 c 0,20,21
 1055 235 1055 235 917 107.5 c 128,-1,22
 779 -20 779 -20 528 -20 c 0,23,24
 304 -20 304 -20 172 59 c 1,0,-1
EndSplineSet
EndChar

StartChar: six
Encoding: 54 54 25
Width: 1229
Flags: W
LayerCount: 2
Fore
SplineSet
965 1464 m 1,0,-1
 965 1309 l 1,1,2
 894 1333 894 1333 799 1333 c 0,3,4
 575 1333 575 1333 462.5 1192 c 128,-1,5
 350 1051 350 1051 340 745 c 1,6,-1
 352 745 l 1,7,8
 447 915 447 915 659 915 c 0,9,10
 854 915 854 915 964.5 796 c 128,-1,11
 1075 677 1075 677 1075 471 c 0,12,13
 1075 243 1075 243 954.5 111.5 c 128,-1,14
 834 -20 834 -20 631 -20 c 0,15,16
 413 -20 413 -20 283.5 148.5 c 128,-1,17
 154 317 154 317 154 625 c 0,18,19
 154 1483 154 1483 793 1483 c 0,20,21
 897 1483 897 1483 965 1464 c 1,0,-1
899 471 m 0,22,23
 899 616 899 616 830.5 694 c 128,-1,24
 762 772 762 772 635 772 c 256,25,26
 508 772 508 772 422 691 c 128,-1,27
 336 610 336 610 336 506 c 0,28,29
 336 354 336 354 417 243.5 c 128,-1,30
 498 133 498 133 629 133 c 0,31,32
 756 133 756 133 827.5 221 c 128,-1,33
 899 309 899 309 899 471 c 0,22,23
EndSplineSet
EndChar

StartChar: seven
Encoding: 55 55 26
Width: 1229
Flags: W
LayerCount: 2
Fore
SplineSet
334 0 m 1,0,-1
 897 1296 l 1,1,-1
 143 1296 l 1,2,-1
 143 1462 l 1,3,-1
 1083 1462 l 1,4,-1
 1083 1317 l 1,5,-1
 528 0 l 1,6,-1
 334 0 l 1,0,-1
EndSplineSet
EndChar

StartChar: eight
Encoding: 56 56 27
Width: 1229
Flags: W
LayerCount: 2
Fore
SplineSet
764 774 m 1,0,1
 1073 614 1073 614 1073 381 c 0,2,3
 1073 200 1073 200 947 90 c 128,-1,4
 821 -20 821 -20 614 -20 c 0,5,6
 398 -20 398 -20 277 83.5 c 128,-1,7
 156 187 156 187 156 373 c 0,8,9
 156 630 156 630 438 766 c 1,10,11
 203 912 203 912 203 1135 c 0,12,13
 203 1296 203 1296 319.5 1390.5 c 128,-1,14
 436 1485 436 1485 614 1485 c 0,15,16
 798 1485 798 1485 912 1390 c 128,-1,17
 1026 1295 1026 1295 1026 1133 c 0,18,19
 1026 903 1026 903 764 774 c 1,0,1
616 848 m 1,20,21
 848 951 848 951 848 1126 c 0,22,23
 848 1227 848 1227 785 1280 c 128,-1,24
 722 1333 722 1333 612 1333 c 0,25,26
 506 1333 506 1333 443.5 1280 c 128,-1,27
 381 1227 381 1227 381 1126 c 0,28,29
 381 1036 381 1036 430.5 973.5 c 128,-1,30
 480 911 480 911 616 848 c 1,20,21
588 696 m 1,31,32
 334 575 334 575 334 371 c 0,33,34
 334 131 334 131 610 131 c 0,35,36
 746 131 746 131 820.5 196.5 c 128,-1,37
 895 262 895 262 895 379 c 0,38,39
 895 469 895 469 832 538.5 c 128,-1,40
 769 608 769 608 618 682 c 2,41,-1
 588 696 l 1,31,32
EndSplineSet
EndChar

StartChar: nine
Encoding: 57 57 28
Width: 1229
Flags: W
LayerCount: 2
Fore
SplineSet
264 -2 m 1,0,-1
 264 154 l 1,1,2
 331 129 331 129 430 129 c 0,3,4
 654 129 654 129 766.5 270 c 128,-1,5
 879 411 879 411 889 717 c 1,6,-1
 877 717 l 1,7,8
 781 547 781 547 569 547 c 0,9,10
 375 547 375 547 264.5 665 c 128,-1,11
 154 783 154 783 154 991 c 0,12,13
 154 1219 154 1219 274.5 1351 c 128,-1,14
 395 1483 395 1483 598 1483 c 0,15,16
 818 1483 818 1483 946.5 1312 c 128,-1,17
 1075 1141 1075 1141 1075 838 c 0,18,19
 1075 -20 1075 -20 436 -20 c 0,20,21
 331 -20 331 -20 264 -2 c 1,0,-1
330 991 m 0,22,23
 330 846 330 846 398.5 768 c 128,-1,24
 467 690 467 690 594 690 c 256,25,26
 721 690 721 690 807 771.5 c 128,-1,27
 893 853 893 853 893 956 c 0,28,29
 893 1107 893 1107 813 1218 c 128,-1,30
 733 1329 733 1329 600 1329 c 0,31,32
 472 1329 472 1329 401 1242 c 128,-1,33
 330 1155 330 1155 330 991 c 0,22,23
EndSplineSet
EndChar

StartChar: colon
Encoding: 58 58 29
Width: 1229
Flags: W
LayerCount: 2
Fore
SplineSet
614 1126 m 256,0,1
 741 1126 741 1126 741 987 c 256,2,3
 741 848 741 848 614 848 c 256,4,5
 487 848 487 848 487 987 c 256,6,7
 487 1126 487 1126 614 1126 c 256,0,1
614 250 m 256,8,9
 741 250 741 250 741 111 c 0,10,11
 741 -29 741 -29 614 -29 c 256,12,13
 487 -29 487 -29 487 111 c 0,14,15
 487 250 487 250 614 250 c 256,8,9
EndSplineSet
EndChar

StartChar: semicolon
Encoding: 59 59 30
Width: 1229
Flags: W
LayerCount: 2
Fore
SplineSet
621 1126 m 256,0,1
 748 1126 748 1126 748 987 c 256,2,3
 748 848 748 848 621 848 c 256,4,5
 494 848 494 848 494 987 c 256,6,7
 494 1126 494 1126 621 1126 c 256,0,1
709 238 m 1,8,-1
 723 215 l 1,9,10
 672 18 672 18 547 -264 c 1,11,-1
 410 -264 l 1,12,13
 472 -9 472 -9 510 238 c 1,14,-1
 709 238 l 1,8,-1
EndSplineSet
EndChar

StartChar: less
Encoding: 60 60 31
Width: 1229
Flags: W
LayerCount: 2
Fore
SplineSet
1075 221 m 1,0,-1
 152 672 l 1,1,-1
 152 774 l 1,2,-1
 1075 1225 l 1,3,-1
 1075 1065 l 1,4,-1
 360 723 l 1,5,-1
 1075 381 l 1,6,-1
 1075 221 l 1,0,-1
EndSplineSet
EndChar

StartChar: equal
Encoding: 61 61 32
Width: 1229
Flags: W
LayerCount: 2
Fore
SplineSet
152 852 m 1,0,-1
 152 1001 l 1,1,-1
 1075 1001 l 1,2,-1
 1075 852 l 1,3,-1
 152 852 l 1,0,-1
152 442 m 1,4,-1
 152 592 l 1,5,-1
 1075 592 l 1,6,-1
 1075 442 l 1,7,-1
 152 442 l 1,4,-1
EndSplineSet
EndChar

StartChar: greater
Encoding: 62 62 33
Width: 1229
Flags: W
LayerCount: 2
Fore
SplineSet
152 381 m 1,0,-1
 866 723 l 1,1,-1
 152 1065 l 1,2,-1
 152 1225 l 1,3,-1
 1075 774 l 1,4,-1
 1075 672 l 1,5,-1
 152 221 l 1,6,-1
 152 381 l 1,0,-1
EndSplineSet
EndChar

StartChar: question
Encoding: 63 63 34
Width: 1229
Flags: W
LayerCount: 2
Fore
SplineSet
465 414 m 1,0,-1
 465 451 l 2,1,2
 465 571 465 571 511 646 c 128,-1,3
 557 721 557 721 672 803 c 0,4,5
 802 900 802 900 843.5 958 c 128,-1,6
 885 1016 885 1016 885 1116 c 0,7,8
 885 1208 885 1208 810.5 1265.5 c 128,-1,9
 736 1323 736 1323 604 1323 c 0,10,11
 430 1323 430 1323 233 1233 c 1,12,-1
 168 1386 l 1,13,14
 377 1483 377 1483 594 1483 c 0,15,16
 808 1483 808 1483 933.5 1385.5 c 128,-1,17
 1059 1288 1059 1288 1059 1124 c 0,18,19
 1059 991 1059 991 1005.5 908 c 128,-1,20
 952 825 952 825 809 717 c 0,21,22
 691 630 691 630 658 576 c 128,-1,23
 625 522 625 522 625 432 c 2,24,-1
 625 414 l 1,25,-1
 465 414 l 1,0,-1
553 250 m 256,26,27
 680 250 680 250 680 111 c 0,28,29
 680 -29 680 -29 553 -29 c 256,30,31
 426 -29 426 -29 426 111 c 0,32,33
 426 250 426 250 553 250 c 256,26,27
EndSplineSet
EndChar

StartChar: at
Encoding: 64 64 35
Width: 1229
Flags: W
LayerCount: 2
Fore
SplineSet
799 401 m 1,0,-1
 795 401 l 1,1,2
 721 221 721 221 565 221 c 0,3,4
 445 221 445 221 375 325.5 c 128,-1,5
 305 430 305 430 305 606 c 0,6,7
 305 812 305 812 402 938.5 c 128,-1,8
 499 1065 499 1065 657 1065 c 0,9,10
 794 1065 794 1065 913 1018 c 1,11,-1
 891 602 l 2,12,13
 889 564 889 564 889 533 c 2,14,-1
 889 526 l 2,15,16
 889 350 889 350 961 350 c 0,17,18
 1061 350 1061 350 1061 733 c 0,19,20
 1061 1011 1061 1011 950 1169 c 128,-1,21
 839 1327 839 1327 651 1327 c 0,22,23
 425 1327 425 1327 298.5 1135 c 128,-1,24
 172 943 172 943 172 608 c 0,25,26
 172 296 172 296 301.5 125.5 c 128,-1,27
 431 -45 431 -45 670 -45 c 0,28,29
 851 -45 851 -45 1016 33 c 1,30,-1
 1016 -100 l 1,31,32
 858 -182 858 -182 664 -182 c 0,33,34
 366 -182 366 -182 198.5 25 c 128,-1,35
 31 232 31 232 31 602 c 0,36,37
 31 999 31 999 198 1230.5 c 128,-1,38
 365 1462 365 1462 653 1462 c 0,39,40
 901 1462 901 1462 1049.5 1266 c 128,-1,41
 1198 1070 1198 1070 1198 731 c 0,42,43
 1198 500 1198 500 1134 360.5 c 128,-1,44
 1070 221 1070 221 956 221 c 0,45,46
 828 221 828 221 799 401 c 1,0,-1
752 915 m 1,47,48
 698 936 698 936 649 936 c 0,49,50
 560 936 560 936 512.5 842.5 c 128,-1,51
 465 749 465 749 465 602 c 0,52,53
 465 350 465 350 592 350 c 0,54,55
 723 350 723 350 737 662 c 1,56,-1
 752 915 l 1,47,48
EndSplineSet
EndChar

StartChar: A
Encoding: 65 65 36
Width: 1229
Flags: W
LayerCount: 2
Fore
SplineSet
552 618 m 5,0,-1
 807 618 l 1,1,-1
 674 1042 l 2,2,3
 637.682656827 1157.77859779 637.682656827 1157.77859779 612 1268 c 1,4,5
 593.310846294 1173.5705918 593.310846294 1173.5705918 566 1085 c 2,6,-1
 422 618 l 1,7,-1
 369 453 l 1,8,-1
 369 453 l 1,9,-1
 223 0 l 1,10,-1
 33 0 l 1,11,-1
 516 1468 l 1,12,-1
 711 1468 l 1,13,-1
 1196 0 l 1,14,-1
 1004 0 l 1,15,-1
 860 453 l 1,16,-1
 499.390625 453 l 5,17,-1
 552 618 l 5,0,-1
EndSplineSet
EndChar

StartChar: B
Encoding: 66 66 37
Width: 1229
Flags: W
LayerCount: 2
Fore
SplineSet
460.647460938 159 m 17,0,-1
 629 158 l 2,1,2
 940 156 940 156 940 432 c 0,3,4
 940 686 940 686 616 686 c 2,5,-1
 458.94140625 686 l 1,6,-1
 459.323242188 842 l 1,7,-1
 606 842 l 2,8,9
 759 842 759 842 833.5 897 c 0,10,11
 905 950 905 950 905 1079 c 0,12,13
 905 1197 905 1197 828.5 1251 c 0,14,15
 754 1303 754 1303 586 1303 c 2,16,-1
 455 1303 l 1,17,-1
 454.842773438 1462 l 1,18,-1
 575 1462 l 2,19,20
 849 1462 849 1462 972.5 1374.5 c 128,-1,21
 1096 1287 1096 1287 1096 1092 c 0,22,23
 1096 964 1096 964 1017.5 879 c 128,-1,24
 939 794 939 794 805 776 c 1,25,-1
 805 766 l 1,26,27
 1137 712 1137 712 1137 424 c 0,28,29
 1137 226 1137 226 1009.5 113 c 0,30,31
 879.910525748 -1.07876497895 879.910525748 -1.07876497895 662 0 c 2,32,-1
 460 1 l 1,33,-1
 460.647460938 159 l 17,0,-1
322 0 m 1,34,-1
 135 0 l 1,35,-1
 135 1462 l 1,36,-1
 320 1462 l 1,37,-1
 322 851 l 1,38,-1
 322 686 l 1,39,-1
 322 686 l 1,40,-1
 322 162 l 1,41,-1
 322 0 l 1,34,-1
EndSplineSet
EndChar

StartChar: C
Encoding: 67 67 38
Width: 1229
Flags: W
LayerCount: 2
Fore
SplineSet
1124 201 m 1,0,-1
 1124 39 l 1,1,2
 978 -20 978 -20 766 -20 c 0,3,4
 457 -20 457 -20 293 176 c 128,-1,5
 129 372 129 372 129 733 c 0,6,7
 129 1079 129 1079 308 1281 c 128,-1,8
 487 1483 487 1483 797 1483 c 0,9,10
 1017 1483 1017 1483 1180 1397 c 1,11,-1
 1102 1241 l 1,12,13
 948 1319 948 1319 797 1319 c 0,14,15
 582 1319 582 1319 454 1160.5 c 128,-1,16
 326 1002 326 1002 326 731 c 0,17,18
 326 444 326 444 446 293.5 c 128,-1,19
 566 143 566 143 797 143 c 0,20,21
 927 143 927 143 1124 201 c 1,0,-1
EndSplineSet
EndChar

StartChar: D
Encoding: 68 68 39
Width: 1229
Flags: W
LayerCount: 2
Fore
SplineSet
135 0 m 17,0,-1
 135 1462 l 1,5,-1
 322 1463 l 1,4,-1
 322 1303 l 1,3,-1
 322 160 l 1,2,-1
 322 0 l 1,1,-1
 135 0 l 17,0,-1
464 161.131835938 m 17,7,8
 950 186 950 186 950 739 c 0,9,10
 950 1299 950 1299 464 1302.97137001 c 5,11,-1
 464 1462 l 5,12,-1
 477 1462 l 2,13,14
 794 1462 794 1462 970.5 1273 c 128,-1,15
 1147 1084 1147 1084 1147 745 c 0,16,17
 1147 384 1147 384 964 192 c 0,18,19
 788 8 788 8 464 0.322340849642 c 1,20,-1
 464 161.131835938 l 17,7,8
464 0.322340849642 m 1025,21,22
464 161.13168792 m 1025,23,24
457 1303 m 2,25,26
 460.512512928 1303 460.512512928 1303 464 1302.97137001 c 1025,27,28
EndSplineSet
EndChar

StartChar: E
Encoding: 69 69 40
Width: 1229
Flags: W
LayerCount: 2
Fore
SplineSet
1059 0 m 1,0,-1
 217 0 l 1,1,-1
 217 1462 l 1,2,-1
 1059 1462 l 1,3,-1
 1059 1298 l 1,4,-1
 403 1298 l 1,5,-1
 403 846 l 1,6,-1
 1020 846 l 1,7,-1
 1020 684 l 1,8,-1
 403 684 l 1,9,-1
 403 164 l 1,10,-1
 1059 164 l 1,11,-1
 1059 0 l 1,0,-1
EndSplineSet
EndChar

StartChar: F
Encoding: 70 70 41
Width: 1229
Flags: W
LayerCount: 2
Fore
SplineSet
430 0 m 1,0,-1
 244 0 l 1,1,-1
 244 1462 l 1,2,-1
 1085 1462 l 1,3,-1
 1085 1298 l 1,4,-1
 430 1298 l 1,5,-1
 430 782 l 1,6,-1
 1047 782 l 1,7,-1
 1047 618 l 1,8,-1
 430 618 l 1,9,-1
 430 0 l 1,0,-1
EndSplineSet
EndChar

StartChar: G
Encoding: 71 71 42
Width: 1229
Flags: W
LayerCount: 2
Fore
SplineSet
672 772 m 1,0,-1
 1094 772 l 1,1,-1
 1094 55 l 1,2,3
 899 -20 899 -20 674 -20 c 0,4,5
 412 -20 412 -20 264.5 179.5 c 128,-1,6
 117 379 117 379 117 733 c 0,7,8
 117 1084 117 1084 279 1283.5 c 128,-1,9
 441 1483 441 1483 725 1483 c 0,10,11
 917 1483 917 1483 1071 1397 c 1,12,-1
 999 1235 l 1,13,14
 853 1319 853 1319 719 1319 c 0,15,16
 527 1319 527 1319 420 1163.5 c 128,-1,17
 313 1008 313 1008 313 731 c 0,18,19
 313 143 313 143 707 143 c 0,20,21
 804 143 804 143 909 172 c 1,22,-1
 909 608 l 1,23,-1
 672 608 l 1,24,-1
 672 772 l 1,0,-1
EndSplineSet
EndChar

StartChar: H
Encoding: 72 72 43
Width: 1229
Flags: W
LayerCount: 2
Fore
SplineSet
1094 0 m 1,0,-1
 907 0 l 1,1,-1
 907 682 l 1,2,-1
 322 682 l 1,3,-1
 322 0 l 1,4,-1
 135 0 l 1,5,-1
 135 1462 l 1,6,-1
 322 1462 l 1,7,-1
 322 846 l 1,8,-1
 907 846 l 1,9,-1
 907 1462 l 1,10,-1
 1094 1462 l 1,11,-1
 1094 0 l 1,0,-1
EndSplineSet
EndChar

StartChar: I
Encoding: 73 73 44
Width: 1229
Flags: W
LayerCount: 2
Fore
SplineSet
1001 0 m 1,0,-1
 225 0 l 1,1,-1
 225 123 l 1,2,-1
 520 143 l 1,3,-1
 520 1319 l 1,4,-1
 225 1339 l 1,5,-1
 225 1462 l 1,6,-1
 1001 1462 l 1,7,-1
 1001 1339 l 1,8,-1
 707 1319 l 1,9,-1
 707 143 l 1,10,-1
 1001 123 l 1,11,-1
 1001 0 l 1,0,-1
EndSplineSet
EndChar

StartChar: J
Encoding: 74 74 45
Width: 1229
Flags: W
LayerCount: 2
Fore
SplineSet
137 39 m 1,0,-1
 137 205 l 1,1,2
 299 143 299 143 446 143 c 0,3,4
 607 143 607 143 700 222.5 c 128,-1,5
 793 302 793 302 793 449 c 2,6,-1
 793 1462 l 1,7,-1
 979 1462 l 1,8,-1
 979 451 l 2,9,10
 979 235 979 235 838.5 107.5 c 128,-1,11
 698 -20 698 -20 461 -20 c 0,12,13
 244 -20 244 -20 137 39 c 1,0,-1
EndSplineSet
EndChar

StartChar: K
Encoding: 75 75 46
Width: 1229
Flags: W
LayerCount: 2
Fore
SplineSet
1198 0 m 1,0,-1
 987 0 l 1,1,-1
 537 698 l 1,2,-1
 397 584 l 1,3,-1
 397 0 l 1,4,-1
 211 0 l 1,5,-1
 211 1462 l 1,6,-1
 397 1462 l 1,7,-1
 397 731 l 1,8,-1
 518 899 l 1,9,-1
 971 1462 l 1,10,-1
 1180 1462 l 1,11,-1
 659 825 l 1,12,-1
 1198 0 l 1,0,-1
EndSplineSet
EndChar

StartChar: L
Encoding: 76 76 47
Width: 1229
Flags: W
LayerCount: 2
Fore
SplineSet
233 0 m 1,0,-1
 233 1462 l 1,1,-1
 420 1462 l 1,2,-1
 420 166 l 1,3,-1
 1055 166 l 1,4,-1
 1055 0 l 1,5,-1
 233 0 l 1,0,-1
EndSplineSet
EndChar

StartChar: M
Encoding: 77 77 48
Width: 1229
Flags: W
LayerCount: 2
Fore
SplineSet
532 0 m 1,0,-1
 254 1280 l 1,1,-1
 246 1280 l 1,2,3
 264 1014 264 1014 264 874 c 2,4,-1
 264 0 l 1,5,-1
 113 0 l 1,6,-1
 113 1462 l 1,7,-1
 360 1462 l 1,8,-1
 608 270 l 1,9,-1
 614 270 l 1,10,-1
 864 1462 l 1,11,-1
 1116 1462 l 1,12,-1
 1116 0 l 1,13,-1
 963 0 l 1,14,-1
 963 887 l 2,15,16
 963 989 963 989 977 1278 c 1,17,-1
 969 1278 l 1,18,-1
 686 0 l 1,19,-1
 532 0 l 1,0,-1
EndSplineSet
EndChar

StartChar: N
Encoding: 78 78 49
Width: 1229
Flags: W
LayerCount: 2
Fore
SplineSet
1092 0 m 1,0,-1
 877 0 l 1,1,-1
 297 1210 l 1,2,-1
 289 1210 l 1,3,4
 307 933 307 933 307 793 c 2,5,-1
 307 0 l 1,6,-1
 135 0 l 1,7,-1
 135 1462 l 1,8,-1
 348 1462 l 1,9,-1
 926 258 l 1,10,-1
 932 258 l 1,11,12
 918 561 918 561 918 662 c 2,13,-1
 918 1462 l 1,14,-1
 1092 1462 l 1,15,-1
 1092 0 l 1,0,-1
EndSplineSet
EndChar

StartChar: O
Encoding: 79 79 50
Width: 1229
Flags: W
LayerCount: 2
Fore
SplineSet
698 1479.84375 m 17,0,1
 896 1453 896 1453 1010.5 1289.5 c 0,2,3
 1147 1094 1147 1094 1147 733 c 256,4,5
 1147 372 1147 372 1009 176 c 0,6,7
 895 14 895 14 696 -15 c 1,8,-1
 696 152 l 1,9,10
 809 180 809 180 869.5 288 c 0,11,12
 950 433 950 433 950 733 c 0,13,14
 950 1036 950 1036 868.5 1178.5 c 0,15,16
 808 1285 808 1285 698 1311.85739818 c 1,17,-1
 698 1479.84375 l 17,0,1
538 154 m 5,18,19
 538 -15.6142578125 l 1,20,21
 84 39 84 39 84 735 c 0,22,23
 84 1426 84 1426 538 1480.44335938 c 1,24,-1
 538 1311.55761719 l 1,25,26
 282 1246 282 1246 281 733 c 0,27,28
 280 218 280 218 538 154 c 5,18,19
698 1479.84354554 m 1025,29,30
698 1311.85739818 m 1025,31,32
EndSplineSet
EndChar

StartChar: P
Encoding: 80 80 51
Width: 1229
Flags: W
LayerCount: 2
Fore
SplineSet
176 728 m 5,0,-1
 362 727 l 1,1,-1
 532 727 l 2,2,3
 730 727 730 727 815.5 799 c 128,-1,4
 901 871 901 871 901 1024 c 0,5,6
 901 1303 901 1303 563 1303 c 2,7,-1
 362 1303 l 1,8,-1
 176 1303 l 1,9,-1
 176 1462 l 1,10,-1
 580 1462 l 2,11,12
 1094 1462 1094 1462 1094 1034 c 0,13,14
 1094 815 1094 815 955.5 692 c 128,-1,15
 817 569 817 569 553 569 c 2,16,-1
 362 569 l 1,17,-1
 362 0 l 1,18,-1
 176 0 l 1,19,-1
 176 728 l 5,0,-1
EndSplineSet
EndChar

StartChar: Q
Encoding: 81 81 52
Width: 1229
Flags: W
LayerCount: 2
Fore
SplineSet
862 39 m 1,0,1
 947 -141 947 -141 1141 -272 c 1,2,-1
 1020 -414 l 1,3,4
 784 -243 784 -243 692 -14 c 1,5,6
 656 -20 656 -20 616 -20 c 0,7,8
 84 -20 84 -20 84 735 c 0,9,10
 84 1485 84 1485 618 1485 c 0,11,12
 874 1485 874 1485 1010.5 1289.5 c 128,-1,13
 1147 1094 1147 1094 1147 733 c 0,14,15
 1147 207 1147 207 862 39 c 1,0,1
616 143 m 0,16,17
 789 143 789 143 869.5 288 c 128,-1,18
 950 433 950 433 950 733 c 0,19,20
 950 1036 950 1036 868.5 1178.5 c 128,-1,21
 787 1321 787 1321 618 1321 c 0,22,23
 281 1321 281 1321 281 733 c 0,24,25
 281 143 281 143 616 143 c 0,16,17
EndSplineSet
EndChar

StartChar: R
Encoding: 82 82 53
Width: 1229
Flags: W
LayerCount: 2
Fore
SplineSet
186 762 m 1,0,-1
 373 762 l 1,1,-1
 537 762 l 2,2,3
 708 762 708 762 789 828 c 128,-1,4
 870 894 870 894 870 1038 c 0,5,6
 870 1179 870 1179 790 1241 c 128,-1,7
 710 1303 710 1303 532 1303 c 2,8,-1
 373 1303 l 1,9,-1
 186 1303 l 1,10,-1
 186 1462 l 1,11,-1
 543 1462 l 2,12,13
 1063 1462 1063 1462 1063 1047 c 0,14,15
 1063 760 1063 760 774 655 c 1,16,-1
 1171 0 l 1,17,-1
 952 0 l 1,18,-1
 602 604 l 1,19,-1
 373 604 l 1,20,-1
 373 0 l 1,21,-1
 186 0 l 1,22,-1
 186 762 l 1,0,-1
EndSplineSet
EndChar

StartChar: S
Encoding: 83 83 54
Width: 1229
Flags: W
LayerCount: 2
Fore
SplineSet
141 49 m 1,0,-1
 141 227 l 1,1,2
 352 141 352 141 555 141 c 0,3,4
 905 141 905 141 905 381 c 0,5,6
 905 485 905 485 834.5 541 c 128,-1,7
 764 597 764 597 549 674 c 0,8,9
 341 747 341 747 250.5 848.5 c 128,-1,10
 160 950 160 950 160 1112 c 0,11,12
 160 1286 160 1286 288.5 1384.5 c 128,-1,13
 417 1483 417 1483 641 1483 c 0,14,15
 870 1483 870 1483 1057 1405 c 1,16,-1
 993 1241 l 1,17,18
 800 1319 800 1319 633 1319 c 0,19,20
 340 1319 340 1319 340 1110 c 0,21,22
 340 1008 340 1008 405.5 946 c 128,-1,23
 471 884 471 884 676 813 c 0,24,25
 922 725 922 725 1004.5 631.5 c 128,-1,26
 1087 538 1087 538 1087 391 c 0,27,28
 1087 199 1087 199 948.5 89.5 c 128,-1,29
 810 -20 810 -20 555 -20 c 0,30,31
 290 -20 290 -20 141 49 c 1,0,-1
EndSplineSet
EndChar

StartChar: T
Encoding: 84 84 55
Width: 1229
Flags: W
LayerCount: 2
Fore
SplineSet
707 0 m 1,0,-1
 520 0 l 1,1,-1
 520 1298 l 1,2,-1
 102 1298 l 1,3,-1
 102 1462 l 1,4,-1
 1124 1462 l 1,5,-1
 1124 1298 l 1,6,-1
 707 1298 l 1,7,-1
 707 0 l 1,0,-1
EndSplineSet
EndChar

StartChar: U
Encoding: 85 85 56
Width: 1229
Flags: W
LayerCount: 2
Fore
SplineSet
1104 1464 m 1,0,-1
 1104 516 l 2,1,2
 1104 256 1104 256 978 118 c 128,-1,3
 852 -20 852 -20 608 -20 c 0,4,5
 125 -20 125 -20 125 520 c 2,6,-1
 125 1462 l 1,7,-1
 311 1462 l 1,8,-1
 311 530 l 2,9,10
 311 143 311 143 618 143 c 0,11,12
 913 143 913 143 918 532 c 1,13,-1
 918 1464 l 1,14,-1
 1104 1464 l 1,0,-1
EndSplineSet
EndChar

StartChar: V
Encoding: 86 86 57
Width: 1229
Flags: W
LayerCount: 2
Fore
SplineSet
997 1462 m 1,0,-1
 1196 1462 l 1,1,-1
 707 0 l 1,2,-1
 520 0 l 1,3,-1
 33 1462 l 1,4,-1
 229 1462 l 1,5,-1
 524 535 l 2,6,7
 565 408 565 408 612 201 c 1,8,9
 643 346 643 346 705 541 c 2,10,-1
 997 1462 l 1,0,-1
EndSplineSet
EndChar

StartChar: W
Encoding: 87 87 58
Width: 1229
Flags: W
LayerCount: 2
Fore
SplineSet
528 1008 m 1,0,-1
 705 1008 l 1,1,-1
 850 487 l 2,2,3
 911 268 911 268 922 180 c 1,4,5
 924 233 924 233 987 799 c 2,6,-1
 1057 1462 l 1,7,-1
 1227 1462 l 1,8,-1
 1040 0 l 1,9,-1
 850 0 l 1,10,-1
 682 580 l 2,11,12
 642 718 642 718 616 862 c 1,13,14
 584 689 584 689 551 578 c 2,15,-1
 395 0 l 1,16,-1
 205 0 l 1,17,-1
 2 1462 l 1,18,-1
 172 1462 l 1,19,-1
 260 799 l 2,20,21
 283 623 283 623 300 421 c 128,-1,22
 317 219 317 219 317 180 c 1,23,24
 341 331 341 331 387 492 c 2,25,-1
 528 1008 l 1,0,-1
EndSplineSet
EndChar

StartChar: X
Encoding: 88 88 59
Width: 1229
Flags: W
LayerCount: 2
Fore
SplineSet
1174 0 m 1,0,-1
 963 0 l 1,1,-1
 608 635 l 1,2,-1
 242 0 l 1,3,-1
 53 0 l 1,4,-1
 506 764 l 1,5,-1
 84 1462 l 1,6,-1
 283 1462 l 1,7,-1
 614 903 l 1,8,-1
 948 1462 l 1,9,-1
 1139 1462 l 1,10,-1
 717 770 l 1,11,-1
 1174 0 l 1,0,-1
EndSplineSet
EndChar

StartChar: Y
Encoding: 89 89 60
Width: 1229
Flags: W
LayerCount: 2
Fore
SplineSet
612 723 m 1,0,-1
 993 1462 l 1,1,-1
 1194 1462 l 1,2,-1
 707 569 l 1,3,-1
 707 0 l 1,4,-1
 520 0 l 1,5,-1
 520 559 l 1,6,-1
 33 1462 l 1,7,-1
 236 1462 l 1,8,-1
 612 723 l 1,0,-1
EndSplineSet
EndChar

StartChar: Z
Encoding: 90 90 61
Width: 1229
Flags: W
LayerCount: 2
Fore
SplineSet
1124 0 m 1,0,-1
 102 0 l 1,1,-1
 102 145 l 1,2,-1
 895 1296 l 1,3,-1
 123 1296 l 1,4,-1
 123 1462 l 1,5,-1
 1104 1462 l 1,6,-1
 1104 1317 l 1,7,-1
 311 166 l 1,8,-1
 1124 166 l 1,9,-1
 1124 0 l 1,0,-1
EndSplineSet
EndChar

StartChar: bracketleft
Encoding: 91 91 62
Width: 1229
Flags: W
LayerCount: 2
Fore
SplineSet
940 -324 m 1,0,-1
 412 -324 l 1,1,-1
 412 1462 l 1,2,-1
 940 1462 l 1,3,-1
 940 1313 l 1,4,-1
 594 1313 l 1,5,-1
 594 -174 l 1,6,-1
 940 -174 l 1,7,-1
 940 -324 l 1,0,-1
EndSplineSet
EndChar

StartChar: backslash
Encoding: 92 92 63
Width: 1229
Flags: W
LayerCount: 2
Fore
SplineSet
389 1462 m 1,0,-1
 1016 0 l 1,1,-1
 838 0 l 1,2,-1
 211 1462 l 1,3,-1
 389 1462 l 1,0,-1
EndSplineSet
EndChar

StartChar: bracketright
Encoding: 93 93 64
Width: 1229
Flags: W
LayerCount: 2
Fore
SplineSet
289 -174 m 1,0,-1
 635 -174 l 1,1,-1
 635 1313 l 1,2,-1
 289 1313 l 1,3,-1
 289 1462 l 1,4,-1
 817 1462 l 1,5,-1
 817 -324 l 1,6,-1
 289 -324 l 1,7,-1
 289 -174 l 1,0,-1
EndSplineSet
EndChar

StartChar: asciicircum
Encoding: 94 94 65
Width: 1229
Flags: W
LayerCount: 2
Fore
SplineSet
111 549 m 1,0,-1
 535 1473 l 1,1,-1
 637 1473 l 1,2,-1
 1118 549 l 1,3,-1
 956 549 l 1,4,-1
 588 1284 l 1,5,-1
 270 549 l 1,6,-1
 111 549 l 1,0,-1
EndSplineSet
EndChar

StartChar: underscore
Encoding: 95 95 66
Width: 1229
Flags: W
LayerCount: 2
Fore
SplineSet
1243 -324 m 1,0,-1
 -16 -324 l 1,1,-1
 -16 -184 l 1,2,-1
 1243 -184 l 1,3,-1
 1243 -324 l 1,0,-1
EndSplineSet
EndChar

StartChar: grave
Encoding: 96 96 67
Width: 1229
Flags: W
LayerCount: 2
Fore
SplineSet
811 1241 m 1,0,-1
 690 1241 l 1,1,2
 524 1383 524 1383 418 1548 c 1,3,-1
 418 1569 l 1,4,-1
 637 1569 l 1,5,6
 723 1391 723 1391 811 1268 c 1,7,-1
 811 1241 l 1,0,-1
EndSplineSet
EndChar

StartChar: a
Encoding: 97 97 68
Width: 1229
Flags: W
LayerCount: 2
Fore
SplineSet
895 0 m 1,0,-1
 858 152 l 1,1,-1
 850 152 l 1,2,3
 773 55 773 55 692 17.5 c 128,-1,4
 611 -20 611 -20 483 -20 c 0,5,6
 320 -20 320 -20 227.5 66 c 128,-1,7
 135 152 135 152 135 307 c 0,8,9
 135 639 135 639 645 655 c 2,10,-1
 848 662 l 1,11,-1
 848 731 l 2,12,13
 848 967 848 967 604 967 c 0,14,15
 457 967 457 967 276 885 c 1,16,-1
 213 1022 l 1,17,18
 409 1118 409 1118 596 1118 c 0,19,20
 823 1118 823 1118 924.5 1031 c 128,-1,21
 1026 944 1026 944 1026 752 c 2,22,-1
 1026 0 l 1,23,-1
 895 0 l 1,0,-1
846 537 m 1,24,-1
 684 530 l 2,25,26
 488 522 488 522 406 468.5 c 128,-1,27
 324 415 324 415 324 305 c 0,28,29
 324 127 324 127 524 127 c 0,30,31
 671 127 671 127 758.5 208.5 c 128,-1,32
 846 290 846 290 846 438 c 2,33,-1
 846 537 l 1,24,-1
EndSplineSet
EndChar

StartChar: b
Encoding: 98 98 69
Width: 1229
Flags: W
LayerCount: 2
Fore
SplineSet
340 139 m 1,0,-1
 328 139 l 1,1,-1
 291 0 l 1,2,-1
 158 0 l 1,3,-1
 158 1556 l 1,4,-1
 340 1556 l 1,5,-1
 340 1180 l 2,6,7
 340 1099 340 1099 332 954 c 1,8,-1
 340 954 l 1,9,10
 447 1118 447 1118 662 1118 c 0,11,12
 863 1118 863 1118 977.5 968.5 c 128,-1,13
 1092 819 1092 819 1092 551 c 0,14,15
 1092 281 1092 281 977 130.5 c 128,-1,16
 862 -20 862 -20 662 -20 c 0,17,18
 455 -20 455 -20 340 139 c 1,0,-1
340 551 m 0,19,20
 340 324 340 324 409.5 227.5 c 128,-1,21
 479 131 479 131 631 131 c 0,22,23
 903 131 903 131 903 553 c 0,24,25
 903 967 903 967 629 967 c 0,26,27
 474 967 474 967 407 873 c 128,-1,28
 340 779 340 779 340 551 c 0,19,20
EndSplineSet
EndChar

StartChar: c
Encoding: 99 99 70
Width: 1229
Flags: W
LayerCount: 2
Fore
SplineSet
1061 1059 m 1,0,-1
 999 901 l 1,1,2
 849 958 849 958 731 958 c 0,3,4
 360 958 360 958 360 545 c 0,5,6
 360 139 360 139 721 139 c 0,7,8
 878 139 878 139 1042 201 c 1,9,-1
 1042 41 l 1,10,11
 908 -20 908 -20 713 -20 c 0,12,13
 456 -20 456 -20 314 125.5 c 128,-1,14
 172 271 172 271 172 543 c 0,15,16
 172 824 172 824 317 971 c 128,-1,17
 462 1118 462 1118 725 1118 c 0,18,19
 903 1118 903 1118 1061 1059 c 1,0,-1
EndSplineSet
EndChar

StartChar: d
Encoding: 100 100 71
Width: 1229
Flags: W
LayerCount: 2
Fore
SplineSet
897 147 m 1,0,-1
 889 147 l 1,1,2
 776 -20 776 -20 567 -20 c 0,3,4
 366 -20 366 -20 251.5 129.5 c 128,-1,5
 137 279 137 279 137 547 c 0,6,7
 137 817 137 817 252 967.5 c 128,-1,8
 367 1118 367 1118 567 1118 c 0,9,10
 773 1118 773 1118 889 958 c 1,11,-1
 901 958 l 1,12,13
 889 1087 889 1087 889 1120 c 2,14,-1
 889 1556 l 1,15,-1
 1071 1556 l 1,16,-1
 1071 0 l 1,17,-1
 924 0 l 1,18,-1
 897 147 l 1,0,-1
889 506 m 1,19,-1
 889 547 l 2,20,21
 889 774 889 774 819.5 870.5 c 128,-1,22
 750 967 750 967 598 967 c 0,23,24
 326 967 326 967 326 545 c 0,25,26
 326 131 326 131 600 131 c 0,27,28
 752 131 752 131 818.5 219.5 c 128,-1,29
 885 308 885 308 889 506 c 1,19,-1
EndSplineSet
EndChar

StartChar: e
Encoding: 101 101 72
Width: 1229
Flags: W
LayerCount: 2
Fore
SplineSet
1096 514 m 1,0,-1
 322 514 l 1,1,2
 330 139 330 139 666 139 c 0,3,4
 861 139 861 139 1036 215 c 1,5,-1
 1036 55 l 1,6,7
 870 -20 870 -20 672 -20 c 0,8,9
 427 -20 427 -20 280 129.5 c 128,-1,10
 133 279 133 279 133 541 c 0,11,12
 133 807 133 807 268.5 962.5 c 128,-1,13
 404 1118 404 1118 631 1118 c 0,14,15
 843 1118 843 1118 969.5 984 c 128,-1,16
 1096 850 1096 850 1096 627 c 2,17,-1
 1096 514 l 1,0,-1
326 662 m 1,18,-1
 899 662 l 1,19,20
 899 967 899 967 627 967 c 0,21,22
 352 967 352 967 326 662 c 1,18,-1
EndSplineSet
EndChar

StartChar: f
Encoding: 102 102 73
Width: 1229
Flags: W
LayerCount: 2
Fore
SplineSet
1044 961 m 1,0,-1
 655 961 l 1,1,-1
 655 0 l 1,2,-1
 473 0 l 1,3,-1
 473 961 l 1,4,-1
 156 961 l 1,5,-1
 156 1071 l 1,6,-1
 473 1104 l 1,7,-1
 473 1200 l 2,8,9
 473 1393 473 1393 563 1480 c 128,-1,10
 653 1567 653 1567 862 1567 c 0,11,12
 991 1567 991 1567 1114 1532 c 1,13,-1
 1073 1389 l 1,14,15
 969 1417 969 1417 866 1417 c 0,16,17
 743 1417 743 1417 699 1367 c 128,-1,18
 655 1317 655 1317 655 1202 c 2,19,-1
 655 1098 l 1,20,-1
 1044 1098 l 1,21,-1
 1044 961 l 1,0,-1
EndSplineSet
EndChar

StartChar: g
Encoding: 103 103 74
Width: 1229
Flags: W
LayerCount: 2
Fore
SplineSet
1126 1098 m 1,0,-1
 1126 985 l 1,1,-1
 930 958 l 1,2,3
 995 873 995 873 995 745 c 0,4,5
 995 584 995 584 888.5 488.5 c 128,-1,6
 782 393 782 393 592 393 c 0,7,8
 537 393 537 393 506 399 c 1,9,10
 406 343 406 343 406 266 c 0,11,12
 406 182 406 182 567 182 c 2,13,-1
 754 182 l 2,14,15
 928 182 928 182 1020 105 c 128,-1,16
 1112 28 1112 28 1112 -115 c 0,17,18
 1112 -492 1112 -492 547 -492 c 0,19,20
 329 -492 329 -492 215.5 -411.5 c 128,-1,21
 102 -331 102 -331 102 -186 c 0,22,23
 102 26 102 26 342 84 c 1,24,25
 246 131 246 131 246 238 c 0,26,27
 246 350 246 350 379 430 c 1,28,29
 290 467 290 467 239 552.5 c 128,-1,30
 188 638 188 638 188 739 c 0,31,32
 188 921 188 921 294.5 1019.5 c 128,-1,33
 401 1118 401 1118 598 1118 c 0,34,35
 684 1118 684 1118 748 1098 c 1,36,-1
 1126 1098 l 1,0,-1
594 518 m 0,37,38
 817 518 817 518 817 748 c 0,39,40
 817 987 817 987 592 987 c 256,41,42
 367 987 367 987 367 745 c 0,43,44
 367 518 367 518 594 518 c 0,37,38
692 18 m 2,45,-1
 504 18 l 2,46,47
 274 18 274 18 274 -180 c 0,48,49
 274 -354 274 -354 545 -354 c 0,50,51
 940 -354 940 -354 940 -131 c 0,52,53
 940 -43 940 -43 890 -12.5 c 128,-1,54
 840 18 840 18 692 18 c 2,45,-1
EndSplineSet
EndChar

StartChar: h
Encoding: 104 104 75
Width: 1229
Flags: W
LayerCount: 2
Fore
SplineSet
887 0 m 1,0,-1
 887 707 l 2,1,2
 887 967 887 967 649 967 c 0,3,4
 342 967 342 967 342 569 c 2,5,-1
 342 0 l 1,6,-1
 160 0 l 1,7,-1
 160 1556 l 1,8,-1
 342 1556 l 1,9,-1
 342 1094 l 1,10,-1
 334 950 l 1,11,-1
 344 950 l 1,12,13
 447 1118 447 1118 680 1118 c 0,14,15
 1069 1118 1069 1118 1069 717 c 2,16,-1
 1069 0 l 1,17,-1
 887 0 l 1,0,-1
EndSplineSet
EndChar

StartChar: i
Encoding: 105 105 76
Width: 1229
Flags: W
LayerCount: 2
Fore
SplineSet
633 1550 m 0,0,1
 739 1550 739 1550 739 1436 c 0,2,3
 739 1378 739 1378 707.5 1349.5 c 128,-1,4
 676 1321 676 1321 633 1321 c 0,5,6
 526 1321 526 1321 526 1436 c 0,7,8
 526 1550 526 1550 633 1550 c 0,0,1
541 954 m 1,9,-1
 272 975 l 1,10,-1
 272 1098 l 1,11,-1
 723 1098 l 1,12,-1
 723 143 l 1,13,-1
 1075 123 l 1,14,-1
 1075 0 l 1,15,-1
 197 0 l 1,16,-1
 197 123 l 1,17,-1
 541 143 l 1,18,-1
 541 954 l 1,9,-1
EndSplineSet
EndChar

StartChar: j
Encoding: 106 106 77
Width: 1229
Flags: W
LayerCount: 2
Fore
SplineSet
743 1550 m 0,0,1
 850 1550 850 1550 850 1436 c 0,2,3
 850 1321 850 1321 743 1321 c 0,4,5
 637 1321 637 1321 637 1436 c 0,6,7
 637 1550 637 1550 743 1550 c 0,0,1
135 -457 m 1,8,-1
 135 -303 l 1,9,10
 269 -342 269 -342 424 -342 c 0,11,12
 541 -342 541 -342 606.5 -285 c 128,-1,13
 672 -228 672 -228 672 -127 c 2,14,-1
 672 954 l 1,15,-1
 252 975 l 1,16,-1
 252 1098 l 1,17,-1
 854 1098 l 1,18,-1
 854 -117 l 2,19,20
 854 -297 854 -297 741 -394.5 c 128,-1,21
 628 -492 628 -492 422 -492 c 0,22,23
 258 -492 258 -492 135 -457 c 1,8,-1
EndSplineSet
EndChar

StartChar: k
Encoding: 107 107 78
Width: 1229
Flags: W
LayerCount: 2
Fore
SplineSet
383 553 m 1,0,-1
 518 705 l 1,1,-1
 913 1098 l 1,2,-1
 1135 1098 l 1,3,-1
 641 623 l 1,4,-1
 1163 0 l 1,5,-1
 950 0 l 1,6,-1
 524 504 l 1,7,-1
 395 422 l 1,8,-1
 395 0 l 1,9,-1
 215 0 l 1,10,-1
 215 1556 l 1,11,-1
 395 1556 l 1,12,-1
 395 842 l 1,13,-1
 379 553 l 1,14,-1
 383 553 l 1,0,-1
EndSplineSet
EndChar

StartChar: l
Encoding: 108 108 79
Width: 1229
Flags: W
LayerCount: 2
Fore
SplineSet
532 1413 m 1,0,-1
 264 1434 l 1,1,-1
 264 1556 l 1,2,-1
 715 1556 l 1,3,-1
 715 143 l 1,4,-1
 1067 123 l 1,5,-1
 1067 0 l 1,6,-1
 188 0 l 1,7,-1
 188 123 l 1,8,-1
 532 143 l 1,9,-1
 532 1413 l 1,0,-1
EndSplineSet
EndChar

StartChar: m
Encoding: 109 109 80
Width: 1229
Flags: W
LayerCount: 2
Fore
SplineSet
977 0 m 1,0,-1
 977 707 l 2,1,2
 977 853 977 853 950.5 910 c 128,-1,3
 924 967 924 967 862 967 c 0,4,5
 775 967 775 967 735.5 884 c 128,-1,6
 696 801 696 801 696 606 c 2,7,-1
 696 0 l 1,8,-1
 535 0 l 1,9,-1
 535 707 l 2,10,11
 535 967 535 967 410 967 c 0,12,13
 326 967 326 967 290 887.5 c 128,-1,14
 254 808 254 808 254 569 c 2,15,-1
 254 0 l 1,16,-1
 92 0 l 1,17,-1
 92 1098 l 1,18,-1
 219 1098 l 1,19,-1
 246 950 l 1,20,-1
 256 950 l 1,21,22
 323 1118 323 1118 457 1118 c 0,23,24
 620 1118 620 1118 670 936 c 1,25,-1
 676 936 l 1,26,27
 752 1118 752 1118 895 1118 c 0,28,29
 1023 1118 1023 1118 1081 1025.5 c 128,-1,30
 1139 933 1139 933 1139 717 c 2,31,-1
 1139 0 l 1,32,-1
 977 0 l 1,0,-1
EndSplineSet
EndChar

StartChar: n
Encoding: 110 110 81
Width: 1229
Flags: W
LayerCount: 2
Fore
SplineSet
887 0 m 1,0,-1
 887 707 l 2,1,2
 887 967 887 967 649 967 c 0,3,4
 342 967 342 967 342 569 c 2,5,-1
 342 0 l 1,6,-1
 160 0 l 1,7,-1
 160 1098 l 1,8,-1
 307 1098 l 1,9,-1
 334 950 l 1,10,-1
 344 950 l 1,11,12
 447 1118 447 1118 680 1118 c 0,13,14
 1069 1118 1069 1118 1069 717 c 2,15,-1
 1069 0 l 1,16,-1
 887 0 l 1,0,-1
EndSplineSet
EndChar

StartChar: o
Encoding: 111 111 82
Width: 1229
Flags: W
LayerCount: 2
Fore
SplineSet
610 -20 m 0,0,1
 394 -20 394 -20 254.5 135.5 c 128,-1,2
 115 291 115 291 115 551 c 0,3,4
 115 814 115 814 250.5 966 c 128,-1,5
 386 1118 386 1118 616 1118 c 0,6,7
 834 1118 834 1118 973 963 c 128,-1,8
 1112 808 1112 808 1112 551 c 0,9,10
 1112 286 1112 286 975 133 c 128,-1,11
 838 -20 838 -20 610 -20 c 0,0,1
614 131 m 0,12,13
 924 131 924 131 924 551 c 0,14,15
 924 967 924 967 612 967 c 0,16,17
 303 967 303 967 303 551 c 0,18,19
 303 131 303 131 614 131 c 0,12,13
EndSplineSet
EndChar

StartChar: p
Encoding: 112 112 83
Width: 1229
Flags: W
LayerCount: 2
Fore
SplineSet
340 139 m 1,0,-1
 328 139 l 1,1,2
 340 10 340 10 340 -23 c 2,3,-1
 340 -492 l 1,4,-1
 158 -492 l 1,5,-1
 158 1098 l 1,6,-1
 305 1098 l 1,7,-1
 332 950 l 1,8,-1
 340 950 l 1,9,10
 450 1118 450 1118 662 1118 c 0,11,12
 863 1118 863 1118 977.5 968.5 c 128,-1,13
 1092 819 1092 819 1092 551 c 0,14,15
 1092 281 1092 281 977 130.5 c 128,-1,16
 862 -20 862 -20 662 -20 c 0,17,18
 455 -20 455 -20 340 139 c 1,0,-1
340 592 m 1,19,-1
 340 551 l 2,20,21
 340 324 340 324 409.5 227.5 c 128,-1,22
 479 131 479 131 631 131 c 0,23,24
 903 131 903 131 903 553 c 0,25,26
 903 967 903 967 629 967 c 0,27,28
 477 967 477 967 410.5 879 c 128,-1,29
 344 791 344 791 340 592 c 1,19,-1
EndSplineSet
EndChar

StartChar: q
Encoding: 113 113 84
Width: 1229
Flags: W
LayerCount: 2
Fore
SplineSet
889 950 m 1,0,-1
 897 950 l 1,1,-1
 924 1098 l 1,2,-1
 1071 1098 l 1,3,-1
 1071 -492 l 1,4,-1
 889 -492 l 1,5,-1
 889 -23 l 2,6,7
 889 18 889 18 901 147 c 1,8,-1
 889 147 l 1,9,10
 776 -20 776 -20 567 -20 c 0,11,12
 366 -20 366 -20 251.5 129.5 c 128,-1,13
 137 279 137 279 137 547 c 0,14,15
 137 817 137 817 252 967.5 c 128,-1,16
 367 1118 367 1118 567 1118 c 0,17,18
 774 1118 774 1118 889 950 c 1,0,-1
889 506 m 1,19,-1
 889 547 l 2,20,21
 889 774 889 774 819.5 870.5 c 128,-1,22
 750 967 750 967 598 967 c 0,23,24
 326 967 326 967 326 545 c 0,25,26
 326 131 326 131 600 131 c 0,27,28
 752 131 752 131 818.5 219.5 c 128,-1,29
 885 308 885 308 889 506 c 1,19,-1
EndSplineSet
EndChar

StartChar: r
Encoding: 114 114 85
Width: 1229
Flags: W
LayerCount: 2
Fore
SplineSet
1059 1073 m 1,0,-1
 1010 907 l 1,1,2
 887 952 887 952 786 952 c 0,3,4
 623 952 623 952 534.5 859.5 c 128,-1,5
 446 767 446 767 446 592 c 2,6,-1
 446 0 l 1,7,-1
 264 0 l 1,8,-1
 264 1098 l 1,9,-1
 412 1098 l 1,10,-1
 434 897 l 1,11,-1
 442 897 l 1,12,13
 518 1016 518 1016 605 1067 c 128,-1,14
 692 1118 692 1118 819 1118 c 0,15,16
 937 1118 937 1118 1059 1073 c 1,0,-1
EndSplineSet
EndChar

StartChar: s
Encoding: 115 115 86
Width: 1229
Flags: W
LayerCount: 2
Fore
SplineSet
203 49 m 1,0,-1
 203 215 l 1,1,2
 396 129 396 129 573 129 c 0,3,4
 848 129 848 129 848 291 c 0,5,6
 848 348 848 348 799 390 c 128,-1,7
 750 432 750 432 573 496 c 0,8,9
 340 583 340 583 279.5 655.5 c 128,-1,10
 219 728 219 728 219 827 c 0,11,12
 219 963 219 963 330.5 1040.5 c 128,-1,13
 442 1118 442 1118 639 1118 c 0,14,15
 837 1118 837 1118 1008 1044 c 1,16,-1
 948 895 l 1,17,18
 766 967 766 967 629 967 c 0,19,20
 393 967 393 967 393 834 c 0,21,22
 393 773 393 773 443.5 736.5 c 128,-1,23
 494 700 494 700 676 635 c 0,24,25
 887 558 887 558 956.5 483.5 c 128,-1,26
 1026 409 1026 409 1026 301 c 0,27,28
 1026 151 1026 151 909 65.5 c 128,-1,29
 792 -20 792 -20 578 -20 c 0,30,31
 330 -20 330 -20 203 49 c 1,0,-1
EndSplineSet
EndChar

StartChar: t
Encoding: 116 116 87
Width: 1229
Flags: W
LayerCount: 2
Fore
SplineSet
1020 150 m 1,0,-1
 1020 12 l 1,1,2
 890 -20 890 -20 768 -20 c 0,3,4
 406 -20 406 -20 406 324 c 2,5,-1
 406 961 l 1,6,-1
 139 961 l 1,7,-1
 139 1055 l 1,8,-1
 406 1104 l 1,9,-1
 483 1391 l 1,10,-1
 588 1391 l 1,11,-1
 588 1098 l 1,12,-1
 1026 1098 l 1,13,-1
 1026 961 l 1,14,-1
 588 961 l 1,15,-1
 588 324 l 2,16,17
 588 129 588 129 780 129 c 0,18,19
 873 129 873 129 1020 150 c 1,0,-1
EndSplineSet
EndChar

StartChar: u
Encoding: 117 117 88
Width: 1229
Flags: W
LayerCount: 2
Fore
SplineSet
922 0 m 1,0,-1
 895 147 l 1,1,-1
 885 147 l 1,2,3
 780 -20 780 -20 551 -20 c 0,4,5
 160 -20 160 -20 160 381 c 2,6,-1
 160 1098 l 1,7,-1
 342 1098 l 1,8,-1
 342 391 l 2,9,10
 342 131 342 131 578 131 c 0,11,12
 739 131 739 131 813 223.5 c 128,-1,13
 887 316 887 316 887 528 c 2,14,-1
 887 1098 l 1,15,-1
 1069 1098 l 1,16,-1
 1069 0 l 1,17,-1
 922 0 l 1,0,-1
EndSplineSet
EndChar

StartChar: v
Encoding: 118 118 89
Width: 1229
Flags: W
LayerCount: 2
Fore
SplineSet
498 0 m 1,0,-1
 82 1098 l 1,1,-1
 270 1098 l 1,2,-1
 510 446 l 2,3,4
 595 215 595 215 610 121 c 1,5,-1
 616 121 l 1,6,7
 623 165 623 165 717 446 c 1,8,-1
 956 1098 l 1,9,-1
 1145 1098 l 1,10,-1
 729 0 l 1,11,-1
 498 0 l 1,0,-1
EndSplineSet
EndChar

StartChar: w
Encoding: 119 119 90
Width: 1229
Flags: W
LayerCount: 2
Fore
SplineSet
813 0 m 1,0,-1
 682 596 l 1,1,-1
 614 926 l 1,2,-1
 608 926 l 1,3,-1
 543 592 l 1,4,-1
 408 0 l 1,5,-1
 219 0 l 1,6,-1
 -4 1098 l 1,7,-1
 158 1098 l 1,8,-1
 256 555 l 2,9,10
 290 369 290 369 313 162 c 1,11,-1
 319 162 l 1,12,13
 350 347 350 347 387 520 c 2,14,-1
 520 1098 l 1,15,-1
 713 1098 l 1,16,-1
 840 520 l 2,17,18
 883 325 883 325 907 162 c 1,19,-1
 913 162 l 1,20,21
 944 404 944 404 973 555 c 2,22,-1
 1075 1098 l 1,23,-1
 1233 1098 l 1,24,-1
 1008 0 l 1,25,-1
 813 0 l 1,0,-1
EndSplineSet
EndChar

StartChar: x
Encoding: 120 120 91
Width: 1229
Flags: W
LayerCount: 2
Fore
SplineSet
510 563 m 1,0,-1
 117 1098 l 1,1,-1
 324 1098 l 1,2,-1
 614 688 l 1,3,-1
 905 1098 l 1,4,-1
 1112 1098 l 1,5,-1
 717 563 l 1,6,-1
 1130 0 l 1,7,-1
 924 0 l 1,8,-1
 614 436 l 1,9,-1
 303 0 l 1,10,-1
 96 0 l 1,11,-1
 510 563 l 1,0,-1
EndSplineSet
EndChar

StartChar: y
Encoding: 121 121 92
Width: 1229
Flags: W
LayerCount: 2
Fore
SplineSet
82 1098 m 1,0,-1
 270 1098 l 1,1,-1
 532 444 l 2,2,3
 614 239 614 239 621 154 c 1,4,-1
 627 154 l 1,5,6
 650 266 650 266 717 446 c 2,7,-1
 956 1098 l 1,8,-1
 1145 1098 l 1,9,-1
 670 -143 l 2,10,11
 603 -317 603 -317 514 -404.5 c 128,-1,12
 425 -492 425 -492 268 -492 c 0,13,14
 182 -492 182 -492 100 -475 c 1,15,-1
 100 -330 l 1,16,17
 162 -342 162 -342 236 -342 c 0,18,19
 332 -342 332 -342 385.5 -301 c 128,-1,20
 439 -260 439 -260 481 -160 c 2,21,-1
 539 -10 l 1,22,-1
 82 1098 l 1,0,-1
EndSplineSet
EndChar

StartChar: z
Encoding: 122 122 93
Width: 1229
Flags: W
LayerCount: 2
Fore
SplineSet
1044 0 m 1,0,-1
 182 0 l 1,1,-1
 182 125 l 1,2,-1
 842 961 l 1,3,-1
 215 961 l 1,4,-1
 215 1098 l 1,5,-1
 1026 1098 l 1,6,-1
 1026 952 l 1,7,-1
 379 137 l 1,8,-1
 1044 137 l 1,9,-1
 1044 0 l 1,0,-1
EndSplineSet
EndChar

StartChar: braceleft
Encoding: 123 123 94
Width: 1229
Flags: W
LayerCount: 2
Fore
SplineSet
745 -16 m 2,0,1
 745 -97 745 -97 801 -134.5 c 128,-1,2
 857 -172 857 -172 1001 -174 c 1,3,-1
 1001 -324 l 1,4,5
 563 -318 563 -318 563 -31 c 2,6,-1
 563 303 l 2,7,8
 563 492 563 492 225 492 c 1,9,-1
 225 647 l 1,10,11
 563 647 563 647 563 836 c 2,12,-1
 563 1169 l 2,13,14
 563 1456 563 1456 1001 1462 c 1,15,-1
 1001 1313 l 1,16,17
 857 1311 857 1311 801 1273.5 c 128,-1,18
 745 1236 745 1236 745 1155 c 2,19,-1
 745 823 l 2,20,21
 745 616 745 616 512 575 c 1,22,-1
 512 563 l 1,23,24
 745 522 745 522 745 315 c 2,25,-1
 745 -16 l 2,0,1
EndSplineSet
EndChar

StartChar: bar
Encoding: 124 124 95
Width: 1229
Flags: W
LayerCount: 2
Fore
SplineSet
539 1556 m 1,0,-1
 688 1556 l 1,1,-1
 688 -492 l 1,2,-1
 539 -492 l 1,3,-1
 539 1556 l 1,0,-1
EndSplineSet
EndChar

StartChar: braceright
Encoding: 125 125 96
Width: 1229
Flags: W
LayerCount: 2
Fore
SplineSet
483 315 m 2,0,1
 483 522 483 522 717 563 c 1,2,-1
 717 575 l 1,3,4
 483 616 483 616 483 823 c 2,5,-1
 483 1155 l 2,6,7
 483 1236 483 1236 426.5 1274 c 128,-1,8
 370 1312 370 1312 227 1313 c 1,9,-1
 227 1462 l 1,10,11
 666 1456 666 1456 666 1169 c 2,12,-1
 666 836 l 2,13,14
 666 647 666 647 1004 647 c 1,15,-1
 1004 492 l 1,16,17
 666 492 666 492 666 303 c 2,18,-1
 666 -31 l 2,19,20
 666 -318 666 -318 227 -324 c 1,21,-1
 227 -174 l 1,22,23
 370 -173 370 -173 426.5 -135 c 128,-1,24
 483 -97 483 -97 483 -16 c 2,25,-1
 483 315 l 2,0,1
EndSplineSet
EndChar

StartChar: asciitilde
Encoding: 126 126 97
Width: 1229
Flags: W
LayerCount: 2
Fore
SplineSet
152 586 m 1,0,-1
 152 748 l 1,1,2
 251 856 251 856 399 856 c 0,3,4
 499 856 499 856 647 793 c 0,5,6
 777 737 777 737 848 737 c 0,7,8
 956 737 956 737 1075 858 c 1,9,-1
 1075 696 l 1,10,11
 976 588 976 588 827 588 c 0,12,13
 727 588 727 588 580 651 c 0,14,15
 449 707 449 707 379 707 c 0,16,17
 271 707 271 707 152 586 c 1,0,-1
EndSplineSet
EndChar

StartChar: exclamdown
Encoding: 161 161 99
Width: 1229
Flags: W
LayerCount: 2
Fore
SplineSet
614 840 m 256,0,1
 487 840 487 840 487 979 c 256,2,3
 487 1118 487 1118 614 1118 c 256,4,5
 741 1118 741 1118 741 979 c 256,6,7
 741 840 741 840 614 840 c 256,0,1
553 676 m 1,8,-1
 674 676 l 1,9,-1
 725 -373 l 1,10,-1
 502 -373 l 1,11,-1
 553 676 l 1,8,-1
EndSplineSet
EndChar

StartChar: cent
Encoding: 162 162 100
Width: 1229
Flags: W
LayerCount: 2
Fore
SplineSet
743 1319 m 1,0,1
 905 1316 905 1316 1061 1260 c 1,2,-1
 999 1102 l 1,3,4
 849 1159 849 1159 731 1159 c 0,5,6
 360 1159 360 1159 360 745 c 0,7,8
 360 340 360 340 721 340 c 0,9,10
 874 340 874 340 1042 401 c 1,11,-1
 1042 242 l 1,12,13
 920 183 920 183 743 180 c 1,14,-1
 743 -20 l 1,15,-1
 606 -20 l 1,16,-1
 606 186 l 1,17,18
 172 255 172 255 172 743 c 0,19,20
 172 1237 172 1237 606 1311 c 1,21,-1
 606 1483 l 1,22,-1
 743 1483 l 1,23,-1
 743 1319 l 1,0,1
EndSplineSet
EndChar

StartChar: sterling
Encoding: 163 163 101
Width: 1229
Flags: W
LayerCount: 2
Fore
SplineSet
1063 1401 m 1,0,-1
 997 1257 l 1,1,2
 856 1329 856 1329 725 1329 c 0,3,4
 502 1329 502 1329 502 1083 c 2,5,-1
 502 788 l 1,6,-1
 879 788 l 1,7,-1
 879 651 l 1,8,-1
 502 651 l 1,9,-1
 502 440 l 2,10,11
 502 244 502 244 362 166 c 1,12,-1
 1110 166 l 1,13,-1
 1110 0 l 1,14,-1
 119 0 l 1,15,-1
 119 154 l 1,16,17
 319 203 319 203 319 438 c 2,18,-1
 319 651 l 1,19,-1
 121 651 l 1,20,-1
 121 788 l 1,21,-1
 319 788 l 1,22,-1
 319 1112 l 2,23,24
 319 1280 319 1280 427.5 1380.5 c 128,-1,25
 536 1481 536 1481 717 1481 c 0,26,27
 909 1481 909 1481 1063 1401 c 1,0,-1
EndSplineSet
EndChar

StartChar: currency
Encoding: 164 164 102
Width: 1229
Flags: W
LayerCount: 2
Fore
SplineSet
303 936 m 1,0,-1
 174 1065 l 1,1,-1
 272 1163 l 1,2,-1
 399 1034 l 1,3,4
 500 1102 500 1102 614 1102 c 256,5,6
 728 1102 728 1102 827 1034 c 1,7,-1
 956 1163 l 1,8,-1
 1055 1067 l 1,9,-1
 926 938 l 1,10,11
 993 837 993 837 993 723 c 0,12,13
 993 603 993 603 926 508 c 1,14,-1
 1053 381 l 1,15,-1
 956 285 l 1,16,-1
 827 412 l 1,17,18
 728 346 728 346 614 346 c 0,19,20
 496 346 496 346 399 414 c 1,21,-1
 272 287 l 1,22,-1
 176 383 l 1,23,-1
 303 510 l 1,24,25
 238 605 238 605 238 723 c 0,26,27
 238 837 238 837 303 936 c 1,0,-1
614 483 m 0,28,29
 714 483 714 483 786 553 c 128,-1,30
 858 623 858 623 858 723 c 0,31,32
 858 824 858 824 786.5 895.5 c 128,-1,33
 715 967 715 967 614 967 c 0,34,35
 515 967 515 967 445 896 c 128,-1,36
 375 825 375 825 375 723 c 0,37,38
 375 623 375 623 445.5 553 c 128,-1,39
 516 483 516 483 614 483 c 0,28,29
EndSplineSet
EndChar

StartChar: yen
Encoding: 165 165 103
Width: 1229
Flags: W
LayerCount: 2
Fore
SplineSet
612 723 m 1,0,-1
 958 1462 l 1,1,-1
 1149 1462 l 1,2,-1
 764 694 l 1,3,-1
 1004 694 l 1,4,-1
 1004 557 l 1,5,-1
 702 557 l 1,6,-1
 702 399 l 1,7,-1
 1004 399 l 1,8,-1
 1004 262 l 1,9,-1
 702 262 l 1,10,-1
 702 0 l 1,11,-1
 524 0 l 1,12,-1
 524 262 l 1,13,-1
 223 262 l 1,14,-1
 223 399 l 1,15,-1
 524 399 l 1,16,-1
 524 557 l 1,17,-1
 223 557 l 1,18,-1
 223 694 l 1,19,-1
 457 694 l 1,20,-1
 78 1462 l 1,21,-1
 270 1462 l 1,22,-1
 612 723 l 1,0,-1
EndSplineSet
EndChar

StartChar: brokenbar
Encoding: 166 166 104
Width: 1229
Flags: W
LayerCount: 2
Fore
SplineSet
539 1556 m 1,0,-1
 688 1556 l 1,1,-1
 688 776 l 1,2,-1
 539 776 l 1,3,-1
 539 1556 l 1,0,-1
539 289 m 1,4,-1
 688 289 l 1,5,-1
 688 -492 l 1,6,-1
 539 -492 l 1,7,-1
 539 289 l 1,4,-1
EndSplineSet
EndChar

StartChar: section
Encoding: 167 167 105
Width: 1229
Flags: W
LayerCount: 2
Fore
SplineSet
420 1067 m 1,0,1
 260 1147 260 1147 260 1303 c 0,2,3
 260 1423 260 1423 364 1495 c 128,-1,4
 468 1567 468 1567 641 1567 c 0,5,6
 803 1567 803 1567 967 1495 c 1,7,-1
 911 1356 l 1,8,9
 755 1423 755 1423 635 1423 c 0,10,11
 434 1423 434 1423 434 1307 c 0,12,13
 434 1253 434 1253 483.5 1214 c 128,-1,14
 533 1175 533 1175 680 1114 c 0,15,16
 837 1052 837 1052 911 974.5 c 128,-1,17
 985 897 985 897 985 784 c 0,18,19
 985 602 985 602 840 514 c 1,20,21
 985 434 985 434 985 289 c 0,22,23
 985 151 985 151 874.5 70.5 c 128,-1,24
 764 -10 764 -10 567 -10 c 0,25,26
 363 -10 363 -10 244 55 c 1,27,-1
 244 213 l 1,28,29
 415 131 415 131 567 131 c 0,30,31
 807 131 807 131 807 272 c 0,32,33
 807 329 807 329 764 369 c 128,-1,34
 721 409 721 409 569 471 c 0,35,36
 372 555 372 555 316 630 c 128,-1,37
 260 705 260 705 260 809 c 0,38,39
 260 988 260 988 420 1067 c 1,0,1
713 573 m 1,40,41
 827 649 827 649 827 758 c 0,42,43
 827 847 827 847 753.5 902.5 c 128,-1,44
 680 958 680 958 547 1006 c 1,45,46
 414 958 414 958 414 831 c 0,47,48
 414 758 414 758 470.5 704.5 c 128,-1,49
 527 651 527 651 678 588 c 2,50,-1
 713 573 l 1,40,41
EndSplineSet
EndChar

StartChar: dieresis
Encoding: 168 168 106
Width: 1229
Flags: W
LayerCount: 2
Fore
SplineSet
426 1497 m 256,0,1
 522 1497 522 1497 522 1395 c 0,2,3
 522 1292 522 1292 426 1292 c 256,4,5
 330 1292 330 1292 330 1395 c 0,6,7
 330 1497 330 1497 426 1497 c 256,0,1
801 1497 m 256,8,9
 897 1497 897 1497 897 1395 c 0,10,11
 897 1292 897 1292 801 1292 c 256,12,13
 705 1292 705 1292 705 1395 c 0,14,15
 705 1497 705 1497 801 1497 c 256,8,9
EndSplineSet
EndChar

StartChar: copyright
Encoding: 169 169 107
Width: 1229
Flags: W
LayerCount: 2
Fore
SplineSet
614 1483 m 0,0,1
 900 1483 900 1483 1061.5 1279 c 128,-1,2
 1223 1075 1223 1075 1223 731 c 0,3,4
 1223 386 1223 386 1061 183 c 128,-1,5
 899 -20 899 -20 614 -20 c 0,6,7
 328 -20 328 -20 167 183.5 c 128,-1,8
 6 387 6 387 6 731 c 0,9,10
 6 1074 6 1074 166.5 1278.5 c 128,-1,11
 327 1483 327 1483 614 1483 c 0,0,1
614 88 m 256,12,13
 854 88 854 88 984 258.5 c 128,-1,14
 1114 429 1114 429 1114 731 c 256,15,16
 1114 1033 1114 1033 984 1203.5 c 128,-1,17
 854 1374 854 1374 614 1374 c 256,18,19
 374 1374 374 1374 244.5 1203 c 128,-1,20
 115 1032 115 1032 115 731 c 256,21,22
 115 430 115 430 244.5 259 c 128,-1,23
 374 88 374 88 614 88 c 256,12,13
874 453 m 1,24,-1
 874 322 l 1,25,26
 767 272 767 272 653 272 c 0,27,28
 458 272 458 272 353 395.5 c 128,-1,29
 248 519 248 519 248 733 c 0,30,31
 248 942 248 942 358 1065 c 128,-1,32
 468 1188 468 1188 659 1188 c 0,33,34
 787 1188 787 1188 913 1126 c 1,35,-1
 852 999 l 1,36,37
 742 1053 742 1053 659 1053 c 0,38,39
 538 1053 538 1053 473 967.5 c 128,-1,40
 408 882 408 882 408 731 c 0,41,42
 408 408 408 408 659 408 c 0,43,44
 753 408 753 408 874 453 c 1,24,-1
EndSplineSet
EndChar

StartChar: ordfeminine
Encoding: 170 170 108
Width: 1229
Flags: W
LayerCount: 2
Fore
SplineSet
799 797 m 1,0,-1
 766 915 l 1,1,2
 662 784 662 784 498 784 c 0,3,4
 276 784 276 784 276 989 c 0,5,6
 276 1105 276 1105 361 1156.5 c 128,-1,7
 446 1208 446 1208 637 1214 c 2,8,-1
 762 1219 l 1,9,-1
 762 1229 l 2,10,11
 762 1362 762 1362 610 1362 c 0,12,13
 498 1362 498 1362 365 1311 c 1,14,-1
 324 1421 l 1,15,16
 462 1479 462 1479 618 1479 c 0,17,18
 909 1479 909 1479 909 1241 c 2,19,-1
 909 797 l 1,20,-1
 799 797 l 1,0,-1
662 1116 m 2,21,22
 548 1114 548 1114 488 1088 c 128,-1,23
 428 1062 428 1062 428 987 c 0,24,25
 428 897 428 897 532 897 c 0,26,27
 637 897 637 897 699.5 952 c 128,-1,28
 762 1007 762 1007 762 1098 c 2,29,-1
 762 1118 l 1,30,-1
 662 1116 l 2,21,22
EndSplineSet
EndChar

StartChar: guillemotleft
Encoding: 171 171 109
Width: 1229
Flags: W
LayerCount: 2
Fore
SplineSet
197 553 m 1,0,-1
 506 967 l 1,1,-1
 623 889 l 1,2,-1
 385 541 l 1,3,-1
 623 193 l 1,4,-1
 506 115 l 1,5,-1
 197 526 l 1,6,-1
 197 553 l 1,0,-1
604 553 m 1,7,-1
 913 967 l 1,8,-1
 1030 889 l 1,9,-1
 793 541 l 1,10,-1
 1030 193 l 1,11,-1
 913 115 l 1,12,-1
 604 526 l 1,13,-1
 604 553 l 1,7,-1
EndSplineSet
EndChar

StartChar: logicalnot
Encoding: 172 172 110
Width: 1229
Flags: W
LayerCount: 2
Fore
SplineSet
1075 797 m 1,0,-1
 1075 262 l 1,1,-1
 926 262 l 1,2,-1
 926 647 l 1,3,-1
 152 647 l 1,4,-1
 152 797 l 1,5,-1
 1075 797 l 1,0,-1
EndSplineSet
EndChar

StartChar: registered
Encoding: 174 174 112
Width: 1229
Flags: W
LayerCount: 2
Fore
SplineSet
614 1483 m 0,0,1
 900 1483 900 1483 1061.5 1279 c 128,-1,2
 1223 1075 1223 1075 1223 731 c 0,3,4
 1223 386 1223 386 1061 183 c 128,-1,5
 899 -20 899 -20 614 -20 c 0,6,7
 328 -20 328 -20 167 183.5 c 128,-1,8
 6 387 6 387 6 731 c 0,9,10
 6 1074 6 1074 166.5 1278.5 c 128,-1,11
 327 1483 327 1483 614 1483 c 0,0,1
614 88 m 256,12,13
 854 88 854 88 984 258.5 c 128,-1,14
 1114 429 1114 429 1114 731 c 256,15,16
 1114 1033 1114 1033 984 1203.5 c 128,-1,17
 854 1374 854 1374 614 1374 c 256,18,19
 374 1374 374 1374 244.5 1203 c 128,-1,20
 115 1032 115 1032 115 731 c 256,21,22
 115 430 115 430 244.5 259 c 128,-1,23
 374 88 374 88 614 88 c 256,12,13
748 680 m 1,24,-1
 985 285 l 1,25,-1
 807 285 l 1,26,-1
 600 637 l 1,27,-1
 506 637 l 1,28,-1
 506 285 l 1,29,-1
 348 285 l 1,30,-1
 348 1178 l 1,31,-1
 582 1178 l 2,32,33
 907 1178 907 1178 907 913 c 0,34,35
 907 750 907 750 748 680 c 1,24,-1
506 768 m 1,36,-1
 578 768 l 2,37,38
 748 768 748 768 748 909 c 0,39,40
 748 983 748 983 706 1012.5 c 128,-1,41
 664 1042 664 1042 575 1042 c 2,42,-1
 506 1042 l 1,43,-1
 506 768 l 1,36,-1
EndSplineSet
EndChar

StartChar: overscore
Encoding: 175 175 113
Width: 1229
Flags: W
LayerCount: 2
Fore
SplineSet
1249 1556 m 1,0,-1
 -20 1556 l 1,1,-1
 -20 1696 l 1,2,-1
 1249 1696 l 1,3,-1
 1249 1556 l 1,0,-1
EndSplineSet
EndChar

StartChar: degree
Encoding: 176 176 114
Width: 1229
Flags: W
LayerCount: 2
Fore
SplineSet
614 1483 m 0,0,1
 743 1483 743 1483 836.5 1389.5 c 128,-1,2
 930 1296 930 1296 930 1167 c 256,3,4
 930 1038 930 1038 837 946 c 128,-1,5
 744 854 744 854 614 854 c 0,6,7
 483 854 483 854 391 946.5 c 128,-1,8
 299 1039 299 1039 299 1167 c 0,9,10
 299 1296 299 1296 391.5 1389.5 c 128,-1,11
 484 1483 484 1483 614 1483 c 0,0,1
614 977 m 0,12,13
 693 977 693 977 750 1033 c 128,-1,14
 807 1089 807 1089 807 1167 c 0,15,16
 807 1248 807 1248 749.5 1305 c 128,-1,17
 692 1362 692 1362 614 1362 c 0,18,19
 535 1362 535 1362 478.5 1304.5 c 128,-1,20
 422 1247 422 1247 422 1167 c 0,21,22
 422 1089 422 1089 478 1033 c 128,-1,23
 534 977 534 977 614 977 c 0,12,13
EndSplineSet
EndChar

StartChar: plusminus
Encoding: 177 177 115
Width: 1229
Flags: W
LayerCount: 2
Fore
SplineSet
539 647 m 1,0,-1
 152 647 l 1,1,-1
 152 797 l 1,2,-1
 539 797 l 1,3,-1
 539 1186 l 1,4,-1
 688 1186 l 1,5,-1
 688 797 l 1,6,-1
 1075 797 l 1,7,-1
 1075 647 l 1,8,-1
 688 647 l 1,9,-1
 688 262 l 1,10,-1
 539 262 l 1,11,-1
 539 647 l 1,0,-1
152 0 m 1,12,-1
 152 150 l 1,13,-1
 1075 150 l 1,14,-1
 1075 0 l 1,15,-1
 152 0 l 1,12,-1
EndSplineSet
EndChar

StartChar: twosuperior
Encoding: 178 178 116
Width: 1229
Flags: W
LayerCount: 2
Fore
SplineSet
879 672 m 1,0,-1
 348 672 l 1,1,-1
 348 774 l 1,2,-1
 535 973 l 2,3,4
 646 1091 646 1091 676.5 1141.5 c 128,-1,5
 707 1192 707 1192 707 1249 c 0,6,7
 707 1364 707 1364 596 1364 c 0,8,9
 515 1364 515 1364 432 1288 c 1,10,-1
 354 1374 l 1,11,12
 471 1477 471 1477 602 1477 c 0,13,14
 720 1477 720 1477 785 1417 c 128,-1,15
 850 1357 850 1357 850 1253 c 0,16,17
 850 1187 850 1187 815 1119 c 128,-1,18
 780 1051 780 1051 651 922 c 2,19,-1
 516 786 l 1,20,-1
 879 786 l 1,21,-1
 879 672 l 1,0,-1
EndSplineSet
EndChar

StartChar: threesuperior
Encoding: 179 179 117
Width: 1229
Flags: W
LayerCount: 2
Fore
SplineSet
670 1085 m 1,0,1
 846 1046 846 1046 846 899 c 0,2,3
 846 783 846 783 771.5 719 c 128,-1,4
 697 655 697 655 557 655 c 0,5,6
 426 655 426 655 342 705 c 1,7,-1
 342 829 l 1,8,9
 452 764 452 764 545 764 c 0,10,11
 694 764 694 764 694 901 c 0,12,13
 694 1026 694 1026 547 1026 c 2,14,-1
 475 1026 l 1,15,-1
 475 1130 l 1,16,-1
 545 1130 l 2,17,18
 668 1130 668 1130 668 1257 c 0,19,20
 668 1368 668 1368 571 1368 c 0,21,22
 500 1368 500 1368 410 1298 c 1,23,-1
 344 1384 l 1,24,25
 455 1477 455 1477 582 1477 c 0,26,27
 691 1477 691 1477 755 1422.5 c 128,-1,28
 819 1368 819 1368 819 1274 c 0,29,30
 819 1135 819 1135 670 1085 c 1,0,1
EndSplineSet
EndChar

StartChar: acute
Encoding: 180 180 118
Width: 1229
Flags: W
LayerCount: 2
Fore
SplineSet
418 1268 m 1,0,1
 512 1401 512 1401 592 1569 c 1,2,-1
 811 1569 l 1,3,-1
 811 1548 l 1,4,5
 699 1375 699 1375 539 1241 c 1,6,-1
 418 1241 l 1,7,-1
 418 1268 l 1,0,1
EndSplineSet
EndChar

StartChar: mu
Encoding: 181 181 119
Width: 1229
Flags: W
LayerCount: 2
Fore
SplineSet
362 391 m 2,0,1
 362 131 362 131 580 131 c 0,2,3
 728 131 728 131 797 222 c 128,-1,4
 866 313 866 313 866 528 c 2,5,-1
 866 1098 l 1,6,-1
 1049 1098 l 1,7,-1
 1049 0 l 1,8,-1
 901 0 l 1,9,-1
 874 147 l 1,10,-1
 864 147 l 1,11,12
 768 -20 768 -20 569 -20 c 0,13,14
 430 -20 430 -20 356 68 c 1,15,16
 362 -85 362 -85 362 -172 c 2,17,-1
 362 -492 l 1,18,-1
 180 -492 l 1,19,-1
 180 1098 l 1,20,-1
 362 1098 l 1,21,-1
 362 391 l 2,0,1
EndSplineSet
EndChar

StartChar: paragraph
Encoding: 182 182 120
Width: 1229
Flags: W
LayerCount: 2
Fore
SplineSet
1079 -260 m 1,0,-1
 958 -260 l 1,1,-1
 958 1397 l 1,2,-1
 752 1397 l 1,3,-1
 752 -260 l 1,4,-1
 631 -260 l 1,5,-1
 631 559 l 1,6,7
 570 541 570 541 485 541 c 0,8,9
 66 541 66 541 66 1042 c 0,10,11
 66 1301 66 1301 174.5 1428.5 c 128,-1,12
 283 1556 283 1556 516 1556 c 2,13,-1
 1079 1556 l 1,14,-1
 1079 -260 l 1,0,-1
EndSplineSet
EndChar

StartChar: periodcentered
Encoding: 183 183 121
Width: 1229
Flags: W
LayerCount: 2
Fore
SplineSet
614 862 m 256,0,1
 741 862 741 862 741 723 c 256,2,3
 741 584 741 584 614 584 c 256,4,5
 487 584 487 584 487 723 c 256,6,7
 487 862 487 862 614 862 c 256,0,1
EndSplineSet
EndChar

StartChar: cedilla
Encoding: 184 184 122
Width: 1229
Flags: W
LayerCount: 2
Fore
SplineSet
428 -483 m 1,0,-1
 428 -375 l 1,1,2
 461 -381 461 -381 508 -381 c 0,3,4
 659 -381 659 -381 659 -289 c 0,5,6
 659 -215 659 -215 487 -176 c 1,7,-1
 578 0 l 1,8,-1
 698 0 l 1,9,-1
 641 -115 l 1,10,11
 801 -152 801 -152 801 -287 c 0,12,13
 801 -492 801 -492 510 -492 c 0,14,15
 476 -492 476 -492 428 -483 c 1,0,-1
EndSplineSet
EndChar

StartChar: onesuperior
Encoding: 185 185 123
Width: 1229
Flags: W
LayerCount: 2
Fore
SplineSet
586 1460 m 1,0,-1
 721 1460 l 1,1,-1
 721 672 l 1,2,-1
 575 672 l 1,3,-1
 575 1137 l 2,4,5
 575 1206 575 1206 584 1337 c 1,6,7
 543 1293 543 1293 510 1272 c 2,8,-1
 440 1221 l 1,9,-1
 367 1309 l 1,10,-1
 586 1460 l 1,0,-1
EndSplineSet
EndChar

StartChar: ordmasculine
Encoding: 186 186 124
Width: 1229
Flags: W
LayerCount: 2
Fore
SplineSet
612 784 m 0,0,1
 468 784 468 784 374.5 877 c 128,-1,2
 281 970 281 970 281 1133 c 0,3,4
 281 1295 281 1295 371 1387 c 128,-1,5
 461 1479 461 1479 616 1479 c 0,6,7
 761 1479 761 1479 854.5 1386.5 c 128,-1,8
 948 1294 948 1294 948 1133 c 0,9,10
 948 968 948 968 856 876 c 128,-1,11
 764 784 764 784 612 784 c 0,0,1
614 903 m 0,12,13
 795 903 795 903 795 1133 c 0,14,15
 795 1358 795 1358 614 1358 c 0,16,17
 432 1358 432 1358 432 1133 c 0,18,19
 432 903 432 903 614 903 c 0,12,13
EndSplineSet
EndChar

StartChar: guillemotright
Encoding: 187 187 125
Width: 1229
Flags: W
LayerCount: 2
Fore
SplineSet
1030 526 m 1,0,-1
 721 115 l 1,1,-1
 604 193 l 1,2,-1
 842 541 l 1,3,-1
 604 889 l 1,4,-1
 721 967 l 1,5,-1
 1030 553 l 1,6,-1
 1030 526 l 1,0,-1
623 526 m 1,7,-1
 313 115 l 1,8,-1
 197 193 l 1,9,-1
 434 541 l 1,10,-1
 197 889 l 1,11,-1
 313 967 l 1,12,-1
 623 553 l 1,13,-1
 623 526 l 1,7,-1
EndSplineSet
EndChar

StartChar: questiondown
Encoding: 191 191 129
Width: 1229
Flags: W
LayerCount: 2
Fore
SplineSet
674 840 m 256,0,1
 547 840 547 840 547 979 c 256,2,3
 547 1118 547 1118 674 1118 c 256,4,5
 801 1118 801 1118 801 979 c 256,6,7
 801 840 801 840 674 840 c 256,0,1
762 676 m 1,8,-1
 762 639 l 2,9,10
 762 520 762 520 717.5 445.5 c 128,-1,11
 673 371 673 371 555 287 c 0,12,13
 426 190 426 190 384 132 c 128,-1,14
 342 74 342 74 342 -27 c 0,15,16
 342 -120 342 -120 416.5 -176.5 c 128,-1,17
 491 -233 491 -233 623 -233 c 0,18,19
 804 -233 804 -233 993 -143 c 1,20,-1
 1055 -287 l 1,21,22
 836 -393 836 -393 633 -393 c 0,23,24
 416 -393 416 -393 292 -295.5 c 128,-1,25
 168 -198 168 -198 168 -35 c 0,26,27
 168 99 168 99 221.5 182 c 128,-1,28
 275 265 275 265 418 373 c 0,29,30
 537 460 537 460 569.5 513.5 c 128,-1,31
 602 567 602 567 602 657 c 2,32,-1
 602 676 l 1,33,-1
 762 676 l 1,8,-1
EndSplineSet
EndChar

StartChar: AE
Encoding: 198 198 136
Width: 1229
Flags: W
LayerCount: 2
Fore
SplineSet
1210 0 m 1,0,-1
 557 0 l 1,1,-1
 557 453 l 1,2,-1
 268 453 l 1,3,-1
 172 0 l 1,4,-1
 0 0 l 1,5,-1
 338 1462 l 1,6,-1
 1210 1462 l 1,7,-1
 1210 1298 l 1,8,-1
 733 1298 l 1,9,-1
 733 846 l 1,10,-1
 1171 846 l 1,11,-1
 1171 684 l 1,12,-1
 733 684 l 1,13,-1
 733 164 l 1,14,-1
 1210 164 l 1,15,-1
 1210 0 l 1,0,-1
305 618 m 1,16,-1
 557 618 l 1,17,-1
 557 1298 l 1,18,-1
 451 1298 l 1,19,-1
 305 618 l 1,16,-1
EndSplineSet
EndChar

StartChar: Eth
Encoding: 208 208 146
Width: 1229
Flags: W
LayerCount: 2
Fore
SplineSet
135 0 m 1,0,-1
 135 659 l 1,1,-1
 0 659 l 1,2,-1
 0 821 l 1,3,-1
 135 821 l 1,4,-1
 135 1462 l 1,5,-1
 477 1462 l 2,6,7
 794 1462 794 1462 970.5 1273 c 128,-1,8
 1147 1084 1147 1084 1147 745 c 0,9,10
 1147 384 1147 384 964 192 c 128,-1,11
 781 0 781 0 436 0 c 2,12,-1
 135 0 l 1,0,-1
322 1303 m 1,13,-1
 322 821 l 1,14,-1
 702 821 l 1,15,-1
 702 659 l 1,16,-1
 322 659 l 1,17,-1
 322 160 l 1,18,-1
 418 160 l 2,19,20
 950 160 950 160 950 739 c 0,21,22
 950 1303 950 1303 457 1303 c 2,23,-1
 322 1303 l 1,13,-1
EndSplineSet
EndChar

StartChar: multiply
Encoding: 215 215 153
Width: 1229
Flags: W
LayerCount: 2
Fore
SplineSet
508 723 m 1,0,-1
 190 1042 l 1,1,-1
 295 1147 l 1,2,-1
 612 829 l 1,3,-1
 934 1147 l 1,4,-1
 1038 1044 l 1,5,-1
 717 723 l 1,6,-1
 1036 403 l 1,7,-1
 934 301 l 1,8,-1
 612 618 l 1,9,-1
 295 303 l 1,10,-1
 193 406 l 1,11,-1
 508 723 l 1,0,-1
EndSplineSet
EndChar

StartChar: Oslash
Encoding: 216 216 154
Width: 1229
Flags: W
LayerCount: 2
Fore
SplineSet
309 74 m 1,0,-1
 217 -76 l 1,1,-1
 80 2 l 1,2,-1
 201 199 l 1,3,4
 84 383 84 383 84 735 c 0,5,6
 84 1485 84 1485 618 1485 c 0,7,8
 804 1485 804 1485 928 1380 c 1,9,-1
 1020 1532 l 1,10,-1
 1157 1454 l 1,11,-1
 1032 1253 l 1,12,13
 1147 1065 1147 1065 1147 733 c 0,14,15
 1147 372 1147 372 1009 176 c 128,-1,16
 871 -20 871 -20 616 -20 c 0,17,18
 427 -20 427 -20 309 74 c 1,0,-1
319 391 m 1,19,-1
 834 1227 l 1,20,21
 754 1321 754 1321 618 1321 c 0,22,23
 281 1321 281 1321 281 733 c 0,24,25
 281 521 281 521 319 391 c 1,19,-1
915 1061 m 1,26,-1
 403 229 l 1,27,28
 483 143 483 143 616 143 c 0,29,30
 789 143 789 143 869.5 288 c 128,-1,31
 950 433 950 433 950 733 c 0,32,33
 950 942 950 942 915 1061 c 1,26,-1
EndSplineSet
EndChar

StartChar: Thorn
Encoding: 222 222 160
Width: 1229
Flags: W
LayerCount: 2
Fore
SplineSet
362 317 m 1,0,-1
 362 0 l 1,1,-1
 176 0 l 1,2,-1
 176 1462 l 1,3,-1
 362 1462 l 1,4,-1
 362 1210 l 1,5,-1
 580 1210 l 2,6,7
 1094 1210 1094 1210 1094 782 c 0,8,9
 1094 563 1094 563 955.5 440 c 128,-1,10
 817 317 817 317 553 317 c 2,11,-1
 362 317 l 1,0,-1
362 475 m 1,12,-1
 532 475 l 2,13,14
 730 475 730 475 815.5 547 c 128,-1,15
 901 619 901 619 901 772 c 0,16,17
 901 1051 901 1051 563 1051 c 2,18,-1
 362 1051 l 1,19,-1
 362 475 l 1,12,-1
EndSplineSet
EndChar

StartChar: germandbls
Encoding: 223 223 161
Width: 1229
Flags: W
LayerCount: 2
Fore
SplineSet
479 49 m 1,0,-1
 479 215 l 1,1,2
 622 129 622 129 756 129 c 0,3,4
 969 129 969 129 969 303 c 0,5,6
 969 384 969 384 923.5 435 c 128,-1,7
 878 486 878 486 780 547 c 0,8,9
 657 625 657 625 607 686 c 128,-1,10
 557 747 557 747 557 834 c 0,11,12
 557 951 557 951 686 1057 c 256,13,14
 815 1163 815 1163 815 1253 c 0,15,16
 815 1417 815 1417 588 1417 c 0,17,18
 346 1417 346 1417 346 1202 c 2,19,-1
 346 0 l 1,20,-1
 164 0 l 1,21,-1
 164 1200 l 2,22,23
 164 1567 164 1567 588 1567 c 0,24,25
 782 1567 782 1567 890.5 1487.5 c 128,-1,26
 999 1408 999 1408 999 1260 c 0,27,28
 999 1128 999 1128 866 1011 c 0,29,30
 782 937 782 937 757.5 906 c 128,-1,31
 733 875 733 875 733 842 c 0,32,33
 733 803 733 803 762 773 c 128,-1,34
 791 743 791 743 913 662 c 0,35,36
 1057 567 1057 567 1104 489 c 128,-1,37
 1151 411 1151 411 1151 313 c 0,38,39
 1151 151 1151 151 1051 65.5 c 128,-1,40
 951 -20 951 -20 768 -20 c 0,41,42
 586 -20 586 -20 479 49 c 1,0,-1
EndSplineSet
EndChar

StartChar: ae
Encoding: 230 230 168
Width: 1229
Flags: W
LayerCount: 2
Fore
SplineSet
522 662 m 1,0,-1
 522 731 l 2,1,2
 522 967 522 967 383 967 c 0,3,4
 276 967 276 967 172 885 c 1,5,-1
 115 1022 l 1,6,7
 246 1118 246 1118 391 1118 c 0,8,9
 579 1118 579 1118 637 940 c 1,10,11
 715 1118 715 1118 877 1118 c 0,12,13
 1014 1118 1014 1118 1100 982.5 c 128,-1,14
 1186 847 1186 847 1186 627 c 2,15,-1
 1186 514 l 1,16,-1
 690 514 l 1,17,18
 693 322 693 322 757 230.5 c 128,-1,19
 821 139 821 139 926 139 c 0,20,21
 1037 139 1037 139 1159 215 c 1,22,-1
 1159 53 l 1,23,24
 1052 -20 1052 -20 918 -20 c 0,25,26
 696 -20 696 -20 602 209 c 1,27,28
 497 -20 497 -20 301 -20 c 0,29,30
 186 -20 186 -20 115.5 66.5 c 128,-1,31
 45 153 45 153 45 307 c 0,32,33
 45 639 45 639 373 655 c 2,34,-1
 522 662 l 1,0,-1
694 662 m 1,35,-1
 1010 662 l 1,36,37
 1010 803 1010 803 969.5 885 c 128,-1,38
 929 967 929 967 858 967 c 0,39,40
 790 967 790 967 745 889 c 128,-1,41
 700 811 700 811 694 662 c 1,35,-1
520 537 m 1,42,-1
 432 530 l 2,43,44
 215 513 215 513 215 305 c 0,45,46
 215 222 215 222 247 174.5 c 128,-1,47
 279 127 279 127 334 127 c 0,48,49
 416 127 416 127 468 209.5 c 128,-1,50
 520 292 520 292 520 438 c 2,51,-1
 520 537 l 1,42,-1
EndSplineSet
EndChar

StartChar: eth
Encoding: 240 240 178
Width: 1229
Flags: W
LayerCount: 2
Fore
SplineSet
889 852 m 1,0,-1
 897 856 l 1,1,2
 839 1082 839 1082 655 1247 c 1,3,-1
 399 1094 l 1,4,-1
 326 1208 l 1,5,-1
 543 1339 l 1,6,7
 439 1410 439 1410 371 1448 c 1,8,-1
 440 1571 l 1,9,10
 583 1501 583 1501 686 1423 c 1,11,-1
 913 1561 l 1,12,-1
 987 1448 l 1,13,-1
 793 1331 l 1,14,15
 1094 1040 1094 1040 1094 573 c 0,16,17
 1094 296 1094 296 965.5 138 c 128,-1,18
 837 -20 837 -20 612 -20 c 0,19,20
 399 -20 399 -20 267 113.5 c 128,-1,21
 135 247 135 247 135 477 c 0,22,23
 135 711 135 711 255.5 841 c 128,-1,24
 376 971 376 971 590 971 c 0,25,26
 801 971 801 971 889 852 c 1,0,-1
614 823 m 0,27,28
 328 823 328 823 328 471 c 0,29,30
 328 131 328 131 616 131 c 0,31,32
 770 131 770 131 837.5 230.5 c 128,-1,33
 905 330 905 330 905 526 c 0,34,35
 905 655 905 655 827.5 739 c 128,-1,36
 750 823 750 823 614 823 c 0,27,28
EndSplineSet
EndChar

StartChar: divide
Encoding: 247 247 185
Width: 1229
Flags: W
LayerCount: 2
Fore
SplineSet
612 1196 m 0,0,1
 727 1196 727 1196 727 1071 c 256,2,3
 727 946 727 946 612 946 c 0,4,5
 498 946 498 946 498 1071 c 256,6,7
 498 1196 498 1196 612 1196 c 0,0,1
152 647 m 1,8,-1
 152 797 l 1,9,-1
 1075 797 l 1,10,-1
 1075 647 l 1,11,-1
 152 647 l 1,8,-1
612 498 m 0,12,13
 727 498 727 498 727 373 c 256,14,15
 727 248 727 248 612 248 c 0,16,17
 498 248 498 248 498 373 c 256,18,19
 498 498 498 498 612 498 c 0,12,13
EndSplineSet
EndChar

StartChar: oslash
Encoding: 248 248 186
Width: 1229
Flags: W
LayerCount: 2
Fore
SplineSet
377 33 m 1,0,-1
 301 -86 l 1,1,-1
 170 -2 l 1,2,-1
 254 129 l 1,3,4
 115 287 115 287 115 551 c 0,5,6
 115 817 115 817 248 967.5 c 128,-1,7
 381 1118 381 1118 616 1118 c 0,8,9
 744 1118 744 1118 852 1061 c 1,10,-1
 928 1180 l 1,11,-1
 1059 1096 l 1,12,-1
 975 965 l 1,13,14
 1112 809 1112 809 1112 551 c 0,15,16
 1112 280 1112 280 977.5 130 c 128,-1,17
 843 -20 843 -20 610 -20 c 0,18,19
 481 -20 481 -20 377 33 c 1,0,-1
356 276 m 1,20,-1
 762 932 l 1,21,22
 696 967 696 967 606 967 c 0,23,24
 445 967 445 967 374 863.5 c 128,-1,25
 303 760 303 760 303 551 c 0,26,27
 303 371 303 371 356 276 c 1,20,-1
872 817 m 1,28,-1
 467 164 l 1,29,30
 528 131 528 131 621 131 c 0,31,32
 782 131 782 131 853 236.5 c 128,-1,33
 924 342 924 342 924 551 c 0,34,35
 924 715 924 715 872 817 c 1,28,-1
EndSplineSet
EndChar

StartChar: thorn
Encoding: 254 254 192
Width: 1229
Flags: W
LayerCount: 2
Fore
SplineSet
340 950 m 1,0,1
 450 1118 450 1118 662 1118 c 0,2,3
 863 1118 863 1118 977.5 968.5 c 128,-1,4
 1092 819 1092 819 1092 551 c 0,5,6
 1092 281 1092 281 977 130.5 c 128,-1,7
 862 -20 862 -20 662 -20 c 0,8,9
 455 -20 455 -20 340 139 c 1,10,-1
 328 139 l 1,11,12
 340 10 340 10 340 -23 c 2,13,-1
 340 -492 l 1,14,-1
 158 -492 l 1,15,-1
 158 1556 l 1,16,-1
 340 1556 l 1,17,-1
 340 1098 l 1,18,-1
 332 950 l 1,19,-1
 340 950 l 1,0,1
340 592 m 1,20,-1
 340 551 l 2,21,22
 340 324 340 324 409.5 227.5 c 128,-1,23
 479 131 479 131 631 131 c 0,24,25
 903 131 903 131 903 553 c 0,26,27
 903 967 903 967 629 967 c 0,28,29
 477 967 477 967 410.5 879 c 128,-1,30
 344 791 344 791 340 592 c 1,20,-1
EndSplineSet
EndChar

StartChar: dcroat
Encoding: 273 273 211
Width: 1229
Flags: W
LayerCount: 2
Fore
SplineSet
897 147 m 1,0,-1
 889 147 l 1,1,2
 776 -20 776 -20 567 -20 c 0,3,4
 366 -20 366 -20 251.5 124 c 128,-1,5
 137 268 137 268 137 526 c 0,6,7
 137 786 137 786 252 931.5 c 128,-1,8
 367 1077 367 1077 567 1077 c 0,9,10
 775 1077 775 1077 889 918 c 1,11,-1
 901 918 l 1,12,13
 889 1044 889 1044 889 1079 c 2,14,-1
 889 1237 l 1,15,-1
 510 1237 l 1,16,-1
 510 1374 l 1,17,-1
 889 1374 l 1,18,-1
 889 1556 l 1,19,-1
 1071 1556 l 1,20,-1
 1071 1374 l 1,21,-1
 1227 1374 l 1,22,-1
 1227 1237 l 1,23,-1
 1071 1237 l 1,24,-1
 1071 0 l 1,25,-1
 924 0 l 1,26,-1
 897 147 l 1,0,-1
889 487 m 1,27,-1
 889 526 l 2,28,29
 889 742 889 742 819.5 834 c 128,-1,30
 750 926 750 926 598 926 c 0,31,32
 326 926 326 926 326 524 c 0,33,34
 326 131 326 131 600 131 c 0,35,36
 751 131 751 131 818 214 c 128,-1,37
 885 297 885 297 889 487 c 1,27,-1
EndSplineSet
EndChar

StartChar: Hbar
Encoding: 294 294 232
Width: 1229
Flags: W
LayerCount: 2
Fore
SplineSet
135 1219 m 1,0,-1
 135 1462 l 1,1,-1
 322 1462 l 1,2,-1
 322 1219 l 1,3,-1
 907 1219 l 1,4,-1
 907 1462 l 1,5,-1
 1094 1462 l 1,6,-1
 1094 1219 l 1,7,-1
 1229 1219 l 1,8,-1
 1229 1069 l 1,9,-1
 1094 1069 l 1,10,-1
 1094 0 l 1,11,-1
 907 0 l 1,12,-1
 907 682 l 1,13,-1
 322 682 l 1,14,-1
 322 0 l 1,15,-1
 135 0 l 1,16,-1
 135 1069 l 1,17,-1
 0 1069 l 1,18,-1
 0 1219 l 1,19,-1
 135 1219 l 1,0,-1
907 846 m 1,20,-1
 907 1069 l 1,21,-1
 322 1069 l 1,22,-1
 322 846 l 1,23,-1
 907 846 l 1,20,-1
EndSplineSet
EndChar

StartChar: hbar
Encoding: 295 295 233
Width: 1229
Flags: W
LayerCount: 2
Fore
SplineSet
887 0 m 1,0,-1
 887 666 l 2,1,2
 887 926 887 926 651 926 c 0,3,4
 489 926 489 926 415.5 832.5 c 128,-1,5
 342 739 342 739 342 528 c 2,6,-1
 342 0 l 1,7,-1
 160 0 l 1,8,-1
 160 1237 l 1,9,-1
 4 1237 l 1,10,-1
 4 1374 l 1,11,-1
 160 1374 l 1,12,-1
 160 1556 l 1,13,-1
 344 1556 l 1,14,-1
 344 1374 l 1,15,-1
 762 1374 l 1,16,-1
 762 1237 l 1,17,-1
 342 1237 l 1,18,-1
 342 1053 l 1,19,-1
 332 909 l 1,20,-1
 342 909 l 1,21,22
 450 1077 450 1077 688 1077 c 0,23,24
 880 1077 880 1077 974.5 981.5 c 128,-1,25
 1069 886 1069 886 1069 676 c 2,26,-1
 1069 0 l 1,27,-1
 887 0 l 1,0,-1
EndSplineSet
EndChar

StartChar: dotlessi
Encoding: 305 305 243
Width: 1229
Flags: W
LayerCount: 2
Fore
SplineSet
541 954 m 1,0,-1
 272 975 l 1,1,-1
 272 1098 l 1,2,-1
 723 1098 l 1,3,-1
 723 143 l 1,4,-1
 1075 123 l 1,5,-1
 1075 0 l 1,6,-1
 197 0 l 1,7,-1
 197 123 l 1,8,-1
 541 143 l 1,9,-1
 541 954 l 1,0,-1
EndSplineSet
EndChar

StartChar: IJ
Encoding: 306 306 244
Width: 1229
Flags: W
LayerCount: 2
Fore
SplineSet
156 0 m 1,0,-1
 156 1462 l 1,1,-1
 342 1462 l 1,2,-1
 342 0 l 1,3,-1
 156 0 l 1,0,-1
492 23 m 1,4,-1
 492 186 l 1,5,6
 585 141 585 141 678 141 c 0,7,8
 872 141 872 141 872 424 c 2,9,-1
 872 1462 l 1,10,-1
 1059 1462 l 1,11,-1
 1059 436 l 2,12,13
 1059 -20 1059 -20 694 -20 c 0,14,15
 561 -20 561 -20 492 23 c 1,4,-1
EndSplineSet
EndChar

StartChar: ij
Encoding: 307 307 245
Width: 1229
Flags: W
LayerCount: 2
Fore
SplineSet
295 1550 m 0,0,1
 401 1550 401 1550 401 1436 c 0,2,3
 401 1378 401 1378 369.5 1349.5 c 128,-1,4
 338 1321 338 1321 295 1321 c 0,5,6
 188 1321 188 1321 188 1436 c 0,7,8
 188 1550 188 1550 295 1550 c 0,0,1
928 1550 m 0,9,10
 1034 1550 1034 1550 1034 1436 c 0,11,12
 1034 1378 1034 1378 1002.5 1349.5 c 128,-1,13
 971 1321 971 1321 928 1321 c 0,14,15
 821 1321 821 1321 821 1436 c 0,16,17
 821 1550 821 1550 928 1550 c 0,9,10
203 1098 m 1,18,-1
 385 1098 l 1,19,-1
 385 0 l 1,20,-1
 203 0 l 1,21,-1
 203 1098 l 1,18,-1
502 -457 m 1,22,-1
 502 -303 l 1,23,24
 590 -342 590 -342 692 -342 c 0,25,26
 856 -342 856 -342 856 -127 c 2,27,-1
 856 954 l 1,28,-1
 641 975 l 1,29,-1
 641 1098 l 1,30,-1
 1038 1098 l 1,31,-1
 1038 -117 l 2,32,33
 1038 -299 1038 -299 953 -395.5 c 128,-1,34
 868 -492 868 -492 717 -492 c 0,35,36
 594 -492 594 -492 502 -457 c 1,22,-1
EndSplineSet
EndChar

StartChar: kgreenlandic
Encoding: 312 312 250
Width: 1229
Flags: W
LayerCount: 2
Fore
SplineSet
383 508 m 1,0,-1
 520 674 l 1,1,-1
 922 1098 l 1,2,-1
 1135 1098 l 1,3,-1
 641 588 l 1,4,-1
 1163 0 l 1,5,-1
 950 0 l 1,6,-1
 524 469 l 1,7,-1
 395 387 l 1,8,-1
 395 0 l 1,9,-1
 215 0 l 1,10,-1
 215 1098 l 1,11,-1
 395 1098 l 1,12,-1
 395 807 l 1,13,-1
 379 508 l 1,14,-1
 383 508 l 1,0,-1
EndSplineSet
EndChar

StartChar: Lslash
Encoding: 321 321 259
Width: 1229
Flags: W
LayerCount: 2
Fore
SplineSet
270 0 m 1,0,-1
 270 492 l 1,1,-1
 145 414 l 1,2,-1
 72 539 l 1,3,-1
 270 664 l 1,4,-1
 270 1462 l 1,5,-1
 457 1462 l 1,6,-1
 457 782 l 1,7,-1
 756 971 l 1,8,-1
 834 846 l 1,9,-1
 457 608 l 1,10,-1
 457 166 l 1,11,-1
 1092 166 l 1,12,-1
 1092 0 l 1,13,-1
 270 0 l 1,0,-1
EndSplineSet
EndChar

StartChar: lslash
Encoding: 322 322 260
Width: 1229
Flags: W
LayerCount: 2
Fore
SplineSet
532 592 m 1,0,-1
 391 500 l 1,1,-1
 313 621 l 1,2,-1
 532 764 l 1,3,-1
 532 1413 l 1,4,-1
 264 1434 l 1,5,-1
 264 1556 l 1,6,-1
 715 1556 l 1,7,-1
 715 883 l 1,8,-1
 879 991 l 1,9,-1
 956 870 l 1,10,-1
 715 711 l 1,11,-1
 715 143 l 1,12,-1
 1067 123 l 1,13,-1
 1067 0 l 1,14,-1
 188 0 l 1,15,-1
 188 123 l 1,16,-1
 532 143 l 1,17,-1
 532 592 l 1,0,-1
EndSplineSet
EndChar

StartChar: napostrophe
Encoding: 329 329 267
Width: 1229
Flags: W
LayerCount: 2
Fore
SplineSet
283 1462 m 1,0,-1
 297 1440 l 1,1,2
 247 1243 247 1243 121 961 c 1,3,-1
 -16 961 l 1,4,5
 44 1203 44 1203 84 1462 c 1,6,-1
 283 1462 l 1,0,-1
948 0 m 1,7,-1
 948 707 l 2,8,9
 948 967 948 967 729 967 c 0,10,11
 444 967 444 967 444 569 c 2,12,-1
 444 0 l 1,13,-1
 262 0 l 1,14,-1
 262 1098 l 1,15,-1
 410 1098 l 1,16,-1
 436 950 l 1,17,-1
 446 950 l 1,18,19
 488 1028 488 1028 574.5 1073 c 128,-1,20
 661 1118 661 1118 764 1118 c 0,21,22
 1130 1118 1130 1118 1130 717 c 2,23,-1
 1130 0 l 1,24,-1
 948 0 l 1,7,-1
EndSplineSet
EndChar

StartChar: Eng
Encoding: 330 330 268
Width: 1229
Flags: W
LayerCount: 2
Fore
SplineSet
297 1210 m 1,0,-1
 289 1210 l 1,1,2
 307 933 307 933 307 793 c 2,3,-1
 307 0 l 1,4,-1
 135 0 l 1,5,-1
 135 1462 l 1,6,-1
 348 1462 l 1,7,-1
 926 334 l 1,8,-1
 936 334 l 1,9,10
 918 608 918 608 918 737 c 2,11,-1
 918 1462 l 1,12,-1
 1092 1462 l 1,13,-1
 1092 20 l 2,14,15
 1092 -178 1092 -178 992 -283.5 c 128,-1,16
 892 -389 892 -389 705 -389 c 0,17,18
 611 -389 611 -389 549 -365 c 1,19,-1
 549 -205 l 1,20,21
 626 -225 626 -225 707 -225 c 0,22,23
 918 -225 918 -225 918 0 c 1,24,-1
 297 1210 l 1,0,-1
EndSplineSet
EndChar

StartChar: eng
Encoding: 331 331 269
Width: 1229
Flags: W
LayerCount: 2
Fore
SplineSet
342 0 m 1,0,-1
 160 0 l 1,1,-1
 160 1098 l 1,2,-1
 307 1098 l 1,3,-1
 334 950 l 1,4,-1
 344 950 l 1,5,6
 447 1118 447 1118 680 1118 c 0,7,8
 1069 1118 1069 1118 1069 717 c 2,9,-1
 1069 -158 l 2,10,11
 1069 -492 1069 -492 778 -492 c 0,12,13
 697 -492 697 -492 645 -467 c 1,14,-1
 645 -319 l 1,15,16
 699 -340 699 -340 760 -340 c 0,17,18
 887 -340 887 -340 887 -170 c 2,19,-1
 887 707 l 2,20,21
 887 967 887 967 649 967 c 0,22,23
 342 967 342 967 342 569 c 2,24,-1
 342 0 l 1,0,-1
EndSplineSet
EndChar

StartChar: OE
Encoding: 338 338 276
Width: 1229
Flags: W
LayerCount: 2
Fore
SplineSet
1227 0 m 1,0,-1
 653 0 l 1,1,-1
 605 -10 l 2,2,3
 554 -20 554 -20 508 -20 c 0,4,5
 20 -20 20 -20 20 735 c 0,6,7
 20 1485 20 1485 532 1485 c 0,8,9
 614 1485 614 1485 686 1462 c 1,10,-1
 1227 1462 l 1,11,-1
 1227 1298 l 1,12,-1
 829 1298 l 1,13,-1
 829 846 l 1,14,-1
 1188 846 l 1,15,-1
 1188 684 l 1,16,-1
 829 684 l 1,17,-1
 829 164 l 1,18,-1
 1227 164 l 1,19,-1
 1227 0 l 1,0,-1
651 176 m 1,20,-1
 651 1288 l 1,21,22
 593 1321 593 1321 520 1321 c 0,23,24
 209 1321 209 1321 209 733 c 0,25,26
 209 143 209 143 518 143 c 0,27,28
 588 143 588 143 651 176 c 1,20,-1
EndSplineSet
EndChar

StartChar: oe
Encoding: 339 339 277
Width: 1229
Flags: W
LayerCount: 2
Fore
SplineSet
651 201 m 1,0,1
 563 -20 563 -20 385 -20 c 0,2,3
 239 -20 239 -20 148 133.5 c 128,-1,4
 57 287 57 287 57 551 c 0,5,6
 57 819 57 819 145 968.5 c 128,-1,7
 233 1118 233 1118 387 1118 c 0,8,9
 558 1118 558 1118 647 901 c 1,10,11
 731 1118 731 1118 889 1118 c 0,12,13
 1020 1118 1020 1118 1097 984.5 c 128,-1,14
 1174 851 1174 851 1174 627 c 2,15,-1
 1174 514 l 1,16,-1
 735 514 l 1,17,18
 738 139 738 139 924 139 c 0,19,20
 1032 139 1032 139 1128 215 c 1,21,-1
 1128 53 l 1,22,23
 1034 -20 1034 -20 911 -20 c 0,24,25
 824 -20 824 -20 752.5 39 c 128,-1,26
 681 98 681 98 651 201 c 1,0,1
397 131 m 0,27,28
 565 131 565 131 565 541 c 0,29,30
 565 967 565 967 395 967 c 0,31,32
 305 967 305 967 266 864 c 128,-1,33
 227 761 227 761 227 551 c 0,34,35
 227 340 227 340 266.5 235.5 c 128,-1,36
 306 131 306 131 397 131 c 0,27,28
997 662 m 1,37,38
 997 967 997 967 874 967 c 0,39,40
 749 967 749 967 737 662 c 1,41,-1
 997 662 l 1,37,38
EndSplineSet
EndChar

StartChar: Tbar
Encoding: 358 358 296
Width: 1229
Flags: W
LayerCount: 2
Fore
SplineSet
520 819 m 1,0,-1
 520 1298 l 1,1,-1
 102 1298 l 1,2,-1
 102 1462 l 1,3,-1
 1124 1462 l 1,4,-1
 1124 1298 l 1,5,-1
 707 1298 l 1,6,-1
 707 819 l 1,7,-1
 1001 819 l 1,8,-1
 1001 670 l 1,9,-1
 707 670 l 1,10,-1
 707 0 l 1,11,-1
 520 0 l 1,12,-1
 520 670 l 1,13,-1
 223 670 l 1,14,-1
 223 819 l 1,15,-1
 520 819 l 1,0,-1
EndSplineSet
EndChar

StartChar: tbar
Encoding: 359 359 297
Width: 1229
Flags: W
LayerCount: 2
Fore
SplineSet
1020 150 m 1,0,-1
 1020 12 l 1,1,2
 890 -20 890 -20 768 -20 c 0,3,4
 406 -20 406 -20 406 324 c 2,5,-1
 406 575 l 1,6,-1
 244 575 l 1,7,-1
 244 713 l 1,8,-1
 406 713 l 1,9,-1
 406 961 l 1,10,-1
 139 961 l 1,11,-1
 139 1055 l 1,12,-1
 406 1104 l 1,13,-1
 483 1391 l 1,14,-1
 588 1391 l 1,15,-1
 588 1098 l 1,16,-1
 1026 1098 l 1,17,-1
 1026 961 l 1,18,-1
 588 961 l 1,19,-1
 588 713 l 1,20,-1
 895 713 l 1,21,-1
 895 575 l 1,22,-1
 588 575 l 1,23,-1
 588 324 l 2,24,25
 588 129 588 129 780 129 c 0,26,27
 873 129 873 129 1020 150 c 1,0,-1
EndSplineSet
EndChar

StartChar: longs
Encoding: 383 383 321
Width: 1229
Flags: W
LayerCount: 2
Fore
SplineSet
1018 1532 m 1,0,-1
 977 1389 l 1,1,2
 872 1417 872 1417 750 1417 c 0,3,4
 631 1417 631 1417 585 1369 c 128,-1,5
 539 1321 539 1321 539 1202 c 2,6,-1
 539 0 l 1,7,-1
 356 0 l 1,8,-1
 356 1200 l 2,9,10
 356 1390 356 1390 446 1478.5 c 128,-1,11
 536 1567 536 1567 745 1567 c 0,12,13
 870 1567 870 1567 1018 1532 c 1,0,-1
EndSplineSet
EndChar

StartChar: florin
Encoding: 402 402 322
Width: 1229
Flags: W
LayerCount: 2
Fore
SplineSet
668 836 m 1,0,-1
 668 -125 l 2,1,2
 668 -315 668 -315 591.5 -403.5 c 128,-1,3
 515 -492 515 -492 336 -492 c 0,4,5
 285 -492 285 -492 215 -477 c 1,6,-1
 215 -324 l 1,7,8
 274 -342 274 -342 330 -342 c 0,9,10
 422 -342 422 -342 453.5 -291 c 128,-1,11
 485 -240 485 -240 485 -127 c 2,12,-1
 485 836 l 1,13,-1
 291 836 l 1,14,-1
 291 911 l 1,15,-1
 485 979 l 1,16,-1
 485 1116 l 2,17,18
 485 1306 485 1306 561.5 1394.5 c 128,-1,19
 638 1483 638 1483 817 1483 c 0,20,21
 914 1483 914 1483 1014 1446 c 1,22,-1
 967 1305 l 1,23,24
 888 1333 888 1333 823 1333 c 0,25,26
 731 1333 731 1333 699.5 1282 c 128,-1,27
 668 1231 668 1231 668 1118 c 2,28,-1
 668 973 l 1,29,-1
 913 973 l 1,30,-1
 913 836 l 1,31,-1
 668 836 l 1,0,-1
EndSplineSet
EndChar

StartChar: circumflex
Encoding: 710 710 331
Width: 1229
Flags: W
LayerCount: 2
Fore
SplineSet
946 1241 m 1,0,-1
 825 1241 l 1,1,2
 740 1297 740 1297 614 1427 c 1,3,4
 481 1291 481 1291 403 1241 c 1,5,-1
 283 1241 l 1,6,-1
 283 1268 l 1,7,8
 308 1297 308 1297 342 1335 c 0,9,10
 481 1490 481 1490 518 1569 c 1,11,-1
 711 1569 l 1,12,13
 748 1490 748 1490 887 1335 c 2,14,-1
 946 1268 l 1,15,-1
 946 1241 l 1,0,-1
EndSplineSet
EndChar

StartChar: caron
Encoding: 711 711 332
Width: 1229
Flags: W
LayerCount: 2
Fore
SplineSet
946 1542 m 1,0,1
 921 1513 921 1513 887 1475 c 0,2,3
 746 1317 746 1317 711 1241 c 1,4,-1
 518 1241 l 1,5,6
 483 1317 483 1317 342 1475 c 2,7,-1
 283 1542 l 1,8,-1
 283 1569 l 1,9,-1
 403 1569 l 1,10,11
 485 1515 485 1515 614 1382 c 1,12,13
 736 1510 736 1510 825 1569 c 1,14,-1
 946 1569 l 1,15,-1
 946 1542 l 1,0,1
EndSplineSet
EndChar

StartChar: macron
Encoding: 713 713 333
Width: 1229
Flags: W
LayerCount: 2
Fore
SplineSet
326 1391 m 1,0,-1
 901 1391 l 1,1,-1
 901 1241 l 1,2,-1
 326 1241 l 1,3,-1
 326 1391 l 1,0,-1
EndSplineSet
EndChar

StartChar: breve
Encoding: 728 728 334
Width: 1229
Flags: W
LayerCount: 2
Fore
SplineSet
915 1518 m 1,0,1
 906 1391 906 1391 826 1316 c 128,-1,2
 746 1241 746 1241 610 1241 c 0,3,4
 330 1241 330 1241 313 1518 c 1,5,-1
 422 1518 l 1,6,7
 429 1442 429 1442 468.5 1417.5 c 128,-1,8
 508 1393 508 1393 612 1393 c 0,9,10
 793 1393 793 1393 803 1518 c 1,11,-1
 915 1518 l 1,0,1
EndSplineSet
EndChar

StartChar: dotaccent
Encoding: 729 729 335
Width: 1229
Flags: W
LayerCount: 2
Fore
SplineSet
614 1509 m 0,0,1
 721 1509 721 1509 721 1395 c 0,2,3
 721 1280 721 1280 614 1280 c 0,4,5
 508 1280 508 1280 508 1395 c 0,6,7
 508 1509 508 1509 614 1509 c 0,0,1
EndSplineSet
EndChar

StartChar: ring
Encoding: 730 730 336
Width: 1229
Flags: W
LayerCount: 2
Fore
SplineSet
610 1241 m 0,0,1
 508 1241 508 1241 447.5 1299 c 128,-1,2
 387 1357 387 1357 387 1456 c 256,3,4
 387 1555 387 1555 447.5 1613 c 128,-1,5
 508 1671 508 1671 610 1671 c 0,6,7
 711 1671 711 1671 775.5 1612 c 128,-1,8
 840 1553 840 1553 840 1458 c 0,9,10
 840 1360 840 1360 776.5 1300.5 c 128,-1,11
 713 1241 713 1241 610 1241 c 0,0,1
610 1569 m 0,12,13
 561 1569 561 1569 529.5 1539 c 128,-1,14
 498 1509 498 1509 498 1456 c 0,15,16
 498 1343 498 1343 610 1343 c 0,17,18
 660 1343 660 1343 691.5 1373 c 128,-1,19
 723 1403 723 1403 723 1456 c 256,20,21
 723 1509 723 1509 691.5 1539 c 128,-1,22
 660 1569 660 1569 610 1569 c 0,12,13
EndSplineSet
EndChar

StartChar: ogonek
Encoding: 731 731 337
Width: 1229
Flags: W
LayerCount: 2
Fore
SplineSet
815 -319 m 1,0,-1
 815 -432 l 1,1,2
 742 -455 742 -455 659 -455 c 0,3,4
 540 -455 540 -455 477 -400.5 c 128,-1,5
 414 -346 414 -346 414 -252 c 0,6,7
 414 -108 414 -108 604 0 c 1,8,-1
 735 0 l 1,9,10
 565 -125 565 -125 565 -238 c 0,11,12
 565 -334 565 -334 692 -334 c 0,13,14
 758 -334 758 -334 815 -319 c 1,0,-1
EndSplineSet
EndChar

StartChar: tilde
Encoding: 732 732 338
Width: 1229
Flags: W
LayerCount: 2
Fore
SplineSet
358 1241 m 1,0,-1
 254 1241 l 1,1,2
 279 1505 279 1505 465 1505 c 0,3,4
 523 1505 523 1505 626 1449 c 0,5,6
 728 1393 728 1393 762 1393 c 0,7,8
 842 1393 842 1393 868 1507 c 1,9,-1
 973 1507 l 1,10,11
 946 1243 946 1243 762 1243 c 0,12,13
 705 1243 705 1243 605 1300 c 0,14,15
 505 1356 505 1356 465 1356 c 0,16,17
 383 1356 383 1356 358 1241 c 1,0,-1
EndSplineSet
EndChar

StartChar: hungarumlaut
Encoding: 733 733 339
Width: 1229
Flags: W
LayerCount: 2
Fore
SplineSet
246 1268 m 1,0,1
 340 1401 340 1401 420 1569 c 1,2,-1
 618 1569 l 1,3,-1
 618 1548 l 1,4,5
 506 1375 506 1375 346 1241 c 1,6,-1
 246 1241 l 1,7,-1
 246 1268 l 1,0,1
608 1268 m 1,8,9
 695 1386 695 1386 782 1569 c 1,10,-1
 981 1569 l 1,11,-1
 981 1548 l 1,12,13
 869 1375 869 1375 709 1241 c 1,14,-1
 608 1241 l 1,15,-1
 608 1268 l 1,8,9
EndSplineSet
EndChar

StartChar: tonos
Encoding: 900 900 340
Width: 1229
Flags: W
LayerCount: 2
Fore
SplineSet
479 1268 m 1,0,-1
 509 1375 l 2,1,2
 539 1489 539 1489 549 1569 c 1,3,-1
 748 1569 l 1,4,-1
 748 1548 l 2,5,6
 748 1532 748 1532 698.5 1428 c 128,-1,7
 649 1324 649 1324 588 1241 c 1,8,-1
 479 1241 l 1,9,-1
 479 1268 l 1,0,-1
EndSplineSet
EndChar

StartChar: dieresistonos
Encoding: 901 901 341
Width: 1229
Flags: W
LayerCount: 2
Fore
SplineSet
532 1415 m 1,0,1
 582 1554 582 1554 623 1716 c 1,2,-1
 829 1716 l 1,3,-1
 829 1696 l 1,4,5
 736 1532 736 1532 614 1389 c 1,6,-1
 532 1389 l 1,7,-1
 532 1415 l 1,0,1
395 1497 m 0,8,9
 492 1497 492 1497 492 1395 c 0,10,11
 492 1346 492 1346 464 1319 c 128,-1,12
 436 1292 436 1292 395 1292 c 0,13,14
 299 1292 299 1292 299 1395 c 0,15,16
 299 1497 299 1497 395 1497 c 0,8,9
831 1497 m 0,17,18
 928 1497 928 1497 928 1395 c 0,19,20
 928 1292 928 1292 831 1292 c 0,21,22
 735 1292 735 1292 735 1395 c 0,23,24
 735 1497 735 1497 831 1497 c 0,17,18
EndSplineSet
EndChar

StartChar: anoteleia
Encoding: 903 903 343
Width: 1229
Flags: W
LayerCount: 2
Fore
SplineSet
614 862 m 256,0,1
 741 862 741 862 741 723 c 256,2,3
 741 584 741 584 614 584 c 256,4,5
 487 584 487 584 487 723 c 256,6,7
 487 862 487 862 614 862 c 256,0,1
EndSplineSet
EndChar

StartChar: Gamma
Encoding: 915 915 353
Width: 1229
Flags: W
LayerCount: 2
Fore
SplineSet
1071 1462 m 1,0,-1
 1071 1296 l 1,1,-1
 432 1296 l 1,2,-1
 432 0 l 1,3,-1
 246 0 l 1,4,-1
 246 1462 l 1,5,-1
 1071 1462 l 1,0,-1
EndSplineSet
EndChar

StartChar: uni0394
Encoding: 916 916 354
Width: 1229
Flags: W
LayerCount: 2
Fore
SplineSet
1159 125 m 1,0,-1
 1159 0 l 1,1,-1
 68 0 l 1,2,-1
 68 133 l 1,3,-1
 518 1462 l 1,4,-1
 705 1462 l 1,5,-1
 1159 125 l 1,0,-1
610 1257 m 1,6,7
 559 1034 559 1034 522 924 c 2,8,-1
 268 166 l 1,9,-1
 954 166 l 1,10,-1
 702 918 l 2,11,12
 650 1073 650 1073 610 1257 c 1,6,7
EndSplineSet
EndChar

StartChar: Theta
Encoding: 920 920 358
Width: 1229
Flags: W
LayerCount: 2
Fore
SplineSet
616 -20 m 0,0,1
 84 -20 84 -20 84 735 c 0,2,3
 84 1485 84 1485 618 1485 c 0,4,5
 874 1485 874 1485 1010.5 1289.5 c 128,-1,6
 1147 1094 1147 1094 1147 733 c 256,7,8
 1147 372 1147 372 1009 176 c 128,-1,9
 871 -20 871 -20 616 -20 c 0,0,1
616 143 m 0,10,11
 789 143 789 143 869.5 288 c 128,-1,12
 950 433 950 433 950 733 c 0,13,14
 950 1036 950 1036 868.5 1178.5 c 128,-1,15
 787 1321 787 1321 618 1321 c 0,16,17
 281 1321 281 1321 281 733 c 0,18,19
 281 143 281 143 616 143 c 0,10,11
410 825 m 1,20,-1
 821 825 l 1,21,-1
 821 664 l 1,22,-1
 410 664 l 1,23,-1
 410 825 l 1,20,-1
EndSplineSet
EndChar

StartChar: Lambda
Encoding: 923 923 361
Width: 1229
Flags: W
LayerCount: 2
Fore
SplineSet
1196 0 m 1,0,-1
 997 0 l 1,1,-1
 705 922 l 2,2,3
 642 1121 642 1121 612 1262 c 1,4,5
 567 1062 567 1062 524 928 c 2,6,-1
 229 0 l 1,7,-1
 33 0 l 1,8,-1
 520 1462 l 1,9,-1
 707 1462 l 1,10,-1
 1196 0 l 1,0,-1
EndSplineSet
EndChar

StartChar: Xi
Encoding: 926 926 364
Width: 1229
Flags: W
LayerCount: 2
Fore
SplineSet
152 1462 m 1,0,-1
 1075 1462 l 1,1,-1
 1075 1298 l 1,2,-1
 152 1298 l 1,3,-1
 152 1462 l 1,0,-1
233 846 m 1,4,-1
 993 846 l 1,5,-1
 993 684 l 1,6,-1
 233 684 l 1,7,-1
 233 846 l 1,4,-1
1116 164 m 1,8,-1
 1116 0 l 1,9,-1
 111 0 l 1,10,-1
 111 164 l 1,11,-1
 1116 164 l 1,8,-1
EndSplineSet
EndChar

StartChar: Pi
Encoding: 928 928 366
Width: 1229
Flags: W
LayerCount: 2
Fore
SplineSet
1094 0 m 1,0,-1
 907 0 l 1,1,-1
 907 1298 l 1,2,-1
 322 1298 l 1,3,-1
 322 0 l 1,4,-1
 135 0 l 1,5,-1
 135 1462 l 1,6,-1
 1094 1462 l 1,7,-1
 1094 0 l 1,0,-1
EndSplineSet
EndChar

StartChar: Sigma
Encoding: 931 931 368
Width: 1229
Flags: W
LayerCount: 2
Fore
SplineSet
131 0 m 1,0,-1
 131 152 l 1,1,-1
 545 766 l 1,2,-1
 143 1315 l 1,3,-1
 143 1462 l 1,4,-1
 1036 1462 l 1,5,-1
 1036 1298 l 1,6,-1
 356 1298 l 1,7,-1
 745 768 l 1,8,-1
 336 164 l 1,9,-1
 1096 164 l 1,10,-1
 1096 0 l 1,11,-1
 131 0 l 1,0,-1
EndSplineSet
EndChar

StartChar: Phi
Encoding: 934 934 371
Width: 1229
Flags: W
LayerCount: 2
Fore
SplineSet
532 1483 m 1,0,-1
 698 1483 l 1,1,-1
 698 1303 l 1,2,-1
 745 1303 l 2,3,4
 958 1303 958 1303 1081 1148.5 c 128,-1,5
 1204 994 1204 994 1204 758 c 256,6,7
 1204 522 1204 522 1077.5 363.5 c 128,-1,8
 951 205 951 205 723 205 c 2,9,-1
 698 205 l 1,10,-1
 698 -20 l 1,11,-1
 532 -20 l 1,12,-1
 532 205 l 1,13,-1
 508 205 l 2,14,15
 278 205 278 205 152.5 364 c 128,-1,16
 27 523 27 523 27 758 c 256,17,18
 27 993 27 993 149.5 1148 c 128,-1,19
 272 1303 272 1303 485 1303 c 2,20,-1
 532 1303 l 1,21,-1
 532 1483 l 1,0,-1
698 362 m 1,22,-1
 705 362 l 2,23,24
 860 362 860 362 946 468.5 c 128,-1,25
 1032 575 1032 575 1032 762 c 0,26,27
 1032 934 1032 934 953 1038.5 c 128,-1,28
 874 1143 874 1143 731 1143 c 2,29,-1
 698 1143 l 1,30,-1
 698 362 l 1,22,-1
532 1143 m 1,31,-1
 500 1143 l 2,32,33
 357 1143 357 1143 278 1038.5 c 128,-1,34
 199 934 199 934 199 762 c 0,35,36
 199 575 199 575 285 468.5 c 128,-1,37
 371 362 371 362 526 362 c 2,38,-1
 532 362 l 1,39,-1
 532 1143 l 1,31,-1
EndSplineSet
EndChar

StartChar: Psi
Encoding: 936 936 373
Width: 1229
Flags: W
LayerCount: 2
Fore
SplineSet
1174 983 m 2,0,1
 1174 696 1174 696 1058 571 c 128,-1,2
 942 446 942 446 715 446 c 2,3,-1
 698 446 l 1,4,-1
 698 0 l 1,5,-1
 532 0 l 1,6,-1
 532 446 l 1,7,-1
 516 446 l 2,8,9
 286 446 286 446 171.5 571.5 c 128,-1,10
 57 697 57 697 57 979 c 2,11,-1
 57 1462 l 1,12,-1
 229 1462 l 1,13,-1
 229 983 l 2,14,15
 229 752 229 752 298 678 c 128,-1,16
 367 604 367 604 516 604 c 2,17,-1
 532 604 l 1,18,-1
 532 1462 l 1,19,-1
 698 1462 l 1,20,-1
 698 604 l 1,21,-1
 715 604 l 2,22,23
 864 604 864 604 932.5 676 c 128,-1,24
 1001 748 1001 748 1001 979 c 2,25,-1
 1001 1462 l 1,26,-1
 1174 1462 l 1,27,-1
 1174 983 l 2,0,1
EndSplineSet
EndChar

StartChar: uni03A9
Encoding: 937 937 374
Width: 1229
Flags: W
LayerCount: 2
Fore
SplineSet
541 147 m 1,0,-1
 541 0 l 1,1,-1
 74 0 l 1,2,-1
 74 164 l 1,3,-1
 340 164 l 1,4,5
 86 399 86 399 86 825 c 0,6,7
 86 1137 86 1137 226 1311 c 128,-1,8
 366 1485 366 1485 616 1485 c 256,9,10
 866 1485 866 1485 1006.5 1311 c 128,-1,11
 1147 1137 1147 1137 1147 825 c 0,12,13
 1147 396 1147 396 891 164 c 1,14,-1
 1159 164 l 1,15,-1
 1159 0 l 1,16,-1
 690 0 l 1,17,-1
 690 147 l 1,18,19
 950 378 950 378 950 821 c 0,20,21
 950 1321 950 1321 614 1321 c 0,22,23
 279 1321 279 1321 279 821 c 0,24,25
 279 378 279 378 541 147 c 1,0,-1
EndSplineSet
EndChar

StartChar: alpha
Encoding: 945 945 382
Width: 1229
Flags: W
LayerCount: 2
Fore
SplineSet
862 950 m 1,0,-1
 874 950 l 1,1,2
 904 1053 904 1053 942 1098 c 1,3,-1
 1085 1098 l 1,4,5
 1034 932 1034 932 1034 659 c 2,6,-1
 1034 240 l 2,7,8
 1034 129 1034 129 1118 129 c 0,9,10
 1147 129 1147 129 1178 139 c 1,11,-1
 1178 6 l 1,12,13
 1126 -20 1126 -20 1063 -20 c 0,14,15
 904 -20 904 -20 864 147 c 1,16,-1
 852 147 l 1,17,18
 744 -20 744 -20 539 -20 c 0,19,20
 344 -20 344 -20 232.5 128.5 c 128,-1,21
 121 277 121 277 121 547 c 0,22,23
 121 820 121 820 236 969 c 128,-1,24
 351 1118 351 1118 557 1118 c 0,25,26
 767 1118 767 1118 862 950 c 1,0,-1
852 532 m 1,27,-1
 852 547 l 2,28,29
 852 774 852 774 785 870.5 c 128,-1,30
 718 967 718 967 571 967 c 0,31,32
 309 967 309 967 309 545 c 0,33,34
 309 131 309 131 573 131 c 0,35,36
 721 131 721 131 784.5 223 c 128,-1,37
 848 315 848 315 852 532 c 1,27,-1
EndSplineSet
EndChar

StartChar: beta
Encoding: 946 946 383
Width: 1229
Flags: W
LayerCount: 2
Fore
SplineSet
723 829 m 1,0,-1
 723 823 l 1,1,2
 1104 775 1104 775 1104 414 c 0,3,4
 1104 209 1104 209 981.5 94.5 c 128,-1,5
 859 -20 859 -20 643 -20 c 0,6,7
 457 -20 457 -20 340 43 c 1,8,-1
 340 -492 l 1,9,-1
 158 -492 l 1,10,-1
 158 1096 l 2,11,12
 158 1322 158 1322 277 1444.5 c 128,-1,13
 396 1567 396 1567 604 1567 c 0,14,15
 802 1567 802 1567 920 1462 c 128,-1,16
 1038 1357 1038 1357 1038 1174 c 0,17,18
 1038 1038 1038 1038 957.5 947 c 128,-1,19
 877 856 877 856 723 829 c 1,0,-1
340 209 m 1,20,21
 475 129 475 129 629 129 c 0,22,23
 922 129 922 129 922 428 c 0,24,25
 922 574 922 574 827 656.5 c 128,-1,26
 732 739 732 739 573 739 c 2,27,-1
 479 739 l 1,28,-1
 479 891 l 1,29,-1
 549 891 l 2,30,31
 691 891 691 891 771.5 966 c 128,-1,32
 852 1041 852 1041 852 1167 c 0,33,34
 852 1285 852 1285 785 1351 c 128,-1,35
 718 1417 718 1417 604 1417 c 0,36,37
 340 1417 340 1417 340 1087 c 2,38,-1
 340 209 l 1,20,21
EndSplineSet
EndChar

StartChar: gamma
Encoding: 947 947 384
Width: 1229
Flags: W
LayerCount: 2
Fore
SplineSet
739 63 m 2,0,1
 629 -217 629 -217 629 -492 c 1,2,-1
 438 -492 l 1,3,4
 438 -285 438 -285 539 12 c 1,5,-1
 82 1098 l 1,6,-1
 274 1098 l 1,7,-1
 516 506 l 2,8,9
 587 332 587 332 623 186 c 1,10,-1
 629 186 l 1,11,12
 655 290 655 290 727 481 c 2,13,-1
 956 1098 l 1,14,-1
 1145 1098 l 1,15,-1
 739 63 l 2,0,1
EndSplineSet
EndChar

StartChar: delta
Encoding: 948 948 385
Width: 1229
Flags: W
LayerCount: 2
Fore
SplineSet
557 938 m 1,0,1
 303 1083 303 1083 303 1286 c 0,2,3
 303 1419 303 1419 394 1493 c 128,-1,4
 485 1567 485 1567 645 1567 c 0,5,6
 844 1567 844 1567 1038 1458 c 1,7,-1
 965 1313 l 1,8,9
 796 1419 796 1419 637 1419 c 0,10,11
 563 1419 563 1419 520 1382.5 c 128,-1,12
 477 1346 477 1346 477 1282 c 0,13,14
 477 1219 477 1219 519 1167.5 c 128,-1,15
 561 1116 561 1116 733 1016 c 0,16,17
 1094 810 1094 810 1094 498 c 0,18,19
 1094 252 1094 252 964.5 116 c 128,-1,20
 835 -20 835 -20 610 -20 c 0,21,22
 397 -20 397 -20 266 103.5 c 128,-1,23
 135 227 135 227 135 438 c 0,24,25
 135 810 135 810 557 938 c 1,0,1
684 854 m 1,26,27
 328 754 328 754 328 434 c 0,28,29
 328 299 328 299 404 215 c 128,-1,30
 480 131 480 131 610 131 c 0,31,32
 905 131 905 131 905 481 c 0,33,34
 905 725 905 725 684 854 c 1,26,27
EndSplineSet
EndChar

StartChar: epsilon
Encoding: 949 949 386
Width: 1229
Flags: W
LayerCount: 2
Fore
SplineSet
840 647 m 1,0,-1
 840 494 l 1,1,-1
 680 494 l 2,2,3
 379 494 379 494 379 309 c 0,4,5
 379 129 379 129 662 129 c 0,6,7
 858 129 858 129 1028 215 c 1,8,-1
 1028 55 l 1,9,10
 894 -20 894 -20 651 -20 c 0,11,12
 440 -20 440 -20 320.5 64 c 128,-1,13
 201 148 201 148 201 299 c 0,14,15
 201 492 201 492 438 567 c 1,16,-1
 438 578 l 1,17,18
 236 644 236 644 236 827 c 0,19,20
 236 962 236 962 348 1040 c 128,-1,21
 460 1118 460 1118 649 1118 c 0,22,23
 865 1118 865 1118 1032 1042 c 1,24,-1
 969 895 l 1,25,26
 808 967 808 967 653 967 c 0,27,28
 410 967 410 967 410 813 c 0,29,30
 410 647 410 647 686 647 c 2,31,-1
 840 647 l 1,0,-1
EndSplineSet
EndChar

StartChar: zeta
Encoding: 950 950 387
Width: 1229
Flags: W
LayerCount: 2
Fore
SplineSet
223 1556 m 1,0,-1
 1061 1556 l 1,1,-1
 1061 1415 l 1,2,3
 665 1127 665 1127 507.5 930 c 128,-1,4
 350 733 350 733 350 477 c 0,5,6
 350 324 350 324 433 259.5 c 128,-1,7
 516 195 516 195 745 156 c 0,8,9
 916 126 916 126 991.5 75.5 c 128,-1,10
 1067 25 1067 25 1067 -86 c 0,11,12
 1067 -235 1067 -235 946 -401 c 1,13,-1
 776 -401 l 1,14,15
 897 -239 897 -239 897 -141 c 0,16,17
 897 -84 897 -84 845.5 -51.5 c 128,-1,18
 794 -19 794 -19 600 10 c 0,19,20
 371 45 371 45 266.5 156.5 c 128,-1,21
 162 268 162 268 162 469 c 0,22,23
 162 726 162 726 323 947 c 128,-1,24
 484 1168 484 1168 860 1415 c 1,25,26
 645 1403 645 1403 508 1403 c 2,27,-1
 223 1403 l 1,28,-1
 223 1556 l 1,0,-1
EndSplineSet
EndChar

StartChar: eta
Encoding: 951 951 388
Width: 1229
Flags: W
LayerCount: 2
Fore
SplineSet
887 -492 m 1,0,-1
 887 707 l 2,1,2
 887 967 887 967 649 967 c 0,3,4
 342 967 342 967 342 569 c 2,5,-1
 342 0 l 1,6,-1
 160 0 l 1,7,-1
 160 1098 l 1,8,-1
 307 1098 l 1,9,-1
 334 950 l 1,10,-1
 344 950 l 1,11,12
 446 1118 446 1118 680 1118 c 0,13,14
 1069 1118 1069 1118 1069 717 c 2,15,-1
 1069 -492 l 1,16,-1
 887 -492 l 1,0,-1
EndSplineSet
EndChar

StartChar: theta
Encoding: 952 952 389
Width: 1229
Flags: W
LayerCount: 2
Fore
SplineSet
612 -20 m 0,0,1
 383 -20 383 -20 265 171.5 c 128,-1,2
 147 363 147 363 147 729 c 0,3,4
 147 1109 147 1109 261 1292 c 128,-1,5
 375 1475 375 1475 612 1475 c 0,6,7
 843 1475 843 1475 962 1284.5 c 128,-1,8
 1081 1094 1081 1094 1081 729 c 0,9,10
 1081 -20 1081 -20 612 -20 c 0,0,1
332 807 m 1,11,-1
 895 807 l 1,12,13
 888 1067 888 1067 821.5 1195 c 128,-1,14
 755 1323 755 1323 612 1323 c 0,15,16
 473 1323 473 1323 406.5 1198 c 128,-1,17
 340 1073 340 1073 332 807 c 1,11,-1
895 670 m 1,18,-1
 332 670 l 1,19,20
 338 392 338 392 404 261.5 c 128,-1,21
 470 131 470 131 612 131 c 256,22,23
 754 131 754 131 821.5 259 c 128,-1,24
 889 387 889 387 895 670 c 1,18,-1
EndSplineSet
EndChar

StartChar: iota
Encoding: 953 953 390
Width: 1229
Flags: W
LayerCount: 2
Fore
SplineSet
610 1098 m 1,0,-1
 610 324 l 2,1,2
 610 129 610 129 803 129 c 0,3,4
 915 129 915 129 1016 150 c 1,5,-1
 1016 12 l 1,6,7
 923 -20 923 -20 791 -20 c 0,8,9
 428 -20 428 -20 428 324 c 2,10,-1
 428 1098 l 1,11,-1
 610 1098 l 1,0,-1
EndSplineSet
EndChar

StartChar: lambda
Encoding: 955 955 392
Width: 1229
Flags: W
LayerCount: 2
Fore
SplineSet
61 0 m 1,0,-1
 565 1083 l 1,1,-1
 512 1243 l 2,2,3
 478 1347 478 1347 435 1383 c 128,-1,4
 392 1419 392 1419 319 1419 c 0,5,6
 263 1419 263 1419 215 1407 c 1,7,-1
 215 1552 l 1,8,9
 280 1569 280 1569 342 1569 c 0,10,11
 484 1569 484 1569 555 1501.5 c 128,-1,12
 626 1434 626 1434 696 1223 c 2,13,-1
 1022 240 l 2,14,15
 1059 129 1059 129 1124 129 c 0,16,17
 1153 129 1153 129 1184 139 c 1,18,-1
 1184 6 l 1,19,20
 1134 -20 1134 -20 1069 -20 c 0,21,22
 987 -20 987 -20 943.5 20 c 128,-1,23
 900 60 900 60 872 147 c 2,24,-1
 737 565 l 2,25,26
 668 779 668 779 643 901 c 1,27,-1
 637 901 l 1,28,29
 601 763 601 763 518 580 c 2,30,-1
 250 0 l 1,31,-1
 61 0 l 1,0,-1
EndSplineSet
EndChar

StartChar: uni03BC
Encoding: 956 956 393
Width: 1229
Flags: W
LayerCount: 2
Fore
SplineSet
342 391 m 2,0,1
 342 131 342 131 580 131 c 0,2,3
 740 131 740 131 813.5 224 c 128,-1,4
 887 317 887 317 887 528 c 2,5,-1
 887 1098 l 1,6,-1
 1069 1098 l 1,7,-1
 1069 0 l 1,8,-1
 922 0 l 1,9,-1
 895 147 l 1,10,-1
 885 147 l 1,11,12
 788 -20 788 -20 584 -20 c 0,13,14
 411 -20 411 -20 336 68 c 1,15,16
 342 -85 342 -85 342 -172 c 2,17,-1
 342 -492 l 1,18,-1
 160 -492 l 1,19,-1
 160 1098 l 1,20,-1
 342 1098 l 1,21,-1
 342 391 l 2,0,1
EndSplineSet
EndChar

StartChar: nu
Encoding: 957 957 394
Width: 1229
Flags: W
LayerCount: 2
Fore
SplineSet
61 1098 m 1,0,-1
 250 1098 l 1,1,-1
 473 512 l 2,2,3
 583 223 583 223 594 154 c 1,4,-1
 600 154 l 1,5,6
 757 318 757 318 836 523 c 128,-1,7
 915 728 915 728 915 1098 c 1,8,-1
 1098 1098 l 1,9,10
 1098 733 1098 733 997.5 488 c 128,-1,11
 897 243 897 243 672 0 c 1,12,-1
 485 0 l 1,13,-1
 61 1098 l 1,0,-1
EndSplineSet
EndChar

StartChar: xi
Encoding: 958 958 395
Width: 1229
Flags: W
LayerCount: 2
Fore
SplineSet
985 887 m 1,0,-1
 985 750 l 1,1,-1
 784 750 l 2,2,3
 577 750 577 750 468.5 668.5 c 128,-1,4
 360 587 360 587 360 438 c 0,5,6
 360 347 360 347 398 294.5 c 128,-1,7
 436 242 436 242 505.5 214 c 128,-1,8
 575 186 575 186 754 154 c 0,9,10
 916 125 916 125 991.5 75 c 128,-1,11
 1067 25 1067 25 1067 -86 c 0,12,13
 1067 -235 1067 -235 946 -401 c 1,14,-1
 776 -401 l 1,15,16
 897 -239 897 -239 897 -139 c 0,17,18
 897 -86 897 -86 847.5 -53.5 c 128,-1,19
 798 -21 798 -21 610 8 c 0,20,21
 172 76 172 76 172 422 c 0,22,23
 172 556 172 556 247.5 661.5 c 128,-1,24
 323 767 323 767 455 809 c 1,25,-1
 455 821 l 1,26,27
 240 880 240 880 240 1100 c 0,28,29
 240 1214 240 1214 315 1289 c 128,-1,30
 390 1364 390 1364 575 1415 c 1,31,32
 399 1403 399 1403 295 1403 c 2,33,-1
 233 1403 l 1,34,-1
 233 1556 l 1,35,-1
 997 1556 l 1,36,-1
 997 1403 l 1,37,-1
 928 1403 l 2,38,39
 711 1403 711 1403 563.5 1323 c 128,-1,40
 416 1243 416 1243 416 1104 c 0,41,42
 416 991 416 991 507.5 939 c 128,-1,43
 599 887 599 887 795 887 c 2,44,-1
 985 887 l 1,0,-1
EndSplineSet
EndChar

StartChar: pi
Encoding: 960 960 397
Width: 1229
Flags: W
LayerCount: 2
Fore
SplineSet
1184 150 m 1,0,-1
 1184 6 l 1,1,2
 1132 -20 1132 -20 1047 -20 c 0,3,4
 821 -20 821 -20 821 242 c 2,5,-1
 821 944 l 1,6,-1
 418 944 l 1,7,-1
 418 0 l 1,8,-1
 236 0 l 1,9,-1
 236 944 l 1,10,-1
 14 944 l 1,11,-1
 14 1018 l 1,12,-1
 152 1098 l 1,13,-1
 1214 1098 l 1,14,-1
 1214 944 l 1,15,-1
 1004 944 l 1,16,-1
 1004 254 l 2,17,18
 1004 129 1004 129 1094 129 c 0,19,20
 1140 129 1140 129 1184 150 c 1,0,-1
EndSplineSet
EndChar

StartChar: rho
Encoding: 961 961 398
Width: 1229
Flags: W
LayerCount: 2
Fore
SplineSet
340 70 m 1,0,-1
 334 70 l 1,1,2
 340 -104 340 -104 340 -201 c 2,3,-1
 340 -492 l 1,4,-1
 158 -492 l 1,5,-1
 158 551 l 2,6,7
 158 814 158 814 284.5 966 c 128,-1,8
 411 1118 411 1118 629 1118 c 0,9,10
 835 1118 835 1118 959 964.5 c 128,-1,11
 1083 811 1083 811 1083 551 c 0,12,13
 1083 281 1083 281 959.5 130.5 c 128,-1,14
 836 -20 836 -20 621 -20 c 0,15,16
 453 -20 453 -20 340 70 c 1,0,-1
340 231 m 1,17,18
 452 131 452 131 623 131 c 0,19,20
 767 131 767 131 831 236.5 c 128,-1,21
 895 342 895 342 895 551 c 256,22,23
 895 760 895 760 830 863.5 c 128,-1,24
 765 967 765 967 621 967 c 0,25,26
 340 967 340 967 340 571 c 2,27,-1
 340 231 l 1,17,18
EndSplineSet
EndChar

StartChar: sigma1
Encoding: 962 962 399
Width: 1229
Flags: W
LayerCount: 2
Fore
SplineSet
940 -401 m 1,0,-1
 774 -401 l 1,1,2
 895 -238 895 -238 895 -139 c 0,3,4
 895 -79 895 -79 829 -49.5 c 128,-1,5
 763 -20 763 -20 600 8 c 0,6,7
 172 79 172 79 172 516 c 0,8,9
 172 1118 172 1118 739 1118 c 0,10,11
 903 1118 903 1118 1061 1059 c 1,12,-1
 999 901 l 1,13,14
 841 958 841 958 727 958 c 0,15,16
 360 958 360 958 360 518 c 0,17,18
 360 331 360 331 437.5 264 c 128,-1,19
 515 197 515 197 707 162 c 0,20,21
 1065 96 1065 96 1065 -90 c 0,22,23
 1065 -231 1065 -231 940 -401 c 1,0,-1
EndSplineSet
EndChar

StartChar: sigma
Encoding: 963 963 400
Width: 1229
Flags: W
LayerCount: 2
Fore
SplineSet
1174 1098 m 1,0,-1
 1174 944 l 1,1,-1
 907 944 l 1,2,3
 1085 749 1085 749 1085 504 c 0,4,5
 1085 269 1085 269 956.5 124.5 c 128,-1,6
 828 -20 828 -20 604 -20 c 0,7,8
 383 -20 383 -20 256 123.5 c 128,-1,9
 129 267 129 267 129 524 c 0,10,11
 129 1098 129 1098 684 1098 c 2,12,-1
 1174 1098 l 1,0,-1
743 944 m 1,13,-1
 684 944 l 2,14,15
 485 944 485 944 401 846.5 c 128,-1,16
 317 749 317 749 317 524 c 0,17,18
 317 339 317 339 393.5 235 c 128,-1,19
 470 131 470 131 612 131 c 0,20,21
 751 131 751 131 824 226.5 c 128,-1,22
 897 322 897 322 897 496 c 0,23,24
 897 765 897 765 743 944 c 1,13,-1
EndSplineSet
EndChar

StartChar: tau
Encoding: 964 964 401
Width: 1229
Flags: W
LayerCount: 2
Fore
SplineSet
1081 1098 m 1,0,-1
 1081 944 l 1,1,-1
 606 944 l 1,2,-1
 606 338 l 2,3,4
 606 123 606 123 815 123 c 0,5,6
 922 123 922 123 1006 143 c 1,7,-1
 1006 8 l 1,8,9
 922 -27 922 -27 786 -27 c 0,10,11
 424 -27 424 -27 424 317 c 2,12,-1
 424 944 l 1,13,-1
 106 944 l 1,14,-1
 106 1018 l 1,15,-1
 240 1098 l 1,16,-1
 1081 1098 l 1,0,-1
EndSplineSet
EndChar

StartChar: upsilon
Encoding: 965 965 402
Width: 1229
Flags: W
LayerCount: 2
Fore
SplineSet
160 1098 m 1,0,-1
 342 1098 l 1,1,-1
 342 508 l 2,2,3
 342 129 342 129 616 129 c 0,4,5
 766 129 766 129 833.5 245 c 128,-1,6
 901 361 901 361 901 608 c 0,7,8
 901 845 901 845 838 1098 c 1,9,-1
 1020 1098 l 1,10,11
 1083 853 1083 853 1083 600 c 0,12,13
 1083 282 1083 282 968 131 c 128,-1,14
 853 -20 853 -20 610 -20 c 0,15,16
 160 -20 160 -20 160 498 c 2,17,-1
 160 1098 l 1,0,-1
EndSplineSet
EndChar

StartChar: phi
Encoding: 966 966 403
Width: 1229
Flags: W
LayerCount: 2
Fore
SplineSet
524 -492 m 1,0,-1
 524 -18 l 1,1,2
 74 7 74 7 74 547 c 0,3,4
 74 861 74 861 281 1106 c 1,5,-1
 401 1016 l 1,6,7
 304 887 304 887 270 784 c 128,-1,8
 236 681 236 681 236 547 c 0,9,10
 236 164 236 164 524 131 c 1,11,-1
 524 737 l 2,12,13
 524 1118 524 1118 805 1118 c 0,14,15
 969 1118 969 1118 1062 970.5 c 128,-1,16
 1155 823 1155 823 1155 571 c 0,17,18
 1155 307 1155 307 1030 151.5 c 128,-1,19
 905 -4 905 -4 682 -18 c 1,20,-1
 682 -492 l 1,21,-1
 524 -492 l 1,0,-1
682 131 m 1,22,23
 987 160 987 160 987 569 c 0,24,25
 987 967 987 967 811 967 c 0,26,27
 682 967 682 967 682 739 c 2,28,-1
 682 131 l 1,22,23
EndSplineSet
EndChar

StartChar: chi
Encoding: 967 967 404
Width: 1229
Flags: W
LayerCount: 2
Fore
SplineSet
637 506 m 1,0,-1
 948 1098 l 1,1,-1
 1126 1098 l 1,2,-1
 709 322 l 1,3,-1
 895 -139 l 2,4,5
 941 -253 941 -253 981 -297.5 c 128,-1,6
 1021 -342 1021 -342 1085 -342 c 0,7,8
 1129 -342 1129 -342 1165 -334 c 1,9,-1
 1165 -473 l 1,10,11
 1099 -492 1099 -492 1047 -492 c 0,12,13
 945 -492 945 -492 877.5 -447 c 128,-1,14
 810 -402 810 -402 739 -225 c 2,15,-1
 592 152 l 1,16,-1
 238 -492 l 1,17,-1
 43 -492 l 1,18,-1
 518 338 l 1,19,-1
 338 784 l 2,20,21
 270 952 270 952 186 952 c 0,22,23
 157 952 157 952 123 942 c 1,24,-1
 123 1085 l 1,25,26
 176 1102 176 1102 252 1102 c 0,27,28
 333 1102 333 1102 388 1047.5 c 128,-1,29
 443 993 443 993 498 854 c 2,30,-1
 637 506 l 1,0,-1
EndSplineSet
EndChar

StartChar: psi
Encoding: 968 968 405
Width: 1229
Flags: W
LayerCount: 2
Fore
SplineSet
682 1554 m 1,0,-1
 682 133 l 1,1,2
 983 161 983 161 983 569 c 0,3,4
 983 819 983 819 920 1098 c 1,5,-1
 1092 1098 l 1,6,7
 1155 822 1155 822 1155 575 c 0,8,9
 1155 8 1155 8 682 -18 c 1,10,-1
 682 -492 l 1,11,-1
 524 -492 l 1,12,-1
 524 -18 l 1,13,14
 291 -10 291 -10 185.5 125 c 128,-1,15
 80 260 80 260 80 555 c 2,16,-1
 80 1098 l 1,17,-1
 252 1098 l 1,18,-1
 252 569 l 2,19,20
 252 147 252 147 524 131 c 1,21,-1
 524 1554 l 1,22,-1
 682 1554 l 1,0,-1
EndSplineSet
EndChar

StartChar: omega
Encoding: 969 969 406
Width: 1229
Flags: W
LayerCount: 2
Fore
SplineSet
195 1098 m 1,0,-1
 360 1098 l 1,1,2
 256 836 256 836 256 532 c 0,3,4
 256 131 256 131 395 131 c 0,5,6
 462 131 462 131 499.5 202 c 128,-1,7
 537 273 537 273 537 399 c 2,8,-1
 537 705 l 1,9,-1
 694 705 l 1,10,-1
 694 399 l 2,11,12
 694 269 694 269 733.5 200 c 128,-1,13
 773 131 773 131 836 131 c 0,14,15
 975 131 975 131 975 532 c 0,16,17
 975 838 975 838 870 1098 c 1,18,-1
 1036 1098 l 1,19,20
 1141 840 1141 840 1141 532 c 0,21,22
 1141 -20 1141 -20 852 -20 c 0,23,24
 671 -20 671 -20 621 158 c 1,25,-1
 610 158 l 1,26,27
 560 -20 560 -20 379 -20 c 0,28,29
 90 -20 90 -20 90 532 c 0,30,31
 90 834 90 834 195 1098 c 1,0,-1
EndSplineSet
EndChar

StartChar: afii10051
Encoding: 1026 1026 413
Width: 1229
Flags: W
LayerCount: 2
Fore
SplineSet
664 4 m 1,0,-1
 664 164 l 1,1,2
 732 143 732 143 799 143 c 0,3,4
 979 143 979 143 979 369 c 2,5,-1
 979 502 l 2,6,7
 979 733 979 733 752 733 c 2,8,-1
 508 733 l 1,9,-1
 508 0 l 1,10,-1
 322 0 l 1,11,-1
 322 1298 l 1,12,-1
 23 1298 l 1,13,-1
 23 1462 l 1,14,-1
 864 1462 l 1,15,-1
 864 1298 l 1,16,-1
 508 1298 l 1,17,-1
 508 897 l 1,18,-1
 772 897 l 2,19,20
 959 897 959 897 1062 800.5 c 128,-1,21
 1165 704 1165 704 1165 526 c 2,22,-1
 1165 389 l 2,23,24
 1165 193 1165 193 1070.5 86.5 c 128,-1,25
 976 -20 976 -20 805 -20 c 0,26,27
 717 -20 717 -20 664 4 c 1,0,-1
EndSplineSet
EndChar

StartChar: afii10053
Encoding: 1028 1028 415
Width: 1229
Flags: W
LayerCount: 2
Fore
SplineSet
332 846 m 1,0,-1
 961 846 l 1,1,-1
 961 684 l 1,2,-1
 326 684 l 1,3,4
 349 143 349 143 797 143 c 0,5,6
 927 143 927 143 1124 201 c 1,7,-1
 1124 39 l 1,8,9
 978 -20 978 -20 766 -20 c 0,10,11
 457 -20 457 -20 293 176 c 128,-1,12
 129 372 129 372 129 733 c 0,13,14
 129 1079 129 1079 308 1281 c 128,-1,15
 487 1483 487 1483 797 1483 c 0,16,17
 1017 1483 1017 1483 1180 1397 c 1,18,-1
 1102 1241 l 1,19,20
 948 1319 948 1319 797 1319 c 0,21,22
 609 1319 609 1319 484 1194.5 c 128,-1,23
 359 1070 359 1070 332 846 c 1,0,-1
EndSplineSet
EndChar

StartChar: afii10058
Encoding: 1033 1033 420
Width: 1229
Flags: W
LayerCount: 2
Fore
SplineSet
375 1298 m 1,0,-1
 355 750 l 2,1,2
 335 177 335 177 271.5 78.5 c 128,-1,3
 208 -20 208 -20 96 -20 c 0,4,5
 40 -20 40 -20 0 -2 c 1,6,-1
 0 143 l 1,7,8
 32 129 32 129 68 129 c 0,9,10
 103 129 103 129 129.5 164 c 128,-1,11
 156 199 156 199 168.5 291 c 128,-1,12
 181 383 181 383 201.5 815.5 c 128,-1,13
 222 1248 222 1248 225 1462 c 1,14,-1
 723 1462 l 1,15,-1
 723 846 l 1,16,-1
 762 846 l 2,17,18
 1208 846 1208 846 1208 428 c 0,19,20
 1208 220 1208 220 1094 110 c 128,-1,21
 980 0 980 0 764 0 c 2,22,-1
 557 0 l 1,23,-1
 557 1298 l 1,24,-1
 375 1298 l 1,0,-1
723 160 m 1,25,-1
 768 160 l 2,26,27
 1036 160 1036 160 1036 428 c 0,28,29
 1036 562 1036 562 967 622 c 128,-1,30
 898 682 898 682 743 682 c 2,31,-1
 723 682 l 1,32,-1
 723 160 l 1,25,-1
EndSplineSet
EndChar

StartChar: afii10059
Encoding: 1034 1034 421
Width: 1229
Flags: W
LayerCount: 2
Fore
SplineSet
549 0 m 1,0,-1
 549 682 l 1,1,-1
 231 682 l 1,2,-1
 231 0 l 1,3,-1
 66 0 l 1,4,-1
 66 1462 l 1,5,-1
 231 1462 l 1,6,-1
 231 846 l 1,7,-1
 549 846 l 1,8,-1
 549 1462 l 1,9,-1
 715 1462 l 1,10,-1
 715 846 l 1,11,-1
 754 846 l 2,12,13
 973 846 973 846 1086.5 738.5 c 128,-1,14
 1200 631 1200 631 1200 428 c 0,15,16
 1200 220 1200 220 1086 110 c 128,-1,17
 972 0 972 0 756 0 c 2,18,-1
 549 0 l 1,0,-1
715 160 m 1,19,-1
 760 160 l 2,20,21
 1028 160 1028 160 1028 428 c 0,22,23
 1028 562 1028 562 959 622 c 128,-1,24
 890 682 890 682 735 682 c 2,25,-1
 715 682 l 1,26,-1
 715 160 l 1,19,-1
EndSplineSet
EndChar

StartChar: afii10060
Encoding: 1035 1035 422
Width: 1229
Flags: W
LayerCount: 2
Fore
SplineSet
508 897 m 1,0,-1
 772 897 l 2,1,2
 959 897 959 897 1062 800.5 c 128,-1,3
 1165 704 1165 704 1165 526 c 2,4,-1
 1165 0 l 1,5,-1
 979 0 l 1,6,-1
 979 502 l 2,7,8
 979 733 979 733 752 733 c 2,9,-1
 508 733 l 1,10,-1
 508 0 l 1,11,-1
 322 0 l 1,12,-1
 322 1298 l 1,13,-1
 23 1298 l 1,14,-1
 23 1462 l 1,15,-1
 864 1462 l 1,16,-1
 864 1298 l 1,17,-1
 508 1298 l 1,18,-1
 508 897 l 1,0,-1
EndSplineSet
EndChar

StartChar: afii10145
Encoding: 1039 1039 425
Width: 1229
Flags: W
LayerCount: 2
Fore
SplineSet
1094 0 m 1,0,-1
 700 0 l 1,1,-1
 700 -385 l 1,2,-1
 524 -385 l 1,3,-1
 524 0 l 1,4,-1
 135 0 l 1,5,-1
 135 1462 l 1,6,-1
 322 1462 l 1,7,-1
 322 166 l 1,8,-1
 907 166 l 1,9,-1
 907 1462 l 1,10,-1
 1094 1462 l 1,11,-1
 1094 0 l 1,0,-1
EndSplineSet
EndChar

StartChar: afii10018
Encoding: 1041 1041 427
Width: 1229
Flags: W
LayerCount: 2
Fore
SplineSet
135 0 m 1,0,-1
 135 1462 l 1,1,-1
 1047 1462 l 1,2,-1
 1047 1298 l 1,3,-1
 322 1298 l 1,4,-1
 322 846 l 1,5,-1
 594 846 l 2,6,7
 1135 846 1135 846 1135 428 c 0,8,9
 1135 220 1135 220 1003.5 110 c 128,-1,10
 872 0 872 0 621 0 c 2,11,-1
 135 0 l 1,0,-1
322 160 m 1,12,-1
 604 160 l 2,13,14
 942 160 942 160 942 428 c 0,15,16
 942 561 942 561 856.5 621.5 c 128,-1,17
 771 682 771 682 573 682 c 2,18,-1
 322 682 l 1,19,-1
 322 160 l 1,12,-1
EndSplineSet
EndChar

StartChar: afii10021
Encoding: 1044 1044 430
Width: 1229
Flags: W
LayerCount: 2
Fore
SplineSet
1221 -385 m 1,0,-1
 1044 -385 l 1,1,-1
 1044 0 l 1,2,-1
 182 0 l 1,3,-1
 182 -385 l 1,4,-1
 6 -385 l 1,5,-1
 6 166 l 1,6,-1
 119 166 l 1,7,8
 248 402 248 402 335 760 c 128,-1,9
 422 1118 422 1118 434 1462 c 1,10,-1
 1026 1462 l 1,11,-1
 1026 166 l 1,12,-1
 1221 166 l 1,13,-1
 1221 -385 l 1,0,-1
840 166 m 1,14,-1
 840 1296 l 1,15,-1
 598 1296 l 1,16,17
 581 1030 581 1030 499.5 699.5 c 128,-1,18
 418 369 418 369 311 166 c 1,19,-1
 840 166 l 1,14,-1
EndSplineSet
EndChar

StartChar: afii10024
Encoding: 1046 1046 432
Width: 1229
Flags: W
LayerCount: 2
Fore
SplineSet
373 754 m 1,0,-1
 12 1462 l 1,1,-1
 190 1462 l 1,2,-1
 539 754 l 1,3,-1
 539 1462 l 1,4,-1
 694 1462 l 1,5,-1
 694 754 l 1,6,-1
 1036 1462 l 1,7,-1
 1214 1462 l 1,8,-1
 858 754 l 1,9,-1
 1229 0 l 1,10,-1
 1044 0 l 1,11,-1
 694 741 l 1,12,-1
 694 0 l 1,13,-1
 539 0 l 1,14,-1
 539 741 l 1,15,-1
 182 0 l 1,16,-1
 0 0 l 1,17,-1
 373 754 l 1,0,-1
EndSplineSet
EndChar

StartChar: afii10025
Encoding: 1047 1047 433
Width: 1229
Flags: W
LayerCount: 2
Fore
SplineSet
702 770 m 1,0,-1
 702 764 l 1,1,2
 880 741 880 741 975.5 650 c 128,-1,3
 1071 559 1071 559 1071 416 c 0,4,5
 1071 213 1071 213 929 96.5 c 128,-1,6
 787 -20 787 -20 526 -20 c 0,7,8
 284 -20 284 -20 139 59 c 1,9,-1
 139 229 l 1,10,11
 323 133 323 133 522 133 c 0,12,13
 877 133 877 133 877 416 c 0,14,15
 877 680 877 680 483 680 c 2,16,-1
 293 680 l 1,17,-1
 293 831 l 1,18,-1
 469 831 l 2,19,20
 649 831 649 831 749.5 905 c 128,-1,21
 850 979 850 979 850 1104 c 0,22,23
 850 1207 850 1207 780 1268 c 128,-1,24
 710 1329 710 1329 592 1329 c 0,25,26
 406 1329 406 1329 238 1208 c 1,27,-1
 145 1333 l 1,28,29
 339 1483 339 1483 600 1483 c 0,30,31
 809 1483 809 1483 926.5 1384 c 128,-1,32
 1044 1285 1044 1285 1044 1120 c 0,33,34
 1044 983 1044 983 954.5 890 c 128,-1,35
 865 797 865 797 702 770 c 1,0,-1
EndSplineSet
EndChar

StartChar: afii10026
Encoding: 1048 1048 434
Width: 1229
Flags: W
LayerCount: 2
Fore
SplineSet
137 1462 m 1,0,-1
 311 1462 l 1,1,-1
 311 662 l 2,2,3
 311 520 311 520 304 408 c 2,4,-1
 297 258 l 1,5,-1
 303 258 l 1,6,-1
 881 1462 l 1,7,-1
 1094 1462 l 1,8,-1
 1094 0 l 1,9,-1
 922 0 l 1,10,-1
 922 793 l 2,11,12
 922 933 922 933 940 1210 c 1,13,-1
 932 1210 l 1,14,-1
 352 0 l 1,15,-1
 137 0 l 1,16,-1
 137 1462 l 1,0,-1
EndSplineSet
EndChar

StartChar: afii10028
Encoding: 1050 1050 436
Width: 1229
Flags: W
LayerCount: 2
Fore
SplineSet
1198 0 m 1,0,-1
 979 0 l 1,1,-1
 397 741 l 1,2,-1
 397 0 l 1,3,-1
 211 0 l 1,4,-1
 211 1462 l 1,5,-1
 397 1462 l 1,6,-1
 397 754 l 1,7,-1
 963 1462 l 1,8,-1
 1169 1462 l 1,9,-1
 604 760 l 1,10,-1
 1198 0 l 1,0,-1
EndSplineSet
EndChar

StartChar: afii10029
Encoding: 1051 1051 437
Width: 1229
Flags: W
LayerCount: 2
Fore
SplineSet
1094 0 m 1,0,-1
 907 0 l 1,1,-1
 907 1298 l 1,2,-1
 610 1298 l 1,3,4
 493 321 493 321 404.5 149 c 128,-1,5
 316 -23 316 -23 141 -23 c 0,6,7
 70 -23 70 -23 4 2 c 1,8,-1
 4 152 l 1,9,10
 61 127 61 127 117 127 c 0,11,12
 219 127 219 127 274 307.5 c 128,-1,13
 329 488 329 488 455 1462 c 1,14,-1
 1094 1462 l 1,15,-1
 1094 0 l 1,0,-1
EndSplineSet
EndChar

StartChar: afii10037
Encoding: 1059 1059 445
Width: 1229
Flags: W
LayerCount: 2
Fore
SplineSet
1200 1462 m 1,0,-1
 772 432 l 2,1,2
 696 249 696 249 636 163.5 c 128,-1,3
 576 78 576 78 487 29 c 128,-1,4
 398 -20 398 -20 272 -20 c 0,5,6
 168 -20 168 -20 94 10 c 1,7,-1
 94 195 l 1,8,9
 179 150 179 150 272 150 c 0,10,11
 382 150 382 150 442.5 201.5 c 128,-1,12
 503 253 503 253 557 375 c 1,13,-1
 27 1462 l 1,14,-1
 231 1462 l 1,15,-1
 614 653 l 2,16,17
 626 628 626 628 634 606 c 0,18,19
 642 581 642 581 651 561 c 1,20,-1
 653 561 l 1,21,-1
 692 670 l 1,22,-1
 1004 1462 l 1,23,-1
 1200 1462 l 1,0,-1
EndSplineSet
EndChar

StartChar: afii10040
Encoding: 1062 1062 448
Width: 1229
Flags: W
LayerCount: 2
Fore
SplineSet
1034 166 m 1,0,-1
 1210 166 l 1,1,-1
 1210 -385 l 1,2,-1
 1034 -385 l 1,3,-1
 1034 0 l 1,4,-1
 135 0 l 1,5,-1
 135 1462 l 1,6,-1
 322 1462 l 1,7,-1
 322 166 l 1,8,-1
 848 166 l 1,9,-1
 848 1462 l 1,10,-1
 1034 1462 l 1,11,-1
 1034 166 l 1,0,-1
EndSplineSet
EndChar

StartChar: afii10041
Encoding: 1063 1063 449
Width: 1229
Flags: W
LayerCount: 2
Fore
SplineSet
1094 0 m 1,0,-1
 907 0 l 1,1,-1
 907 598 l 1,2,3
 680 508 680 508 514 508 c 0,4,5
 135 508 135 508 135 879 c 2,6,-1
 135 1462 l 1,7,-1
 322 1462 l 1,8,-1
 322 903 l 2,9,10
 322 773 322 773 373.5 722.5 c 128,-1,11
 425 672 425 672 535 672 c 0,12,13
 688 672 688 672 907 752 c 1,14,-1
 907 1462 l 1,15,-1
 1094 1462 l 1,16,-1
 1094 0 l 1,0,-1
EndSplineSet
EndChar

StartChar: afii10042
Encoding: 1064 1064 450
Width: 1229
Flags: W
LayerCount: 2
Fore
SplineSet
1110 0 m 1,0,-1
 121 0 l 1,1,-1
 121 1462 l 1,2,-1
 287 1462 l 1,3,-1
 287 166 l 1,4,-1
 532 166 l 1,5,-1
 532 1462 l 1,6,-1
 698 1462 l 1,7,-1
 698 166 l 1,8,-1
 944 166 l 1,9,-1
 944 1462 l 1,10,-1
 1110 1462 l 1,11,-1
 1110 0 l 1,0,-1
EndSplineSet
EndChar

StartChar: afii10043
Encoding: 1065 1065 451
Width: 1229
Flags: W
LayerCount: 2
Fore
SplineSet
1051 166 m 1,0,-1
 1229 166 l 1,1,-1
 1229 -385 l 1,2,-1
 1053 -385 l 1,3,-1
 1053 0 l 1,4,-1
 61 0 l 1,5,-1
 61 1462 l 1,6,-1
 227 1462 l 1,7,-1
 227 166 l 1,8,-1
 473 166 l 1,9,-1
 473 1462 l 1,10,-1
 639 1462 l 1,11,-1
 639 166 l 1,12,-1
 885 166 l 1,13,-1
 885 1462 l 1,14,-1
 1051 1462 l 1,15,-1
 1051 166 l 1,0,-1
EndSplineSet
EndChar

StartChar: afii10044
Encoding: 1066 1066 452
Width: 1229
Flags: W
LayerCount: 2
Fore
SplineSet
326 0 m 1,0,-1
 326 1298 l 1,1,-1
 27 1298 l 1,2,-1
 27 1462 l 1,3,-1
 512 1462 l 1,4,-1
 512 846 l 1,5,-1
 580 846 l 2,6,7
 850 846 850 846 995.5 737 c 128,-1,8
 1141 628 1141 628 1141 428 c 0,9,10
 1141 226 1141 226 1002.5 113 c 128,-1,11
 864 0 864 0 606 0 c 2,12,-1
 326 0 l 1,0,-1
512 160 m 1,13,-1
 610 160 l 2,14,15
 948 160 948 160 948 428 c 0,16,17
 948 560 948 560 862.5 621 c 128,-1,18
 777 682 777 682 580 682 c 2,19,-1
 512 682 l 1,20,-1
 512 160 l 1,13,-1
EndSplineSet
EndChar

StartChar: afii10045
Encoding: 1067 1067 453
Width: 1229
Flags: W
LayerCount: 2
Fore
SplineSet
96 0 m 1,0,-1
 96 1462 l 1,1,-1
 262 1462 l 1,2,-1
 262 846 l 1,3,-1
 309 846 l 2,4,5
 850 846 850 846 850 428 c 0,6,7
 850 220 850 220 718.5 110 c 128,-1,8
 587 0 587 0 336 0 c 2,9,-1
 96 0 l 1,0,-1
262 160 m 1,10,-1
 340 160 l 2,11,12
 678 160 678 160 678 428 c 0,13,14
 678 561 678 561 592.5 621.5 c 128,-1,15
 507 682 507 682 309 682 c 2,16,-1
 262 682 l 1,17,-1
 262 160 l 1,10,-1
967 0 m 1,18,-1
 967 1462 l 1,19,-1
 1133 1462 l 1,20,-1
 1133 0 l 1,21,-1
 967 0 l 1,18,-1
EndSplineSet
EndChar

StartChar: afii10046
Encoding: 1068 1068 454
Width: 1229
Flags: W
LayerCount: 2
Fore
SplineSet
176 0 m 1,0,-1
 176 1462 l 1,1,-1
 362 1462 l 1,2,-1
 362 846 l 1,3,-1
 553 846 l 2,4,5
 1094 846 1094 846 1094 428 c 0,6,7
 1094 220 1094 220 962.5 110 c 128,-1,8
 831 0 831 0 580 0 c 2,9,-1
 176 0 l 1,0,-1
362 160 m 1,10,-1
 563 160 l 2,11,12
 901 160 901 160 901 428 c 0,13,14
 901 561 901 561 815.5 621.5 c 128,-1,15
 730 682 730 682 532 682 c 2,16,-1
 362 682 l 1,17,-1
 362 160 l 1,10,-1
EndSplineSet
EndChar

StartChar: afii10047
Encoding: 1069 1069 455
Width: 1229
Flags: W
LayerCount: 2
Fore
SplineSet
145 1241 m 1,0,-1
 68 1397 l 1,1,2
 229 1483 229 1483 451 1483 c 0,3,4
 755 1483 755 1483 927.5 1288.5 c 128,-1,5
 1100 1094 1100 1094 1100 758 c 0,6,7
 1100 385 1100 385 929 182.5 c 128,-1,8
 758 -20 758 -20 442 -20 c 0,9,10
 230 -20 230 -20 84 39 c 1,11,-1
 84 201 l 1,12,13
 281 143 281 143 412 143 c 0,14,15
 885 143 885 143 901 684 c 1,16,-1
 272 684 l 1,17,-1
 272 846 l 1,18,-1
 897 846 l 1,19,20
 878 1068 878 1068 759.5 1193.5 c 128,-1,21
 641 1319 641 1319 451 1319 c 0,22,23
 299 1319 299 1319 145 1241 c 1,0,-1
EndSplineSet
EndChar

StartChar: afii10048
Encoding: 1070 1070 456
Width: 1229
Flags: W
LayerCount: 2
Fore
SplineSet
403 682 m 1,0,-1
 264 682 l 1,1,-1
 264 0 l 1,2,-1
 98 0 l 1,3,-1
 98 1462 l 1,4,-1
 264 1462 l 1,5,-1
 264 846 l 1,6,-1
 408 846 l 1,7,8
 426 1195 426 1195 513.5 1340 c 128,-1,9
 601 1485 601 1485 784 1485 c 0,10,11
 976 1485 976 1485 1067.5 1308.5 c 128,-1,12
 1159 1132 1159 1132 1159 733 c 0,13,14
 1159 336 1159 336 1067 158 c 128,-1,15
 975 -20 975 -20 782 -20 c 0,16,17
 592 -20 592 -20 502.5 137.5 c 128,-1,18
 413 295 413 295 403 682 c 1,0,-1
782 143 m 0,19,20
 888 143 888 143 935.5 259.5 c 128,-1,21
 983 376 983 376 983 733 c 0,22,23
 983 1093 983 1093 935 1207 c 128,-1,24
 887 1321 887 1321 782 1321 c 0,25,26
 674 1321 674 1321 627 1202.5 c 128,-1,27
 580 1084 580 1084 580 733 c 0,28,29
 580 385 580 385 626.5 264 c 128,-1,30
 673 143 673 143 782 143 c 0,19,20
EndSplineSet
EndChar

StartChar: afii10049
Encoding: 1071 1071 457
Width: 1229
Flags: W
LayerCount: 2
Fore
SplineSet
610 604 m 1,0,-1
 276 0 l 1,1,-1
 57 0 l 1,2,-1
 438 655 l 1,3,4
 166 753 166 753 166 1063 c 0,5,6
 166 1462 166 1462 670 1462 c 2,7,-1
 1042 1462 l 1,8,-1
 1042 0 l 1,9,-1
 856 0 l 1,10,-1
 856 604 l 1,11,-1
 610 604 l 1,0,-1
856 1303 m 1,12,-1
 668 1303 l 2,13,14
 358 1303 358 1303 358 1047 c 0,15,16
 358 910 358 910 440 836 c 128,-1,17
 522 762 522 762 676 762 c 2,18,-1
 856 762 l 1,19,-1
 856 1303 l 1,12,-1
EndSplineSet
EndChar

StartChar: afii10066
Encoding: 1073 1073 459
Width: 1229
Flags: W
LayerCount: 2
Fore
SplineSet
1040 1571 m 1,0,-1
 1073 1411 l 1,1,2
 676 1344 676 1344 573.5 1311.5 c 128,-1,3
 471 1279 471 1279 407.5 1170.5 c 128,-1,4
 344 1062 344 1062 336 852 c 1,5,-1
 348 852 l 1,6,7
 464 1022 464 1022 684 1022 c 0,8,9
 870 1022 870 1022 976.5 890.5 c 128,-1,10
 1083 759 1083 759 1083 530 c 0,11,12
 1083 270 1083 270 958 125 c 128,-1,13
 833 -20 833 -20 612 -20 c 0,14,15
 393 -20 393 -20 268 160 c 128,-1,16
 143 340 143 340 143 659 c 0,17,18
 143 871 143 871 174 1015 c 128,-1,19
 205 1159 205 1159 257 1247 c 128,-1,20
 309 1335 309 1335 378 1388 c 128,-1,21
 447 1441 447 1441 548 1469.5 c 128,-1,22
 649 1498 649 1498 1040 1571 c 1,0,-1
332 655 m 1,23,24
 332 131 332 131 625 131 c 0,25,26
 891 131 891 131 891 506 c 0,27,28
 891 870 891 870 651 870 c 0,29,30
 556 870 556 870 467.5 806.5 c 128,-1,31
 379 743 379 743 332 655 c 1,23,24
EndSplineSet
EndChar

StartChar: afii10067
Encoding: 1074 1074 460
Width: 1229
Flags: W
LayerCount: 2
Fore
SplineSet
844 582 m 1,0,-1
 844 575 l 1,1,2
 1108 540 1108 540 1108 317 c 0,3,4
 1108 168 1108 168 1002 84 c 128,-1,5
 896 0 896 0 688 0 c 2,6,-1
 176 0 l 1,7,-1
 176 1098 l 1,8,-1
 686 1098 l 2,9,10
 1073 1098 1073 1098 1073 821 c 0,11,12
 1073 624 1073 624 844 582 c 1,0,-1
358 944 m 1,13,-1
 358 647 l 1,14,-1
 651 647 l 2,15,16
 785 647 785 647 842 683 c 128,-1,17
 899 719 899 719 899 803 c 0,18,19
 899 944 899 944 682 944 c 2,20,-1
 358 944 l 1,13,-1
358 494 m 1,21,-1
 358 150 l 1,22,-1
 676 150 l 2,23,24
 930 150 930 150 930 330 c 0,25,26
 930 422 930 422 865 458 c 128,-1,27
 800 494 800 494 672 494 c 2,28,-1
 358 494 l 1,21,-1
EndSplineSet
EndChar

StartChar: afii10068
Encoding: 1075 1075 461
Width: 1229
Flags: W
LayerCount: 2
Fore
SplineSet
1038 944 m 1,0,-1
 473 944 l 1,1,-1
 473 0 l 1,2,-1
 291 0 l 1,3,-1
 291 1098 l 1,4,-1
 1038 1098 l 1,5,-1
 1038 944 l 1,0,-1
EndSplineSet
EndChar

StartChar: afii10069
Encoding: 1076 1076 462
Width: 1229
Flags: W
LayerCount: 2
Fore
SplineSet
1128 -381 m 1,0,-1
 952 -381 l 1,1,-1
 952 0 l 1,2,-1
 209 0 l 1,3,-1
 209 -381 l 1,4,-1
 33 -381 l 1,5,-1
 33 154 l 1,6,-1
 119 154 l 1,7,8
 381 543 381 543 385 1098 c 1,9,-1
 977 1098 l 1,10,-1
 977 154 l 1,11,-1
 1128 154 l 1,12,-1
 1128 -381 l 1,0,-1
795 154 m 1,13,-1
 795 958 l 1,14,-1
 545 958 l 1,15,16
 509 477 509 477 311 154 c 1,17,-1
 795 154 l 1,13,-1
EndSplineSet
EndChar

StartChar: afii10072
Encoding: 1078 1078 464
Width: 1229
Flags: W
LayerCount: 2
Fore
SplineSet
535 565 m 1,0,-1
 535 1098 l 1,1,-1
 694 1098 l 1,2,-1
 694 565 l 1,3,-1
 1044 1098 l 1,4,-1
 1229 1098 l 1,5,-1
 862 565 l 1,6,-1
 1227 0 l 1,7,-1
 1032 0 l 1,8,-1
 694 557 l 1,9,-1
 694 0 l 1,10,-1
 535 0 l 1,11,-1
 535 557 l 1,12,-1
 197 0 l 1,13,-1
 2 0 l 1,14,-1
 369 565 l 1,15,-1
 0 1098 l 1,16,-1
 184 1098 l 1,17,-1
 535 565 l 1,0,-1
EndSplineSet
EndChar

StartChar: afii10073
Encoding: 1079 1079 465
Width: 1229
Flags: W
LayerCount: 2
Fore
SplineSet
506 647 m 2,0,1
 678 647 678 647 750.5 686.5 c 128,-1,2
 823 726 823 726 823 813 c 0,3,4
 823 967 823 967 573 967 c 0,5,6
 439 967 439 967 264 895 c 1,7,-1
 201 1042 l 1,8,9
 361 1118 361 1118 571 1118 c 0,10,11
 776 1118 776 1118 886.5 1043.5 c 128,-1,12
 997 969 997 969 997 829 c 0,13,14
 997 643 997 643 805 586 c 1,15,-1
 805 575 l 1,16,17
 1032 510 1032 510 1032 303 c 0,18,19
 1032 152 1032 152 911.5 66 c 128,-1,20
 791 -20 791 -20 567 -20 c 0,21,22
 332 -20 332 -20 205 49 c 1,23,-1
 205 215 l 1,24,25
 385 129 385 129 571 129 c 0,26,27
 854 129 854 129 854 309 c 0,28,29
 854 494 854 494 543 494 c 2,30,-1
 393 494 l 1,31,-1
 393 647 l 1,32,-1
 506 647 l 2,0,1
EndSplineSet
EndChar

StartChar: afii10074
Encoding: 1080 1080 466
Width: 1229
Flags: W
LayerCount: 2
Fore
SplineSet
332 1098 m 1,0,-1
 332 430 l 1,1,-1
 319 178 l 1,2,-1
 836 1098 l 1,3,-1
 1069 1098 l 1,4,-1
 1069 0 l 1,5,-1
 897 0 l 1,6,-1
 897 647 l 1,7,-1
 907 918 l 1,8,-1
 393 0 l 1,9,-1
 160 0 l 1,10,-1
 160 1098 l 1,11,-1
 332 1098 l 1,0,-1
EndSplineSet
EndChar

StartChar: afii10076
Encoding: 1082 1082 468
Width: 1229
Flags: W
LayerCount: 2
Fore
SplineSet
913 1098 m 1,0,-1
 1135 1098 l 1,1,-1
 608 571 l 1,2,-1
 1174 0 l 1,3,-1
 942 0 l 1,4,-1
 395 557 l 1,5,-1
 395 0 l 1,6,-1
 215 0 l 1,7,-1
 215 1098 l 1,8,-1
 395 1098 l 1,9,-1
 395 565 l 1,10,-1
 913 1098 l 1,0,-1
EndSplineSet
EndChar

StartChar: afii10077
Encoding: 1083 1083 469
Width: 1229
Flags: W
LayerCount: 2
Fore
SplineSet
1040 0 m 1,0,-1
 858 0 l 1,1,-1
 858 944 l 1,2,-1
 518 944 l 1,3,4
 481 451 481 451 392 218.5 c 128,-1,5
 303 -14 303 -14 123 -14 c 0,6,7
 61 -14 61 -14 31 -2 c 1,8,-1
 31 129 l 1,9,10
 52 123 52 123 80 123 c 0,11,12
 191 123 191 123 258.5 360.5 c 128,-1,13
 326 598 326 598 362 1098 c 1,14,-1
 1040 1098 l 1,15,-1
 1040 0 l 1,0,-1
EndSplineSet
EndChar

StartChar: afii10078
Encoding: 1084 1084 470
Width: 1229
Flags: W
LayerCount: 2
Fore
SplineSet
1114 0 m 1,0,-1
 963 0 l 1,1,-1
 963 897 l 1,2,3
 955 870 955 870 930 770 c 0,4,5
 908 685 908 685 895 647 c 2,6,-1
 682 0 l 1,7,-1
 547 0 l 1,8,-1
 334 647 l 2,9,10
 326 672 326 672 266 897 c 1,11,-1
 266 0 l 1,12,-1
 115 0 l 1,13,-1
 115 1098 l 1,14,-1
 326 1098 l 1,15,-1
 541 442 l 2,16,17
 566 365 566 365 614 174 c 1,18,19
 619 187 619 187 667 365 c 0,20,21
 677 404 677 404 688 438 c 2,22,-1
 907 1098 l 1,23,-1
 1114 1098 l 1,24,-1
 1114 0 l 1,0,-1
EndSplineSet
EndChar

StartChar: afii10079
Encoding: 1085 1085 471
Width: 1229
Flags: W
LayerCount: 2
Fore
SplineSet
342 1098 m 1,0,-1
 342 643 l 1,1,-1
 887 643 l 1,2,-1
 887 1098 l 1,3,-1
 1069 1098 l 1,4,-1
 1069 0 l 1,5,-1
 887 0 l 1,6,-1
 887 489 l 1,7,-1
 342 489 l 1,8,-1
 342 0 l 1,9,-1
 160 0 l 1,10,-1
 160 1098 l 1,11,-1
 342 1098 l 1,0,-1
EndSplineSet
EndChar

StartChar: afii10081
Encoding: 1087 1087 473
Width: 1229
Flags: W
LayerCount: 2
Fore
SplineSet
342 0 m 1,0,-1
 160 0 l 1,1,-1
 160 1098 l 1,2,-1
 1069 1098 l 1,3,-1
 1069 0 l 1,4,-1
 887 0 l 1,5,-1
 887 944 l 1,6,-1
 342 944 l 1,7,-1
 342 0 l 1,0,-1
EndSplineSet
EndChar

StartChar: afii10084
Encoding: 1090 1090 476
Width: 1229
Flags: W
LayerCount: 2
Fore
SplineSet
1106 944 m 1,0,-1
 705 944 l 1,1,-1
 705 0 l 1,2,-1
 522 0 l 1,3,-1
 522 944 l 1,4,-1
 121 944 l 1,5,-1
 121 1098 l 1,6,-1
 1106 1098 l 1,7,-1
 1106 944 l 1,0,-1
EndSplineSet
EndChar

StartChar: afii10086
Encoding: 1092 1092 478
Width: 1229
Flags: W
LayerCount: 2
Fore
SplineSet
694 1114 m 1,0,1
 1153 1064 1153 1064 1153 551 c 0,2,3
 1153 26 1153 26 694 -16 c 1,4,-1
 694 -492 l 1,5,-1
 537 -492 l 1,6,-1
 537 -16 l 1,7,8
 74 29 74 29 74 551 c 256,9,10
 74 1073 74 1073 537 1114 c 1,11,-1
 537 1556 l 1,12,-1
 694 1556 l 1,13,-1
 694 1114 l 1,0,1
537 135 m 1,14,-1
 537 963 l 1,15,16
 242 934 242 934 242 551 c 0,17,18
 242 165 242 165 537 135 c 1,14,-1
694 961 m 1,19,-1
 694 135 l 1,20,21
 985 168 985 168 985 551 c 0,22,23
 985 928 985 928 694 961 c 1,19,-1
EndSplineSet
EndChar

StartChar: afii10088
Encoding: 1094 1094 480
Width: 1229
Flags: W
LayerCount: 2
Fore
SplineSet
1180 -381 m 1,0,-1
 1004 -381 l 1,1,-1
 1004 0 l 1,2,-1
 152 0 l 1,3,-1
 152 1098 l 1,4,-1
 334 1098 l 1,5,-1
 334 154 l 1,6,-1
 838 154 l 1,7,-1
 838 1098 l 1,8,-1
 1020 1098 l 1,9,-1
 1020 154 l 1,10,-1
 1180 154 l 1,11,-1
 1180 -381 l 1,0,-1
EndSplineSet
EndChar

StartChar: afii10089
Encoding: 1095 1095 481
Width: 1229
Flags: W
LayerCount: 2
Fore
SplineSet
334 1098 m 1,0,-1
 334 688 l 2,1,2
 334 514 334 514 539 514 c 0,3,4
 710 514 710 514 879 629 c 1,5,-1
 879 1098 l 1,6,-1
 1061 1098 l 1,7,-1
 1061 0 l 1,8,-1
 879 0 l 1,9,-1
 879 489 l 1,10,11
 698 362 698 362 498 362 c 0,12,13
 338 362 338 362 245 449.5 c 128,-1,14
 152 537 152 537 152 676 c 2,15,-1
 152 1098 l 1,16,-1
 334 1098 l 1,0,-1
EndSplineSet
EndChar

StartChar: afii10090
Encoding: 1096 1096 482
Width: 1229
Flags: W
LayerCount: 2
Fore
SplineSet
696 154 m 1,0,-1
 944 154 l 1,1,-1
 944 1098 l 1,2,-1
 1106 1098 l 1,3,-1
 1106 0 l 1,4,-1
 125 0 l 1,5,-1
 125 1098 l 1,6,-1
 287 1098 l 1,7,-1
 287 154 l 1,8,-1
 535 154 l 1,9,-1
 535 1098 l 1,10,-1
 696 1098 l 1,11,-1
 696 154 l 1,0,-1
EndSplineSet
EndChar

StartChar: afii10091
Encoding: 1097 1097 483
Width: 1229
Flags: W
LayerCount: 2
Fore
SplineSet
680 154 m 1,0,-1
 928 154 l 1,1,-1
 928 1098 l 1,2,-1
 1090 1098 l 1,3,-1
 1090 154 l 1,4,-1
 1208 154 l 1,5,-1
 1208 -381 l 1,6,-1
 1047 -381 l 1,7,-1
 1047 0 l 1,8,-1
 109 0 l 1,9,-1
 109 1098 l 1,10,-1
 270 1098 l 1,11,-1
 270 154 l 1,12,-1
 518 154 l 1,13,-1
 518 1098 l 1,14,-1
 680 1098 l 1,15,-1
 680 154 l 1,0,-1
EndSplineSet
EndChar

StartChar: afii10092
Encoding: 1098 1098 484
Width: 1229
Flags: W
LayerCount: 2
Fore
SplineSet
586 647 m 1,0,-1
 739 647 l 2,1,2
 1155 647 1155 647 1155 336 c 0,3,4
 1155 0 1155 0 735 0 c 2,5,-1
 403 0 l 1,6,-1
 403 944 l 1,7,-1
 43 944 l 1,8,-1
 43 1098 l 1,9,-1
 586 1098 l 1,10,-1
 586 647 l 1,0,-1
586 494 m 1,11,-1
 586 150 l 1,12,-1
 723 150 l 2,13,14
 977 150 977 150 977 322 c 0,15,16
 977 412 977 412 918 453 c 128,-1,17
 859 494 859 494 719 494 c 2,18,-1
 586 494 l 1,11,-1
EndSplineSet
EndChar

StartChar: afii10093
Encoding: 1099 1099 485
Width: 1229
Flags: W
LayerCount: 2
Fore
SplineSet
274 647 m 1,0,-1
 408 647 l 2,1,2
 823 647 823 647 823 336 c 0,3,4
 823 0 823 0 403 0 c 2,5,-1
 113 0 l 1,6,-1
 113 1098 l 1,7,-1
 274 1098 l 1,8,-1
 274 647 l 1,0,-1
274 494 m 1,9,-1
 274 150 l 1,10,-1
 412 150 l 2,11,12
 666 150 666 150 666 322 c 0,13,14
 666 412 666 412 607 453 c 128,-1,15
 548 494 548 494 408 494 c 2,16,-1
 274 494 l 1,9,-1
1114 0 m 1,17,-1
 952 0 l 1,18,-1
 952 1098 l 1,19,-1
 1114 1098 l 1,20,-1
 1114 0 l 1,17,-1
EndSplineSet
EndChar

StartChar: afii10094
Encoding: 1100 1100 486
Width: 1229
Flags: W
LayerCount: 2
Fore
SplineSet
399 647 m 1,0,-1
 676 647 l 2,1,2
 1092 647 1092 647 1092 336 c 0,3,4
 1092 0 1092 0 672 0 c 2,5,-1
 217 0 l 1,6,-1
 217 1098 l 1,7,-1
 399 1098 l 1,8,-1
 399 647 l 1,0,-1
399 494 m 1,9,-1
 399 150 l 1,10,-1
 659 150 l 2,11,12
 913 150 913 150 913 322 c 0,13,14
 913 412 913 412 854 453 c 128,-1,15
 795 494 795 494 655 494 c 2,16,-1
 399 494 l 1,9,-1
EndSplineSet
EndChar

StartChar: afii10095
Encoding: 1101 1101 487
Width: 1229
Flags: W
LayerCount: 2
Fore
SplineSet
190 41 m 1,0,-1
 190 201 l 1,1,2
 353 139 353 139 506 139 c 0,3,4
 857 139 857 139 874 487 c 1,5,-1
 336 487 l 1,6,-1
 336 641 l 1,7,-1
 872 641 l 1,8,9
 845 958 845 958 508 958 c 0,10,11
 400 958 400 958 246 901 c 1,12,-1
 184 1059 l 1,13,14
 337 1118 337 1118 516 1118 c 0,15,16
 783 1118 783 1118 922 972 c 128,-1,17
 1061 826 1061 826 1061 543 c 0,18,19
 1061 272 1061 272 918 126 c 128,-1,20
 775 -20 775 -20 510 -20 c 0,21,22
 323 -20 323 -20 190 41 c 1,0,-1
EndSplineSet
EndChar

StartChar: afii10096
Encoding: 1102 1102 488
Width: 1229
Flags: W
LayerCount: 2
Fore
SplineSet
434 489 m 1,0,-1
 285 489 l 1,1,-1
 285 0 l 1,2,-1
 123 0 l 1,3,-1
 123 1098 l 1,4,-1
 285 1098 l 1,5,-1
 285 643 l 1,6,-1
 436 643 l 1,7,8
 471 1118 471 1118 803 1118 c 0,9,10
 974 1118 974 1118 1069.5 970 c 128,-1,11
 1165 822 1165 822 1165 551 c 0,12,13
 1165 -20 1165 -20 797 -20 c 0,14,15
 462 -20 462 -20 434 489 c 1,0,-1
801 131 m 0,16,17
 904 131 904 131 950.5 228.5 c 128,-1,18
 997 326 997 326 997 551 c 0,19,20
 997 769 997 769 951 868 c 128,-1,21
 905 967 905 967 799 967 c 0,22,23
 695 967 695 967 648.5 871 c 128,-1,24
 602 775 602 775 602 551 c 0,25,26
 602 330 602 330 648.5 230.5 c 128,-1,27
 695 131 695 131 801 131 c 0,16,17
EndSplineSet
EndChar

StartChar: afii10097
Encoding: 1103 1103 489
Width: 1229
Flags: W
LayerCount: 2
Fore
SplineSet
313 0 m 1,0,-1
 115 0 l 1,1,-1
 406 461 l 1,2,3
 172 528 172 528 172 776 c 0,4,5
 172 926 172 926 274 1012 c 128,-1,6
 376 1098 376 1098 549 1098 c 2,7,-1
 1034 1098 l 1,8,-1
 1034 0 l 1,9,-1
 852 0 l 1,10,-1
 852 432 l 1,11,-1
 567 432 l 1,12,-1
 313 0 l 1,0,-1
852 586 m 1,13,-1
 852 944 l 1,14,-1
 557 944 l 2,15,16
 346 944 346 944 346 772 c 0,17,18
 346 586 346 586 584 586 c 2,19,-1
 852 586 l 1,13,-1
EndSplineSet
EndChar

StartChar: afii10099
Encoding: 1106 1106 491
Width: 1229
Flags: W
LayerCount: 2
Fore
SplineSet
645 -467 m 1,0,-1
 645 -319 l 1,1,2
 699 -340 699 -340 760 -340 c 0,3,4
 887 -340 887 -340 887 -170 c 2,5,-1
 887 666 l 2,6,7
 887 926 887 926 651 926 c 0,8,9
 489 926 489 926 415.5 832.5 c 128,-1,10
 342 739 342 739 342 528 c 2,11,-1
 342 0 l 1,12,-1
 160 0 l 1,13,-1
 160 1237 l 1,14,-1
 4 1237 l 1,15,-1
 4 1374 l 1,16,-1
 160 1374 l 1,17,-1
 160 1556 l 1,18,-1
 342 1556 l 1,19,-1
 342 1374 l 1,20,-1
 721 1374 l 1,21,-1
 721 1237 l 1,22,-1
 342 1237 l 1,23,-1
 342 1053 l 1,24,-1
 334 909 l 1,25,-1
 344 909 l 1,26,27
 450 1077 450 1077 678 1077 c 0,28,29
 1069 1077 1069 1077 1069 676 c 2,30,-1
 1069 -158 l 2,31,32
 1069 -492 1069 -492 778 -492 c 0,33,34
 697 -492 697 -492 645 -467 c 1,0,-1
EndSplineSet
EndChar

StartChar: afii10101
Encoding: 1108 1108 493
Width: 1229
Flags: W
LayerCount: 2
Fore
SplineSet
1061 1059 m 1,0,-1
 999 901 l 1,1,2
 849 958 849 958 737 958 c 0,3,4
 390 958 390 958 360 641 c 1,5,-1
 897 641 l 1,6,-1
 897 487 l 1,7,-1
 358 487 l 1,8,9
 378 139 378 139 727 139 c 0,10,11
 880 139 880 139 1042 201 c 1,12,-1
 1042 41 l 1,13,14
 909 -20 909 -20 723 -20 c 0,15,16
 458 -20 458 -20 315 126 c 128,-1,17
 172 272 172 272 172 543 c 0,18,19
 172 826 172 826 317.5 972 c 128,-1,20
 463 1118 463 1118 731 1118 c 0,21,22
 909 1118 909 1118 1061 1059 c 1,0,-1
EndSplineSet
EndChar

StartChar: afii10106
Encoding: 1113 1113 498
Width: 1229
Flags: W
LayerCount: 2
Fore
SplineSet
713 647 m 1,0,-1
 764 647 l 2,1,2
 1180 647 1180 647 1180 336 c 0,3,4
 1180 0 1180 0 760 0 c 2,5,-1
 551 0 l 1,6,-1
 551 944 l 1,7,-1
 365 944 l 1,8,9
 332 470 332 470 306 281.5 c 128,-1,10
 280 93 280 93 234 39.5 c 128,-1,11
 188 -14 188 -14 92 -14 c 0,12,13
 30 -14 30 -14 0 -2 c 1,14,-1
 0 129 l 1,15,16
 22 123 22 123 49 123 c 0,17,18
 90 123 90 123 114.5 165 c 128,-1,19
 139 207 139 207 161.5 398 c 128,-1,20
 184 589 184 589 219 1098 c 1,21,-1
 713 1098 l 1,22,-1
 713 647 l 1,0,-1
713 494 m 1,23,-1
 713 150 l 1,24,-1
 768 150 l 2,25,26
 1022 150 1022 150 1022 322 c 0,27,28
 1022 412 1022 412 963 453 c 128,-1,29
 904 494 904 494 764 494 c 2,30,-1
 713 494 l 1,23,-1
EndSplineSet
EndChar

StartChar: afii10107
Encoding: 1114 1114 499
Width: 1229
Flags: W
LayerCount: 2
Fore
SplineSet
268 1098 m 1,0,-1
 268 643 l 1,1,-1
 567 643 l 1,2,-1
 567 1098 l 1,3,-1
 729 1098 l 1,4,-1
 729 647 l 1,5,-1
 780 647 l 2,6,7
 1196 647 1196 647 1196 336 c 0,8,9
 1196 0 1196 0 776 0 c 2,10,-1
 567 0 l 1,11,-1
 567 489 l 1,12,-1
 268 489 l 1,13,-1
 268 0 l 1,14,-1
 106 0 l 1,15,-1
 106 1098 l 1,16,-1
 268 1098 l 1,0,-1
729 494 m 1,17,-1
 729 150 l 1,18,-1
 784 150 l 2,19,20
 1038 150 1038 150 1038 322 c 0,21,22
 1038 412 1038 412 979 453 c 128,-1,23
 920 494 920 494 780 494 c 2,24,-1
 729 494 l 1,17,-1
EndSplineSet
EndChar

StartChar: afii10193
Encoding: 1119 1119 503
Width: 1229
Flags: W
LayerCount: 2
Fore
SplineSet
342 154 m 1,0,-1
 887 154 l 1,1,-1
 887 1098 l 1,2,-1
 1069 1098 l 1,3,-1
 1069 0 l 1,4,-1
 715 0 l 1,5,-1
 715 -381 l 1,6,-1
 532 -381 l 1,7,-1
 532 0 l 1,8,-1
 160 0 l 1,9,-1
 160 1098 l 1,10,-1
 342 1098 l 1,11,-1
 342 154 l 1,0,-1
EndSplineSet
EndChar

StartChar: afii10050
Encoding: 1168 1168 504
Width: 1229
Flags: W
LayerCount: 2
Fore
SplineSet
883 1462 m 1,0,-1
 883 1763 l 1,1,-1
 1059 1763 l 1,2,-1
 1059 1296 l 1,3,-1
 432 1296 l 1,4,-1
 432 0 l 1,5,-1
 246 0 l 1,6,-1
 246 1462 l 1,7,-1
 883 1462 l 1,0,-1
EndSplineSet
EndChar

StartChar: afii10098
Encoding: 1169 1169 505
Width: 1229
Flags: W
LayerCount: 2
Fore
SplineSet
1018 961 m 1,0,-1
 473 961 l 1,1,-1
 473 0 l 1,2,-1
 291 0 l 1,3,-1
 291 1098 l 1,4,-1
 836 1098 l 1,5,-1
 836 1417 l 1,6,-1
 1018 1417 l 1,7,-1
 1018 961 l 1,0,-1
EndSplineSet
EndChar

StartChar: endash
Encoding: 8211 8211 514
Width: 1229
Flags: W
LayerCount: 2
Fore
SplineSet
184 465 m 1,0,-1
 184 633 l 1,1,-1
 1044 633 l 1,2,-1
 1044 465 l 1,3,-1
 184 465 l 1,0,-1
EndSplineSet
EndChar

StartChar: emdash
Encoding: 8212 8212 515
Width: 1229
Flags: W
LayerCount: 2
Fore
SplineSet
-6 465 m 1,0,-1
 -6 633 l 1,1,-1
 1235 633 l 1,2,-1
 1235 465 l 1,3,-1
 -6 465 l 1,0,-1
EndSplineSet
EndChar

StartChar: afii00208
Encoding: 8213 8213 516
Width: 1229
Flags: W
LayerCount: 2
Fore
SplineSet
-6 465 m 1,0,-1
 -6 633 l 1,1,-1
 1235 633 l 1,2,-1
 1235 465 l 1,3,-1
 -6 465 l 1,0,-1
EndSplineSet
EndChar

StartChar: underscoredbl
Encoding: 8215 8215 517
Width: 1229
Flags: W
LayerCount: 2
Fore
SplineSet
1249 -184 m 1,0,-1
 -20 -184 l 1,1,-1
 -20 -45 l 1,2,-1
 1249 -45 l 1,3,-1
 1249 -184 l 1,0,-1
1249 -463 m 1,4,-1
 -20 -463 l 1,5,-1
 -20 -324 l 1,6,-1
 1249 -324 l 1,7,-1
 1249 -463 l 1,4,-1
EndSplineSet
EndChar

StartChar: quoteleft
Encoding: 8216 8216 518
Width: 1229
Flags: W
LayerCount: 2
Fore
SplineSet
461 961 m 1,0,-1
 446 983 l 1,1,2
 500 1189 500 1189 623 1462 c 1,3,-1
 780 1462 l 1,4,5
 718 1207 718 1207 680 961 c 1,6,-1
 461 961 l 1,0,-1
EndSplineSet
EndChar

StartChar: quoteright
Encoding: 8217 8217 519
Width: 1229
Flags: W
LayerCount: 2
Fore
SplineSet
766 1462 m 1,0,-1
 780 1440 l 1,1,2
 725 1227 725 1227 604 961 c 1,3,-1
 446 961 l 1,4,5
 511 1227 511 1227 547 1462 c 1,6,-1
 766 1462 l 1,0,-1
EndSplineSet
EndChar

StartChar: quotesinglbase
Encoding: 8218 8218 520
Width: 1229
Flags: W
LayerCount: 2
Fore
SplineSet
756 238 m 1,0,-1
 770 215 l 1,1,2
 715 2 715 2 594 -264 c 1,3,-1
 457 -264 l 1,4,5
 528 28 528 28 557 238 c 1,6,-1
 756 238 l 1,0,-1
EndSplineSet
EndChar

StartChar: quotereversed
Encoding: 8219 8219 521
Width: 1229
Flags: W
LayerCount: 2
Fore
SplineSet
680 1462 m 1,0,1
 720 1203 720 1203 780 961 c 1,2,-1
 623 961 l 1,3,4
 499 1235 499 1235 446 1440 c 1,5,-1
 461 1462 l 1,6,-1
 680 1462 l 1,0,1
EndSplineSet
EndChar

StartChar: quotedblleft
Encoding: 8220 8220 522
Width: 1229
Flags: W
LayerCount: 2
Fore
SplineSet
674 961 m 1,0,-1
 659 983 l 1,1,2
 713 1189 713 1189 836 1462 c 1,3,-1
 993 1462 l 1,4,5
 931 1207 931 1207 893 961 c 1,6,-1
 674 961 l 1,0,-1
248 961 m 1,7,-1
 233 983 l 1,8,9
 287 1189 287 1189 410 1462 c 1,10,-1
 567 1462 l 1,11,12
 505 1207 505 1207 467 961 c 1,13,-1
 248 961 l 1,7,-1
EndSplineSet
EndChar

StartChar: quotedblright
Encoding: 8221 8221 523
Width: 1229
Flags: W
LayerCount: 2
Fore
SplineSet
553 1462 m 1,0,-1
 567 1440 l 1,1,2
 512 1227 512 1227 391 961 c 1,3,-1
 233 961 l 1,4,5
 298 1227 298 1227 334 1462 c 1,6,-1
 553 1462 l 1,0,-1
979 1462 m 1,7,-1
 993 1440 l 1,8,9
 938 1227 938 1227 817 961 c 1,10,-1
 659 961 l 1,11,12
 724 1227 724 1227 760 1462 c 1,13,-1
 979 1462 l 1,7,-1
EndSplineSet
EndChar

StartChar: quotedblbase
Encoding: 8222 8222 524
Width: 1229
Flags: W
LayerCount: 2
Fore
SplineSet
543 238 m 1,0,-1
 557 215 l 1,1,2
 502 2 502 2 381 -264 c 1,3,-1
 244 -264 l 1,4,5
 315 28 315 28 344 238 c 1,6,-1
 543 238 l 1,0,-1
969 238 m 1,7,-1
 983 215 l 1,8,9
 932 18 932 18 807 -264 c 1,10,-1
 670 -264 l 1,11,12
 741 28 741 28 770 238 c 1,13,-1
 969 238 l 1,7,-1
EndSplineSet
EndChar

StartChar: dagger
Encoding: 8224 8224 525
Width: 1229
Flags: W
LayerCount: 2
Fore
SplineSet
989 989 m 1,0,-1
 657 1020 l 1,1,-1
 713 0 l 1,2,-1
 496 0 l 1,3,-1
 551 1020 l 1,4,-1
 240 989 l 1,5,-1
 240 1169 l 1,6,-1
 551 1139 l 1,7,-1
 496 1556 l 1,8,-1
 713 1556 l 1,9,-1
 657 1139 l 1,10,-1
 989 1169 l 1,11,-1
 989 989 l 1,0,-1
EndSplineSet
EndChar

StartChar: daggerdbl
Encoding: 8225 8225 526
Width: 1229
Flags: W
LayerCount: 2
Fore
SplineSet
668 496 m 1,0,-1
 999 526 l 1,1,-1
 999 346 l 1,2,-1
 668 377 l 1,3,-1
 723 0 l 1,4,-1
 506 0 l 1,5,-1
 561 377 l 1,6,-1
 229 346 l 1,7,-1
 229 526 l 1,8,-1
 561 496 l 1,9,-1
 514 786 l 1,10,-1
 561 1061 l 1,11,-1
 229 1030 l 1,12,-1
 229 1210 l 1,13,-1
 561 1180 l 1,14,-1
 506 1556 l 1,15,-1
 723 1556 l 1,16,-1
 668 1180 l 1,17,-1
 999 1210 l 1,18,-1
 999 1030 l 1,19,-1
 668 1061 l 1,20,-1
 715 786 l 1,21,-1
 668 496 l 1,0,-1
EndSplineSet
EndChar

StartChar: bullet
Encoding: 8226 8226 527
Width: 1229
Flags: W
LayerCount: 2
Fore
SplineSet
614 1010 m 0,0,1
 850 1010 850 1010 850 748 c 0,2,3
 850 620 850 620 786.5 552.5 c 128,-1,4
 723 485 723 485 614 485 c 0,5,6
 503 485 503 485 441 552 c 128,-1,7
 379 619 379 619 379 748 c 0,8,9
 379 1010 379 1010 614 1010 c 0,0,1
EndSplineSet
EndChar

StartChar: ellipsis
Encoding: 8230 8230 528
Width: 1229
Flags: W
LayerCount: 2
Fore
SplineSet
205 250 m 256,0,1
 332 250 332 250 332 111 c 0,2,3
 332 -29 332 -29 205 -29 c 256,4,5
 78 -29 78 -29 78 111 c 0,6,7
 78 250 78 250 205 250 c 256,0,1
614 250 m 256,8,9
 741 250 741 250 741 111 c 0,10,11
 741 -29 741 -29 614 -29 c 256,12,13
 487 -29 487 -29 487 111 c 0,14,15
 487 250 487 250 614 250 c 256,8,9
1024 250 m 256,16,17
 1151 250 1151 250 1151 111 c 0,18,19
 1151 -29 1151 -29 1024 -29 c 256,20,21
 897 -29 897 -29 897 111 c 0,22,23
 897 250 897 250 1024 250 c 256,16,17
EndSplineSet
EndChar

StartChar: perthousand
Encoding: 8240 8240 529
Width: 1229
Flags: W
LayerCount: 2
Fore
SplineSet
260 860 m 0,0,1
 146 860 146 860 83 941.5 c 128,-1,2
 20 1023 20 1023 20 1171 c 0,3,4
 20 1481 20 1481 264 1481 c 0,5,6
 377 1481 377 1481 440.5 1400.5 c 128,-1,7
 504 1320 504 1320 504 1171 c 0,8,9
 504 860 504 860 260 860 c 0,0,1
262 967 m 256,10,11
 325 967 325 967 346 1017 c 128,-1,12
 367 1067 367 1067 367 1171 c 0,13,14
 367 1287 367 1287 343.5 1329.5 c 128,-1,15
 320 1372 320 1372 262 1372 c 0,16,17
 203 1372 203 1372 179.5 1327.5 c 128,-1,18
 156 1283 156 1283 156 1171 c 0,19,20
 156 1067 156 1067 177.5 1017 c 128,-1,21
 199 967 199 967 262 967 c 256,10,11
743 844 m 1,22,-1
 45 557 l 1,23,-1
 4 655 l 1,24,-1
 702 944 l 1,25,-1
 743 844 l 1,22,-1
434 0 m 0,26,27
 320 0 320 0 257.5 81.5 c 128,-1,28
 195 163 195 163 195 311 c 0,29,30
 195 621 195 621 438 621 c 0,31,32
 551 621 551 621 614.5 540.5 c 128,-1,33
 678 460 678 460 678 311 c 0,34,35
 678 0 678 0 434 0 c 0,26,27
436 106 m 256,36,37
 499 106 499 106 520 156.5 c 128,-1,38
 541 207 541 207 541 311 c 0,39,40
 541 427 541 427 517.5 469.5 c 128,-1,41
 494 512 494 512 436 512 c 0,42,43
 377 512 377 512 353.5 467.5 c 128,-1,44
 330 423 330 423 330 311 c 0,45,46
 330 207 330 207 351.5 156.5 c 128,-1,47
 373 106 373 106 436 106 c 256,36,37
965 0 m 0,48,49
 850 0 850 0 787.5 81.5 c 128,-1,50
 725 163 725 163 725 311 c 0,51,52
 725 621 725 621 969 621 c 0,53,54
 1081 621 1081 621 1144.5 540 c 128,-1,55
 1208 459 1208 459 1208 311 c 0,56,57
 1208 0 1208 0 965 0 c 0,48,49
967 106 m 256,58,59
 1030 106 1030 106 1050.5 156.5 c 128,-1,60
 1071 207 1071 207 1071 311 c 0,61,62
 1071 425 1071 425 1049 468.5 c 128,-1,63
 1027 512 1027 512 967 512 c 256,64,65
 907 512 907 512 883.5 468 c 128,-1,66
 860 424 860 424 860 311 c 0,67,68
 860 207 860 207 882 156.5 c 128,-1,69
 904 106 904 106 967 106 c 256,58,59
EndSplineSet
EndChar

StartChar: guilsinglleft
Encoding: 8249 8249 532
Width: 1229
Flags: W
LayerCount: 2
Fore
SplineSet
401 553 m 1,0,-1
 711 967 l 1,1,-1
 827 889 l 1,2,-1
 590 541 l 1,3,-1
 827 193 l 1,4,-1
 711 115 l 1,5,-1
 401 526 l 1,6,-1
 401 553 l 1,0,-1
EndSplineSet
EndChar

StartChar: guilsinglright
Encoding: 8250 8250 533
Width: 1229
Flags: W
LayerCount: 2
Fore
SplineSet
827 526 m 1,0,-1
 518 115 l 1,1,-1
 401 193 l 1,2,-1
 639 541 l 1,3,-1
 401 889 l 1,4,-1
 518 967 l 1,5,-1
 827 553 l 1,6,-1
 827 526 l 1,0,-1
EndSplineSet
EndChar

StartChar: fraction
Encoding: 8260 8260 535
Width: 1229
Flags: W
LayerCount: 2
Fore
SplineSet
1057 1462 m 1,0,-1
 328 0 l 1,1,-1
 170 0 l 1,2,-1
 899 1462 l 1,3,-1
 1057 1462 l 1,0,-1
EndSplineSet
EndChar

StartChar: nsuperior
Encoding: 8319 8319 536
Width: 1229
Flags: W
LayerCount: 2
Fore
SplineSet
764 797 m 1,0,-1
 764 1210 l 2,1,2
 764 1360 764 1360 637 1360 c 0,3,4
 537 1360 537 1360 501 1307 c 128,-1,5
 465 1254 465 1254 465 1135 c 2,6,-1
 465 797 l 1,7,-1
 317 797 l 1,8,-1
 317 1462 l 1,9,-1
 442 1462 l 1,10,-1
 459 1358 l 1,11,-1
 467 1358 l 1,12,13
 535 1479 535 1479 674 1479 c 0,14,15
 784 1479 784 1479 847.5 1414 c 128,-1,16
 911 1349 911 1349 911 1229 c 2,17,-1
 911 797 l 1,18,-1
 764 797 l 1,0,-1
EndSplineSet
EndChar

StartChar: franc
Encoding: 8355 8355 537
Width: 1229
Flags: W
LayerCount: 2
Fore
SplineSet
483 399 m 1,0,-1
 776 399 l 1,1,-1
 776 262 l 1,2,-1
 483 262 l 1,3,-1
 483 0 l 1,4,-1
 305 0 l 1,5,-1
 305 262 l 1,6,-1
 129 262 l 1,7,-1
 129 399 l 1,8,-1
 305 399 l 1,9,-1
 305 1462 l 1,10,-1
 1057 1462 l 1,11,-1
 1057 1298 l 1,12,-1
 483 1298 l 1,13,-1
 483 782 l 1,14,-1
 1018 782 l 1,15,-1
 1018 618 l 1,16,-1
 483 618 l 1,17,-1
 483 399 l 1,0,-1
EndSplineSet
EndChar

StartChar: afii08941
Encoding: 8356 8356 538
Width: 1229
Flags: W
LayerCount: 2
Fore
SplineSet
1063 1401 m 1,0,-1
 997 1257 l 1,1,2
 856 1329 856 1329 725 1329 c 0,3,4
 502 1329 502 1329 502 1083 c 2,5,-1
 502 891 l 1,6,-1
 879 891 l 1,7,-1
 879 754 l 1,8,-1
 502 754 l 1,9,-1
 502 596 l 1,10,-1
 879 596 l 1,11,-1
 879 459 l 1,12,-1
 502 459 l 1,13,-1
 502 440 l 2,14,15
 502 244 502 244 362 166 c 1,16,-1
 1110 166 l 1,17,-1
 1110 0 l 1,18,-1
 119 0 l 1,19,-1
 119 154 l 1,20,21
 319 203 319 203 319 438 c 2,22,-1
 319 459 l 1,23,-1
 121 459 l 1,24,-1
 121 596 l 1,25,-1
 319 596 l 1,26,-1
 319 754 l 1,27,-1
 121 754 l 1,28,-1
 121 891 l 1,29,-1
 319 891 l 1,30,-1
 319 1112 l 2,31,32
 319 1280 319 1280 427.5 1380.5 c 128,-1,33
 536 1481 536 1481 717 1481 c 0,34,35
 909 1481 909 1481 1063 1401 c 1,0,-1
EndSplineSet
EndChar

StartChar: peseta
Encoding: 8359 8359 539
Width: 1229
Flags: W
LayerCount: 2
Fore
SplineSet
240 569 m 1,0,-1
 240 0 l 1,1,-1
 82 0 l 1,2,-1
 82 1462 l 1,3,-1
 287 1462 l 2,4,5
 737 1462 737 1462 737 1034 c 0,6,7
 737 813 737 813 622 691 c 128,-1,8
 507 569 507 569 281 569 c 2,9,-1
 240 569 l 1,0,-1
240 715 m 1,10,-1
 281 715 l 2,11,12
 573 715 573 715 573 1024 c 0,13,14
 573 1315 573 1315 305 1315 c 2,15,-1
 240 1315 l 1,16,-1
 240 715 l 1,10,-1
1190 137 m 1,17,-1
 1190 12 l 1,18,19
 1126 -20 1126 -20 1024 -20 c 0,20,21
 803 -20 803 -20 803 262 c 2,22,-1
 803 618 l 1,23,-1
 688 618 l 1,24,-1
 688 688 l 1,25,-1
 803 739 l 1,26,-1
 868 954 l 1,27,-1
 954 954 l 1,28,-1
 954 743 l 1,29,-1
 1163 743 l 1,30,-1
 1163 618 l 1,31,-1
 954 618 l 1,32,-1
 954 270 l 2,33,34
 954 117 954 117 1067 117 c 0,35,36
 1129 117 1129 117 1190 137 c 1,17,-1
EndSplineSet
EndChar

StartChar: Euro
Encoding: 8364 8364 540
Width: 1229
Flags: W
LayerCount: 2
Fore
SplineSet
442 934 m 1,0,-1
 874 934 l 1,1,-1
 874 797 l 1,2,-1
 428 797 l 1,3,4
 428 782 428 782 427 768 c 2,5,-1
 426 743 l 1,6,-1
 426 681 l 2,7,8
 426 661 426 661 428 639 c 1,9,-1
 813 639 l 1,10,-1
 813 502 l 1,11,-1
 446 502 l 1,12,13
 519 143 519 143 815 143 c 0,14,15
 951 143 951 143 1083 201 c 1,16,-1
 1083 39 l 1,17,18
 961 -20 961 -20 801 -20 c 0,19,20
 354 -20 354 -20 260 502 c 1,21,-1
 96 502 l 1,22,-1
 96 639 l 1,23,-1
 244 639 l 1,24,-1
 242 677 l 1,25,-1
 244 797 l 1,26,-1
 96 797 l 1,27,-1
 96 934 l 1,28,-1
 256 934 l 1,29,30
 295 1196 295 1196 435.5 1339.5 c 128,-1,31
 576 1483 576 1483 795 1483 c 0,32,33
 986 1483 986 1483 1130 1391 c 1,34,-1
 1051 1245 l 1,35,36
 929 1319 929 1319 809 1319 c 0,37,38
 673 1319 673 1319 576 1219.5 c 128,-1,39
 479 1120 479 1120 442 934 c 1,0,-1
EndSplineSet
EndChar

StartChar: afii61248
Encoding: 8453 8453 541
Width: 1229
Flags: W
LayerCount: 2
Fore
SplineSet
532 1436 m 1,0,-1
 500 1329 l 1,1,2
 418 1362 418 1362 350 1362 c 0,3,4
 152 1362 152 1362 152 1128 c 0,5,6
 152 899 152 899 346 899 c 0,7,8
 449 899 449 899 522 932 c 1,9,-1
 522 825 l 1,10,11
 448 788 448 788 340 788 c 0,12,13
 184 788 184 788 96 875.5 c 128,-1,14
 8 963 8 963 8 1126 c 0,15,16
 8 1297 8 1297 98 1385 c 128,-1,17
 188 1473 188 1473 350 1473 c 0,18,19
 449 1473 449 1473 532 1436 c 1,0,-1
1042 1462 m 1,20,-1
 313 0 l 1,21,-1
 156 0 l 1,22,-1
 885 1462 l 1,23,-1
 1042 1462 l 1,20,-1
918 -8 m 0,24,25
 786 -8 786 -8 701 84.5 c 128,-1,26
 616 177 616 177 616 334 c 0,27,28
 616 495 616 495 699 585.5 c 128,-1,29
 782 676 782 676 922 676 c 0,30,31
 1053 676 1053 676 1138 582.5 c 128,-1,32
 1223 489 1223 489 1223 334 c 0,33,34
 1223 176 1223 176 1141 84 c 128,-1,35
 1059 -8 1059 -8 918 -8 c 0,24,25
920 100 m 0,36,37
 1075 100 1075 100 1075 334 c 0,38,39
 1075 565 1075 565 920 565 c 0,40,41
 762 565 762 565 762 334 c 0,42,43
 762 100 762 100 920 100 c 0,36,37
EndSplineSet
EndChar

StartChar: afii61289
Encoding: 8467 8467 542
Width: 1229
Flags: W
LayerCount: 2
Fore
SplineSet
885 332 m 1,0,-1
 999 332 l 1,1,2
 981 -20 981 -20 713 -20 c 0,3,4
 574 -20 574 -20 497 71.5 c 128,-1,5
 420 163 420 163 420 336 c 2,6,-1
 420 567 l 1,7,8
 334 536 334 536 227 510 c 1,9,-1
 227 631 l 1,10,11
 299 650 299 650 420 690 c 1,12,-1
 420 1184 l 2,13,14
 420 1324 420 1324 488.5 1403.5 c 128,-1,15
 557 1483 557 1483 690 1483 c 0,16,17
 800 1483 800 1483 863 1400.5 c 128,-1,18
 926 1318 926 1318 926 1182 c 0,19,20
 926 827 926 827 586 641 c 1,21,-1
 586 340 l 2,22,23
 586 119 586 119 731 119 c 0,24,25
 875 119 875 119 885 332 c 1,0,-1
586 770 m 1,26,27
 793 891 793 891 793 1176 c 0,28,29
 793 1364 793 1364 690 1364 c 0,30,31
 637 1364 637 1364 611.5 1323.5 c 128,-1,32
 586 1283 586 1283 586 1176 c 2,33,-1
 586 770 l 1,26,27
EndSplineSet
EndChar

StartChar: afii61352
Encoding: 8470 8470 543
Width: 1229
Flags: W
LayerCount: 2
Fore
SplineSet
649 0 m 1,0,-1
 475 0 l 1,1,-1
 150 1169 l 1,2,-1
 141 1169 l 1,3,4
 160 916 160 916 160 752 c 2,5,-1
 160 0 l 1,6,-1
 25 0 l 1,7,-1
 25 1462 l 1,8,-1
 201 1462 l 1,9,-1
 524 299 l 1,10,-1
 530 299 l 1,11,12
 516 602 516 602 516 702 c 2,13,-1
 516 1462 l 1,14,-1
 649 1462 l 1,15,-1
 649 0 l 1,0,-1
954 274 m 0,16,17
 840 274 840 274 772.5 367.5 c 128,-1,18
 705 461 705 461 705 623 c 0,19,20
 705 969 705 969 958 969 c 0,21,22
 1072 969 1072 969 1140 877.5 c 128,-1,23
 1208 786 1208 786 1208 623 c 0,24,25
 1208 455 1208 455 1142 364.5 c 128,-1,26
 1076 274 1076 274 954 274 c 0,16,17
956 395 m 0,27,28
 1019 395 1019 395 1043 452.5 c 128,-1,29
 1067 510 1067 510 1067 623 c 0,30,31
 1067 737 1067 737 1043 791.5 c 128,-1,32
 1019 846 1019 846 956 846 c 0,33,34
 892 846 892 846 868 791 c 128,-1,35
 844 736 844 736 844 623 c 0,36,37
 844 511 844 511 868 453 c 128,-1,38
 892 395 892 395 956 395 c 0,27,28
745 0 m 1,39,-1
 745 147 l 1,40,-1
 1159 147 l 1,41,-1
 1159 0 l 1,42,-1
 745 0 l 1,39,-1
EndSplineSet
EndChar

StartChar: trademark
Encoding: 8482 8482 544
Width: 1229
Flags: W
LayerCount: 2
Fore
SplineSet
303 741 m 1,0,-1
 176 741 l 1,1,-1
 176 1354 l 1,2,-1
 0 1354 l 1,3,-1
 0 1462 l 1,4,-1
 481 1462 l 1,5,-1
 481 1354 l 1,6,-1
 303 1354 l 1,7,-1
 303 741 l 1,0,-1
797 741 m 1,8,-1
 651 1290 l 1,9,-1
 639 1290 l 1,10,-1
 649 1110 l 1,11,-1
 649 741 l 1,12,-1
 526 741 l 1,13,-1
 526 1462 l 1,14,-1
 713 1462 l 1,15,-1
 852 928 l 1,16,-1
 1001 1462 l 1,17,-1
 1180 1462 l 1,18,-1
 1180 741 l 1,19,-1
 1053 741 l 1,20,-1
 1053 1083 l 2,21,22
 1053 1170 1053 1170 1063 1290 c 1,23,-1
 1051 1290 l 1,24,-1
 897 741 l 1,25,-1
 797 741 l 1,8,-1
EndSplineSet
EndChar

StartChar: estimated
Encoding: 8494 8494 546
Width: 1229
Flags: W
LayerCount: 2
Fore
SplineSet
1143 530 m 1,0,-1
 315 530 l 1,1,-1
 315 174 l 1,2,3
 438 51 438 51 612 51 c 0,4,5
 866 51 866 51 1008 285 c 1,6,-1
 1079 244 l 1,7,8
 982 88 982 88 872.5 26.5 c 128,-1,9
 763 -35 763 -35 612 -35 c 0,10,11
 372 -35 372 -35 227 127 c 128,-1,12
 82 289 82 289 82 530 c 0,13,14
 82 791 82 791 235.5 943.5 c 128,-1,15
 389 1096 389 1096 612 1096 c 0,16,17
 843 1096 843 1096 993 941 c 128,-1,18
 1143 786 1143 786 1143 535 c 2,19,-1
 1143 530 l 1,0,-1
911 616 m 1,20,-1
 911 893 l 1,21,22
 790 1012 790 1012 610 1012 c 0,23,24
 439 1012 439 1012 315 895 c 1,25,-1
 315 616 l 1,26,-1
 911 616 l 1,20,-1
EndSplineSet
EndChar

StartChar: partialdiff
Encoding: 8706 8706 551
Width: 1229
Flags: W
LayerCount: 2
Fore
SplineSet
924 862 m 1,0,-1
 926 902 l 2,1,2
 935 1083 935 1083 868.5 1204 c 128,-1,3
 802 1325 802 1325 649 1325 c 0,4,5
 518 1325 518 1325 391 1241 c 1,6,-1
 391 1415 l 1,7,8
 525 1477 525 1477 674 1477 c 0,9,10
 1106 1477 1106 1477 1106 934 c 0,11,12
 1106 545 1106 545 937.5 262.5 c 128,-1,13
 769 -20 769 -20 483 -20 c 0,14,15
 121 -20 121 -20 121 375 c 0,16,17
 121 624 121 624 259 817 c 128,-1,18
 397 1010 397 1010 641 1010 c 0,19,20
 825 1010 825 1010 924 862 c 1,0,-1
891 680 m 1,21,22
 869 765 869 765 805.5 817.5 c 128,-1,23
 742 870 742 870 666 870 c 0,24,25
 506 870 506 870 407.5 710 c 128,-1,26
 309 550 309 550 309 369 c 0,27,28
 309 133 309 133 496 133 c 0,29,30
 634 133 634 133 743.5 286 c 128,-1,31
 853 439 853 439 891 680 c 1,21,22
EndSplineSet
EndChar

StartChar: Delta
Encoding: 8710 8710 552
Width: 1229
Flags: W
LayerCount: 2
Fore
SplineSet
74 113 m 1,0,-1
 520 1462 l 1,1,-1
 707 1462 l 1,2,-1
 1155 111 l 1,3,-1
 1155 0 l 1,4,-1
 74 0 l 1,5,-1
 74 113 l 1,0,-1
705 922 m 2,6,7
 646 1104 646 1104 612 1262 c 1,8,9
 567 1062 567 1062 524 928 c 2,10,-1
 274 164 l 1,11,-1
 952 164 l 1,12,-1
 705 922 l 2,6,7
EndSplineSet
EndChar

StartChar: product
Encoding: 8719 8719 553
Width: 1229
Flags: W
LayerCount: 2
Fore
SplineSet
926 -492 m 1,0,-1
 926 1296 l 1,1,-1
 342 1296 l 1,2,-1
 342 -492 l 1,3,-1
 156 -492 l 1,4,-1
 156 1462 l 1,5,-1
 1112 1462 l 1,6,-1
 1112 -492 l 1,7,-1
 926 -492 l 1,0,-1
EndSplineSet
EndChar

StartChar: summation
Encoding: 8721 8721 554
Width: 1229
Flags: W
LayerCount: 2
Fore
SplineSet
74 -492 m 1,0,-1
 74 -377 l 1,1,-1
 657 537 l 1,2,-1
 90 1348 l 1,3,-1
 90 1462 l 1,4,-1
 1104 1462 l 1,5,-1
 1104 1298 l 1,6,-1
 350 1298 l 1,7,-1
 879 539 l 1,8,-1
 324 -328 l 1,9,-1
 1169 -328 l 1,10,-1
 1169 -492 l 1,11,-1
 74 -492 l 1,0,-1
EndSplineSet
EndChar

StartChar: minus
Encoding: 8722 8722 555
Width: 1229
Flags: W
LayerCount: 2
Fore
SplineSet
152 647 m 1,0,-1
 152 797 l 1,1,-1
 1075 797 l 1,2,-1
 1075 647 l 1,3,-1
 152 647 l 1,0,-1
EndSplineSet
EndChar

StartChar: radical
Encoding: 8730 8730 556
Width: 1229
Flags: W
LayerCount: 2
Fore
SplineSet
612 -14 m 1,0,-1
 479 -14 l 1,1,-1
 203 764 l 1,2,-1
 23 764 l 1,3,-1
 23 907 l 1,4,-1
 319 907 l 1,5,-1
 549 244 l 1,6,-1
 1061 1696 l 1,7,-1
 1206 1696 l 1,8,-1
 612 -14 l 1,0,-1
EndSplineSet
EndChar

StartChar: infinity
Encoding: 8734 8734 557
Width: 1229
Flags: W
LayerCount: 2
Fore
SplineSet
610 621 m 1,0,1
 492 408 492 408 338 408 c 0,2,3
 219 408 219 408 144.5 495 c 128,-1,4
 70 582 70 582 70 723 c 0,5,6
 70 857 70 857 144.5 947.5 c 128,-1,7
 219 1038 219 1038 338 1038 c 0,8,9
 504 1038 504 1038 612 819 c 1,10,11
 728 1032 728 1032 893 1032 c 0,12,13
 1011 1032 1011 1032 1084 946 c 128,-1,14
 1157 860 1157 860 1157 717 c 0,15,16
 1157 586 1157 586 1081.5 493.5 c 128,-1,17
 1006 401 1006 401 893 401 c 0,18,19
 722 401 722 401 610 621 c 1,0,1
541 723 m 1,20,21
 459 907 459 907 350 907 c 0,22,23
 285 907 285 907 245 853.5 c 128,-1,24
 205 800 205 800 205 721 c 0,25,26
 205 640 205 640 245 589.5 c 128,-1,27
 285 539 285 539 352 539 c 0,28,29
 456 539 456 539 541 723 c 1,20,21
684 717 m 1,30,31
 770 532 770 532 877 532 c 0,32,33
 942 532 942 532 982 586.5 c 128,-1,34
 1022 641 1022 641 1022 719 c 0,35,36
 1022 798 1022 798 980 849.5 c 128,-1,37
 938 901 938 901 874 901 c 0,38,39
 771 901 771 901 684 717 c 1,30,31
EndSplineSet
EndChar

StartChar: integral
Encoding: 8747 8747 558
Width: 1229
Flags: W
LayerCount: 2
Fore
SplineSet
993 1538 m 1,0,-1
 993 1391 l 1,1,2
 937 1417 937 1417 879 1417 c 0,3,4
 707 1417 707 1417 707 1184 c 2,5,-1
 707 -137 l 2,6,7
 707 -311 707 -311 618 -401.5 c 128,-1,8
 529 -492 529 -492 369 -492 c 0,9,10
 291 -492 291 -492 236 -473 c 1,11,-1
 236 -326 l 1,12,13
 296 -350 296 -350 352 -350 c 0,14,15
 532 -350 532 -350 532 -117 c 2,16,-1
 532 1202 l 2,17,18
 532 1556 532 1556 862 1556 c 0,19,20
 950 1556 950 1556 993 1538 c 1,0,-1
EndSplineSet
EndChar

StartChar: approxequal
Encoding: 8776 8776 559
Width: 1229
Flags: W
LayerCount: 2
Fore
SplineSet
152 788 m 1,0,-1
 152 950 l 1,1,2
 250 1059 250 1059 399 1059 c 0,3,4
 497 1059 497 1059 647 995 c 0,5,6
 774 940 774 940 848 940 c 0,7,8
 957 940 957 940 1075 1061 c 1,9,-1
 1075 899 l 1,10,11
 978 791 978 791 827 791 c 0,12,13
 727 791 727 791 580 854 c 0,14,15
 452 909 452 909 379 909 c 0,16,17
 267 909 267 909 152 788 c 1,0,-1
152 379 m 1,18,-1
 152 541 l 1,19,20
 251 649 251 649 399 649 c 0,21,22
 499 649 499 649 647 586 c 0,23,24
 777 530 777 530 848 530 c 0,25,26
 956 530 956 530 1075 651 c 1,27,-1
 1075 489 l 1,28,29
 976 381 976 381 827 381 c 0,30,31
 727 381 727 381 580 444 c 0,32,33
 449 500 449 500 379 500 c 0,34,35
 271 500 271 500 152 379 c 1,18,-1
EndSplineSet
EndChar

StartChar: notequal
Encoding: 8800 8800 560
Width: 1229
Flags: W
LayerCount: 2
Fore
SplineSet
399 442 m 1,0,-1
 152 442 l 1,1,-1
 152 592 l 1,2,-1
 469 592 l 1,3,-1
 590 852 l 1,4,-1
 152 852 l 1,5,-1
 152 1001 l 1,6,-1
 659 1001 l 1,7,-1
 793 1284 l 1,8,-1
 930 1225 l 1,9,-1
 825 1001 l 1,10,-1
 1075 1001 l 1,11,-1
 1075 852 l 1,12,-1
 756 852 l 1,13,-1
 633 592 l 1,14,-1
 1075 592 l 1,15,-1
 1075 442 l 1,16,-1
 563 442 l 1,17,-1
 434 164 l 1,18,-1
 297 221 l 1,19,-1
 399 442 l 1,0,-1
EndSplineSet
EndChar

StartChar: lessequal
Encoding: 8804 8804 561
Width: 1229
Flags: W
LayerCount: 2
Fore
SplineSet
1075 221 m 1,0,-1
 152 672 l 1,1,-1
 152 774 l 1,2,-1
 1075 1225 l 1,3,-1
 1075 1065 l 1,4,-1
 360 723 l 1,5,-1
 1075 381 l 1,6,-1
 1075 221 l 1,0,-1
152 0 m 1,7,-1
 152 150 l 1,8,-1
 1075 150 l 1,9,-1
 1075 0 l 1,10,-1
 152 0 l 1,7,-1
EndSplineSet
EndChar

StartChar: greaterequal
Encoding: 8805 8805 562
Width: 1229
Flags: W
LayerCount: 2
Fore
SplineSet
152 381 m 1,0,-1
 866 723 l 1,1,-1
 152 1065 l 1,2,-1
 152 1225 l 1,3,-1
 1075 774 l 1,4,-1
 1075 672 l 1,5,-1
 152 221 l 1,6,-1
 152 381 l 1,0,-1
152 0 m 1,7,-1
 152 150 l 1,8,-1
 1075 150 l 1,9,-1
 1075 0 l 1,10,-1
 152 0 l 1,7,-1
EndSplineSet
EndChar

StartChar: lozenge
Encoding: 9674 9674 563
Width: 1229
Flags: W
LayerCount: 2
Fore
SplineSet
1104 737 m 1,0,-1
 651 0 l 1,1,-1
 575 0 l 1,2,-1
 125 735 l 1,3,-1
 575 1475 l 1,4,-1
 651 1475 l 1,5,-1
 1104 737 l 1,0,-1
920 737 m 1,6,-1
 614 1249 l 1,7,-1
 309 737 l 1,8,-1
 614 223 l 1,9,-1
 920 737 l 1,6,-1
EndSplineSet
EndChar

StartChar: uniFB01
Encoding: 64257 64257 564
Width: 1229
Flags: W
LayerCount: 2
Fore
SplineSet
672 961 m 1,0,-1
 426 961 l 1,1,-1
 426 0 l 1,2,-1
 244 0 l 1,3,-1
 244 961 l 1,4,-1
 49 961 l 1,5,-1
 49 1036 l 1,6,-1
 244 1104 l 1,7,-1
 244 1200 l 2,8,9
 244 1390 244 1390 320.5 1478.5 c 128,-1,10
 397 1567 397 1567 575 1567 c 0,11,12
 672 1567 672 1567 772 1530 c 1,13,-1
 725 1389 l 1,14,15
 646 1417 646 1417 582 1417 c 0,16,17
 490 1417 490 1417 458 1366.5 c 128,-1,18
 426 1316 426 1316 426 1202 c 2,19,-1
 426 1098 l 1,20,-1
 672 1098 l 1,21,-1
 672 961 l 1,0,-1
961 1509 m 0,22,23
 1067 1509 1067 1509 1067 1395 c 0,24,25
 1067 1337 1067 1337 1035.5 1308.5 c 128,-1,26
 1004 1280 1004 1280 961 1280 c 0,27,28
 854 1280 854 1280 854 1395 c 0,29,30
 854 1509 854 1509 961 1509 c 0,22,23
1051 0 m 1,31,-1
 868 0 l 1,32,-1
 868 1098 l 1,33,-1
 1051 1098 l 1,34,-1
 1051 0 l 1,31,-1
EndSplineSet
EndChar

StartChar: uniFB02
Encoding: 64258 64258 565
Width: 1229
Flags: W
LayerCount: 2
Fore
SplineSet
672 961 m 1,0,-1
 426 961 l 1,1,-1
 426 0 l 1,2,-1
 244 0 l 1,3,-1
 244 961 l 1,4,-1
 49 961 l 1,5,-1
 49 1036 l 1,6,-1
 244 1104 l 1,7,-1
 244 1200 l 2,8,9
 244 1390 244 1390 320.5 1478.5 c 128,-1,10
 397 1567 397 1567 575 1567 c 0,11,12
 672 1567 672 1567 772 1530 c 1,13,-1
 725 1389 l 1,14,15
 646 1417 646 1417 582 1417 c 0,16,17
 490 1417 490 1417 458 1366.5 c 128,-1,18
 426 1316 426 1316 426 1202 c 2,19,-1
 426 1098 l 1,20,-1
 672 1098 l 1,21,-1
 672 961 l 1,0,-1
1051 0 m 1,22,-1
 868 0 l 1,23,-1
 868 1556 l 1,24,-1
 1051 1556 l 1,25,-1
 1051 0 l 1,22,-1
EndSplineSet
EndChar

StartChar: cyrillicbreve
Encoding: 65539 -1 566
Width: 1229
Flags: W
LayerCount: 2
Fore
SplineSet
997 1559 m 1,0,1
 977 1241 977 1241 608 1241 c 0,2,3
 413 1241 413 1241 327 1315 c 128,-1,4
 241 1389 241 1389 231 1559 c 1,5,-1
 401 1559 l 1,6,7
 409 1457 409 1457 451 1414.5 c 128,-1,8
 493 1372 493 1372 612 1372 c 0,9,10
 806 1372 806 1372 823 1559 c 1,11,-1
 997 1559 l 1,0,1
EndSplineSet
EndChar

StartChar: dotlessj
Encoding: 65540 -1 567
Width: 1229
Flags: W
LayerCount: 2
Fore
SplineSet
135 -457 m 1,0,-1
 135 -303 l 1,1,2
 269 -342 269 -342 424 -342 c 0,3,4
 541 -342 541 -342 606.5 -285 c 128,-1,5
 672 -228 672 -228 672 -127 c 2,6,-1
 672 954 l 1,7,-1
 252 975 l 1,8,-1
 252 1098 l 1,9,-1
 854 1098 l 1,10,-1
 854 -117 l 2,11,12
 854 -297 854 -297 741 -394.5 c 128,-1,13
 628 -492 628 -492 422 -492 c 0,14,15
 258 -492 258 -492 135 -457 c 1,0,-1
EndSplineSet
EndChar

StartChar: caroncommaaccent
Encoding: 65541 -1 568
Width: 1229
Flags: W
LayerCount: 2
Fore
SplineSet
494 1255 m 1,0,-1
 520 1362 l 2,1,2
 546 1478 546 1478 555 1556 c 1,3,-1
 735 1556 l 1,4,-1
 735 1536 l 2,5,6
 735 1522 735 1522 693 1423 c 128,-1,7
 651 1324 651 1324 590 1229 c 1,8,-1
 494 1229 l 1,9,-1
 494 1255 l 1,0,-1
EndSplineSet
EndChar

StartChar: commaaccent
Encoding: 65542 -1 569
Width: 1229
Flags: W
LayerCount: 2
Fore
SplineSet
483 -426 m 1,0,1
 545 -286 545 -286 567 -125 c 1,2,-1
 745 -125 l 1,3,-1
 745 -145 l 2,4,5
 745 -167 745 -167 697 -269 c 128,-1,6
 649 -371 649 -371 582 -453 c 1,7,-1
 483 -453 l 1,8,-1
 483 -426 l 1,0,1
EndSplineSet
EndChar

StartChar: commaaccentrotate
Encoding: 65543 -1 570
Width: 1229
Flags: W
LayerCount: 2
Fore
SplineSet
745 1542 m 1,0,1
 682 1389 682 1389 662 1241 c 1,2,-1
 483 1241 l 1,3,-1
 483 1262 l 2,4,5
 483 1279 483 1279 528.5 1379.5 c 128,-1,6
 574 1480 574 1480 647 1569 c 1,7,-1
 745 1569 l 1,8,-1
 745 1542 l 1,0,1
EndSplineSet
EndChar

StartChar: zerosuperior
Encoding: 65544 -1 571
Width: 1229
Flags: W
LayerCount: 2
Fore
SplineSet
612 569 m 0,0,1
 470 569 470 569 391.5 686 c 128,-1,2
 313 803 313 803 313 1026 c 0,3,4
 313 1479 313 1479 612 1479 c 0,5,6
 761 1479 761 1479 838 1361 c 128,-1,7
 915 1243 915 1243 915 1026 c 0,8,9
 915 569 915 569 612 569 c 0,0,1
612 700 m 0,10,11
 768 700 768 700 768 1026 c 0,12,13
 768 1350 768 1350 612 1350 c 0,14,15
 461 1350 461 1350 461 1026 c 0,16,17
 461 700 461 700 612 700 c 0,10,11
EndSplineSet
EndChar

StartChar: foursuperior
Encoding: 65545 -1 572
Width: 1229
Flags: W
LayerCount: 2
Fore
SplineSet
895 854 m 1,0,-1
 811 854 l 1,1,-1
 811 680 l 1,2,-1
 668 680 l 1,3,-1
 668 854 l 1,4,-1
 293 854 l 1,5,-1
 293 952 l 1,6,-1
 670 1475 l 1,7,-1
 811 1475 l 1,8,-1
 811 967 l 1,9,-1
 895 967 l 1,10,-1
 895 854 l 1,0,-1
668 967 m 1,11,-1
 668 1143 l 2,12,13
 668 1225 668 1225 674 1315 c 1,14,15
 634 1242 634 1242 594 1184 c 2,16,-1
 438 967 l 1,17,-1
 668 967 l 1,11,-1
EndSplineSet
EndChar

StartChar: fivesuperior
Encoding: 65546 -1 573
Width: 1229
Flags: W
LayerCount: 2
Fore
SplineSet
336 705 m 1,0,-1
 336 834 l 1,1,2
 438 766 438 766 543 766 c 0,3,4
 705 766 705 766 705 913 c 0,5,6
 705 1059 705 1059 539 1059 c 0,7,8
 487 1059 487 1059 414 1042 c 1,9,-1
 352 1081 l 1,10,-1
 383 1462 l 1,11,-1
 780 1462 l 1,12,-1
 780 1352 l 1,13,-1
 492 1352 l 1,14,-1
 475 1159 l 1,15,16
 510 1165 510 1165 571 1165 c 0,17,18
 689 1165 689 1165 762.5 1100 c 128,-1,19
 836 1035 836 1035 836 926 c 0,20,21
 836 799 836 799 761 728 c 128,-1,22
 686 657 686 657 541 657 c 0,23,24
 417 657 417 657 336 705 c 1,0,-1
EndSplineSet
EndChar

StartChar: sixsuperior
Encoding: 65547 -1 574
Width: 1229
Flags: W
LayerCount: 2
Fore
SplineSet
797 1493 m 1,0,-1
 842 1384 l 1,1,2
 513 1274 513 1274 461 1059 c 1,3,-1
 471 1059 l 1,4,5
 532 1151 532 1151 672 1151 c 0,6,7
 784 1151 784 1151 849.5 1074.5 c 128,-1,8
 915 998 915 998 915 870 c 0,9,10
 915 737 915 737 832.5 653 c 128,-1,11
 750 569 750 569 616 569 c 0,12,13
 481 569 481 569 397 662.5 c 128,-1,14
 313 756 313 756 313 913 c 0,15,16
 313 1320 313 1320 797 1493 c 1,0,-1
774 868 m 0,17,18
 774 1040 774 1040 627 1040 c 0,19,20
 553 1040 553 1040 504 996.5 c 128,-1,21
 455 953 455 953 455 889 c 0,22,23
 455 803 455 803 501.5 746.5 c 128,-1,24
 548 690 548 690 623 690 c 0,25,26
 691 690 691 690 732.5 736 c 128,-1,27
 774 782 774 782 774 868 c 0,17,18
EndSplineSet
EndChar

StartChar: sevensuperior
Encoding: 65548 -1 575
Width: 1229
Flags: W
LayerCount: 2
Fore
SplineSet
451 672 m 1,0,-1
 760 1341 l 1,1,-1
 367 1341 l 1,2,-1
 367 1462 l 1,3,-1
 915 1462 l 1,4,-1
 915 1362 l 1,5,-1
 606 672 l 1,6,-1
 451 672 l 1,0,-1
EndSplineSet
EndChar

StartChar: eightsuperior
Encoding: 65549 -1 576
Width: 1229
Flags: W
LayerCount: 2
Fore
SplineSet
698 1090 m 1,0,1
 864 1005 864 1005 864 883 c 0,2,3
 864 780 864 780 788 717.5 c 128,-1,4
 712 655 712 655 588 655 c 0,5,6
 452 655 452 655 378.5 714 c 128,-1,7
 305 773 305 773 305 877 c 0,8,9
 305 1007 305 1007 444 1081 c 1,10,11
 330 1160 330 1160 330 1274 c 0,12,13
 330 1365 330 1365 402 1420 c 128,-1,14
 474 1475 474 1475 586 1475 c 0,15,16
 697 1475 697 1475 767.5 1421 c 128,-1,17
 838 1367 838 1367 838 1274 c 0,18,19
 838 1158 838 1158 698 1090 c 1,0,1
586 1139 m 1,20,21
 692 1188 692 1188 692 1272 c 0,22,23
 692 1368 692 1368 584 1368 c 0,24,25
 477 1368 477 1368 477 1272 c 0,26,27
 477 1191 477 1191 586 1139 c 1,20,21
569 1030 m 1,28,29
 451 967 451 967 451 877 c 0,30,31
 451 760 451 760 582 760 c 0,32,33
 717 760 717 760 717 877 c 0,34,35
 717 966 717 966 582 1024 c 2,36,-1
 569 1030 l 1,28,29
EndSplineSet
EndChar

StartChar: ninesuperior
Encoding: 65550 -1 577
Width: 1229
Flags: W
LayerCount: 2
Fore
SplineSet
391 584 m 1,0,-1
 391 709 l 1,1,2
 430 686 430 686 492 686 c 0,3,4
 764 686 764 686 778 1001 c 1,5,-1
 770 1001 l 1,6,7
 699 903 699 903 573 903 c 0,8,9
 451 903 451 903 382 977.5 c 128,-1,10
 313 1052 313 1052 313 1178 c 0,11,12
 313 1311 313 1311 393 1396 c 128,-1,13
 473 1481 473 1481 604 1481 c 0,14,15
 746 1481 746 1481 830.5 1378.5 c 128,-1,16
 915 1276 915 1276 915 1090 c 0,17,18
 915 569 915 569 502 569 c 0,19,20
 440 569 440 569 391 584 c 1,0,-1
453 1180 m 0,21,22
 453 1016 453 1016 602 1016 c 0,23,24
 675 1016 675 1016 723.5 1059.5 c 128,-1,25
 772 1103 772 1103 772 1159 c 0,26,27
 772 1239 772 1239 727.5 1300.5 c 128,-1,28
 683 1362 683 1362 606 1362 c 0,29,30
 538 1362 538 1362 495.5 1315 c 128,-1,31
 453 1268 453 1268 453 1180 c 0,21,22
EndSplineSet
EndChar

StartChar: uniFFFC
Encoding: 65532 65532 591
Width: 1229
Flags: W
LayerCount: 2
Fore
SplineSet
659.5 985 m 128,-1,1
 647 941 647 941 621 909 c 128,-1,2
 595 877 595 877 556 859.5 c 128,-1,3
 517 842 517 842 463 842 c 256,4,5
 409 842 409 842 369.5 859.5 c 128,-1,6
 330 877 330 877 304.5 909 c 128,-1,7
 279 941 279 941 266.5 985 c 128,-1,8
 254 1029 254 1029 254 1083 c 0,9,10
 254 1138 254 1138 266.5 1182.5 c 128,-1,11
 279 1227 279 1227 304.5 1258.5 c 128,-1,12
 330 1290 330 1290 369.5 1307.5 c 128,-1,13
 409 1325 409 1325 463 1325 c 256,14,15
 517 1325 517 1325 556 1307.5 c 128,-1,16
 595 1290 595 1290 621 1258.5 c 128,-1,17
 647 1227 647 1227 659.5 1182.5 c 128,-1,18
 672 1138 672 1138 672 1083 c 0,19,0
 672 1029 672 1029 659.5 985 c 128,-1,1
535 795 m 1,20,-1
 672 795 l 2,21,22
 760 795 760 795 804 768.5 c 128,-1,23
 848 742 848 742 848 676 c 0,24,25
 848 636 848 636 829.5 609 c 128,-1,26
 811 582 811 582 776 575 c 1,27,-1
 776 571 l 1,28,29
 794 568 794 568 809.5 561 c 128,-1,30
 825 554 825 554 836.5 541.5 c 128,-1,31
 848 529 848 529 855 510 c 128,-1,32
 862 491 862 491 862 463 c 0,33,34
 862 398 862 398 818.5 362 c 128,-1,35
 775 326 775 326 700 326 c 2,36,-1
 535 326 l 1,37,-1
 535 795 l 1,20,-1
758 274 m 1,38,-1
 1024 274 l 1,39,-1
 1024 197 l 1,40,-1
 952 197 l 1,41,-1
 952 -45 l 2,42,43
 952 -125 952 -125 908 -163 c 128,-1,44
 864 -201 864 -201 795 -201 c 0,45,46
 764 -201 764 -201 742.5 -198.5 c 128,-1,47
 721 -196 721 -196 709 -193 c 1,48,-1
 709 -111 l 1,49,50
 721 -113 721 -113 740.5 -115 c 128,-1,51
 760 -117 760 -117 784 -117 c 0,52,53
 813 -117 813 -117 832.5 -102.5 c 128,-1,54
 852 -88 852 -88 852 -47 c 2,55,-1
 852 197 l 1,56,-1
 758 197 l 1,57,-1
 758 274 l 1,38,-1
380.5 967.5 m 128,-1,59
 407 926 407 926 463 926 c 0,60,61
 520 926 520 926 545.5 967.5 c 128,-1,62
 571 1009 571 1009 571 1083 c 0,63,64
 571 1158 571 1158 545.5 1199.5 c 128,-1,65
 520 1241 520 1241 463 1241 c 0,66,67
 407 1241 407 1241 380.5 1199.5 c 128,-1,68
 354 1158 354 1158 354 1083 c 0,69,58
 354 1009 354 1009 380.5 967.5 c 128,-1,59
55 1214 m 1,70,-1
 55 1518 l 1,71,-1
 358 1518 l 1,72,-1
 358 1407 l 1,73,-1
 166 1407 l 1,74,-1
 166 1214 l 1,75,-1
 55 1214 l 1,70,-1
55 -383 m 1,76,-1
 55 -80 l 1,77,-1
 166 -80 l 1,78,-1
 166 -274 l 1,79,-1
 358 -274 l 1,80,-1
 358 -383 l 1,81,-1
 55 -383 l 1,76,-1
870 1407 m 1,82,-1
 870 1518 l 1,83,-1
 1174 1518 l 1,84,-1
 1174 1214 l 1,85,-1
 1065 1214 l 1,86,-1
 1065 1407 l 1,87,-1
 870 1407 l 1,82,-1
870 -383 m 1,88,-1
 870 -274 l 1,89,-1
 1065 -274 l 1,90,-1
 1065 -80 l 1,91,-1
 1174 -80 l 1,92,-1
 1174 -383 l 1,93,-1
 870 -383 l 1,88,-1
166 430 m 1,94,-1
 55 430 l 1,95,-1
 55 702 l 1,96,-1
 166 702 l 1,97,-1
 166 430 l 1,94,-1
479 1407 m 1,98,-1
 479 1518 l 1,99,-1
 750 1518 l 1,100,-1
 750 1407 l 1,101,-1
 479 1407 l 1,98,-1
166 39 m 1,102,-1
 55 39 l 1,103,-1
 55 309 l 1,104,-1
 166 309 l 1,105,-1
 166 39 l 1,102,-1
166 823 m 1,106,-1
 55 823 l 1,107,-1
 55 1094 l 1,108,-1
 166 1094 l 1,109,-1
 166 823 l 1,106,-1
1174 430 m 1,110,-1
 1065 430 l 1,111,-1
 1065 702 l 1,112,-1
 1174 702 l 1,113,-1
 1174 430 l 1,110,-1
1174 39 m 1,114,-1
 1065 39 l 1,115,-1
 1065 309 l 1,116,-1
 1174 309 l 1,117,-1
 1174 39 l 1,114,-1
1174 823 m 1,118,-1
 1065 823 l 1,119,-1
 1065 1094 l 1,120,-1
 1174 1094 l 1,121,-1
 1174 823 l 1,118,-1
479 -383 m 1,122,-1
 479 -274 l 1,123,-1
 750 -274 l 1,124,-1
 750 -383 l 1,125,-1
 479 -383 l 1,122,-1
633 530 m 1,126,-1
 633 408 l 1,127,-1
 692 408 l 2,128,129
 730 408 730 408 745 425 c 128,-1,130
 760 442 760 442 760 473 c 0,131,132
 760 498 760 498 745 514 c 128,-1,133
 730 530 730 530 688 530 c 2,134,-1
 633 530 l 1,126,-1
633 610 m 1,135,-1
 684 610 l 2,136,137
 721 610 721 610 735.5 623.5 c 128,-1,138
 750 637 750 637 750 662 c 0,139,140
 750 689 750 689 733.5 701 c 128,-1,141
 717 713 717 713 680 713 c 2,142,-1
 633 713 l 1,143,-1
 633 610 l 1,135,-1
EndSplineSet
EndChar

StartChar: uniFFFD
Encoding: 65533 65533 592
Width: 1229
Flags: W
LayerCount: 2
Fore
SplineSet
614 1556 m 1,0,-1
 1227 618 l 1,1,-1
 614 -319 l 1,2,-1
 4 618 l 1,3,-1
 614 1556 l 1,0,-1
668 385 m 1,4,-1
 668 428 l 2,5,6
 668 451 668 451 671.5 468 c 128,-1,7
 675 485 675 485 685 501.5 c 128,-1,8
 695 518 695 518 712.5 535 c 128,-1,9
 730 552 730 552 758 575 c 0,10,11
 793 608 793 608 819.5 636.5 c 128,-1,12
 846 665 846 665 863.5 696 c 128,-1,13
 881 727 881 727 890 762.5 c 128,-1,14
 899 798 899 798 899 844 c 0,15,16
 899 968 899 968 823 1036 c 128,-1,17
 747 1104 747 1104 612 1104 c 0,18,19
 577 1104 577 1104 541 1097 c 128,-1,20
 505 1090 505 1090 470 1077.5 c 128,-1,21
 435 1065 435 1065 402.5 1048.5 c 128,-1,22
 370 1032 370 1032 342 1014 c 1,23,-1
 408 854 l 1,24,25
 463 885 463 885 514 905.5 c 128,-1,26
 565 926 565 926 610 926 c 0,27,28
 663 926 663 926 688 899.5 c 128,-1,29
 713 873 713 873 713 831 c 0,30,31
 713 805 713 805 707.5 785 c 128,-1,32
 702 765 702 765 690 747 c 128,-1,33
 678 729 678 729 659 710.5 c 128,-1,34
 640 692 640 692 612 668 c 0,35,36
 581 640 581 640 559.5 614.5 c 128,-1,37
 538 589 538 589 524.5 562 c 128,-1,38
 511 535 511 535 504.5 505.5 c 128,-1,39
 498 476 498 476 498 440 c 2,40,-1
 498 385 l 1,41,-1
 668 385 l 1,4,-1
477 139 m 0,42,43
 477 74 477 74 509.5 45 c 128,-1,44
 542 16 542 16 592 16 c 0,45,46
 613 16 613 16 633.5 23 c 128,-1,47
 654 30 654 30 670 45 c 128,-1,48
 686 60 686 60 695.5 83.5 c 128,-1,49
 705 107 705 107 705 139 c 0,50,51
 705 173 705 173 695.5 196.5 c 128,-1,52
 686 220 686 220 670 234.5 c 128,-1,53
 654 249 654 249 633.5 255.5 c 128,-1,54
 613 262 613 262 592 262 c 0,55,56
 542 262 542 262 509.5 234 c 128,-1,57
 477 206 477 206 477 139 c 0,42,43
EndSplineSet
EndChar

StartChar: uni03D1
Encoding: 977 977 595
Width: 1229
Flags: W
LayerCount: 2
Fore
SplineSet
874 977 m 1,0,1
 861 1085 861 1085 832.5 1170 c 128,-1,2
 804 1255 804 1255 765.5 1313 c 128,-1,3
 727 1371 727 1371 681.5 1401.5 c 128,-1,4
 636 1432 636 1432 588 1432 c 0,5,6
 512 1432 512 1432 469 1388 c 128,-1,7
 426 1344 426 1344 426 1272 c 0,8,9
 426 1216 426 1216 449 1163.5 c 128,-1,10
 472 1111 472 1111 525 1070 c 128,-1,11
 578 1029 578 1029 663.5 1003.5 c 128,-1,12
 749 978 749 978 874 977 c 1,0,1
1065 840 m 1,13,14
 1067 818 1067 818 1068 789 c 128,-1,15
 1069 760 1069 760 1069 729 c 0,16,17
 1069 570 1069 570 1037 433 c 128,-1,18
 1005 296 1005 296 940.5 195.5 c 128,-1,19
 876 95 876 95 778 37.5 c 128,-1,20
 680 -20 680 -20 549 -20 c 0,21,22
 438 -20 438 -20 365 7.5 c 128,-1,23
 292 35 292 35 249 82.5 c 128,-1,24
 206 130 206 130 189 192.5 c 128,-1,25
 172 255 172 255 172 324 c 0,26,27
 172 364 172 364 177 410.5 c 128,-1,28
 182 457 182 457 187.5 501.5 c 128,-1,29
 193 546 193 546 198 583.5 c 128,-1,30
 203 621 203 621 203 645 c 0,31,32
 203 690 203 690 187.5 706.5 c 128,-1,33
 172 723 172 723 141 723 c 0,34,35
 117 723 117 723 90 715.5 c 128,-1,36
 63 708 63 708 47 698 c 1,37,-1
 10 825 l 1,38,39
 47 842 47 842 97 855 c 128,-1,40
 147 868 147 868 201 868 c 0,41,42
 251 868 251 868 285.5 854 c 128,-1,43
 320 840 320 840 342 815 c 128,-1,44
 364 790 364 790 373.5 756 c 128,-1,45
 383 722 383 722 383 682 c 0,46,47
 383 647 383 647 378 604 c 128,-1,48
 373 561 373 561 367.5 514.5 c 128,-1,49
 362 468 362 468 357 419.5 c 128,-1,50
 352 371 352 371 352 326 c 0,51,52
 352 284 352 284 362.5 247 c 128,-1,53
 373 210 373 210 397 183 c 128,-1,54
 421 156 421 156 460 140.5 c 128,-1,55
 499 125 499 125 557 125 c 0,56,57
 721 125 721 125 803 278 c 128,-1,58
 885 431 885 431 885 735 c 0,59,60
 885 758 885 758 884 789 c 128,-1,61
 883 820 883 820 881 840 c 1,62,63
 707 842 707 842 586 879.5 c 128,-1,64
 465 917 465 917 390 977 c 128,-1,65
 315 1037 315 1037 281.5 1114 c 128,-1,66
 248 1191 248 1191 248 1272 c 0,67,68
 248 1339 248 1339 267.5 1395 c 128,-1,69
 287 1451 287 1451 327.5 1492 c 128,-1,70
 368 1533 368 1533 431.5 1556 c 128,-1,71
 495 1579 495 1579 584 1579 c 0,72,73
 688 1579 688 1579 768.5 1537 c 128,-1,74
 849 1495 849 1495 907.5 1417 c 128,-1,75
 966 1339 966 1339 1003.5 1227.5 c 128,-1,76
 1041 1116 1041 1116 1059 977 c 1,77,-1
 1202 977 l 1,78,-1
 1202 840 l 1,79,-1
 1065 840 l 1,13,14
EndSplineSet
EndChar

StartChar: uni03D2
Encoding: 978 978 596
Width: 1229
Flags: W
LayerCount: 2
Fore
SplineSet
612 731 m 1,0,1
 637 806 637 806 674.5 890 c 128,-1,2
 712 974 712 974 751 1054 c 128,-1,3
 790 1134 790 1134 826.5 1202.5 c 128,-1,4
 863 1271 863 1271 887 1315 c 0,5,6
 909 1355 909 1355 932 1385.5 c 128,-1,7
 955 1416 955 1416 982 1435.5 c 128,-1,8
 1009 1455 1009 1455 1041 1465 c 128,-1,9
 1073 1475 1073 1475 1114 1475 c 0,10,11
 1148 1475 1148 1475 1169.5 1470.5 c 128,-1,12
 1191 1466 1191 1466 1208 1458 c 1,13,-1
 1208 1313 l 1,14,15
 1196 1316 1196 1316 1179.5 1318.5 c 128,-1,16
 1163 1321 1163 1321 1151 1321 c 0,17,18
 1123 1321 1123 1321 1092 1297.5 c 128,-1,19
 1061 1274 1061 1274 1026 1214 c 0,20,21
 1014 1193 1014 1193 990.5 1151.5 c 128,-1,22
 967 1110 967 1110 938 1055 c 128,-1,23
 909 1000 909 1000 876 935.5 c 128,-1,24
 843 871 843 871 811.5 803 c 128,-1,25
 780 735 780 735 752 668 c 128,-1,26
 724 601 724 601 705 541 c 1,27,-1
 705 0 l 1,28,-1
 518 0 l 1,29,-1
 518 559 l 1,30,-1
 31 1462 l 1,31,-1
 233 1462 l 1,32,-1
 612 731 l 1,0,1
EndSplineSet
EndChar

StartChar: uni03D6
Encoding: 982 982 597
Width: 1229
Flags: W
LayerCount: 2
Fore
SplineSet
379 -20 m 0,0,1
 300 -20 300 -20 245 14 c 128,-1,2
 190 48 190 48 155.5 112 c 128,-1,3
 121 176 121 176 105.5 266.5 c 128,-1,4
 90 357 90 357 90 471 c 0,5,6
 90 538 90 538 95 596 c 128,-1,7
 100 654 100 654 111 709 c 128,-1,8
 122 764 122 764 139.5 821 c 128,-1,9
 157 878 157 878 182 944 c 1,10,-1
 18 944 l 1,11,-1
 18 1018 l 1,12,-1
 152 1098 l 1,13,-1
 1204 1098 l 1,14,-1
 1204 944 l 1,15,-1
 1049 944 l 1,16,17
 1073 878 1073 878 1090.5 821 c 128,-1,18
 1108 764 1108 764 1119.5 709 c 128,-1,19
 1131 654 1131 654 1136 596 c 128,-1,20
 1141 538 1141 538 1141 471 c 0,21,22
 1141 357 1141 357 1125.5 266.5 c 128,-1,23
 1110 176 1110 176 1075.5 112 c 128,-1,24
 1041 48 1041 48 986 14 c 128,-1,25
 931 -20 931 -20 852 -20 c 0,26,27
 758 -20 758 -20 702.5 23.5 c 128,-1,28
 647 67 647 67 621 158 c 1,29,-1
 610 158 l 1,30,31
 584 67 584 67 528.5 23.5 c 128,-1,32
 473 -20 473 -20 379 -20 c 0,0,1
975 471 m 0,33,34
 975 533 975 533 970 590 c 128,-1,35
 965 647 965 647 953.5 703 c 128,-1,36
 942 759 942 759 924.5 818 c 128,-1,37
 907 877 907 877 883 944 c 1,38,-1
 348 944 l 1,39,40
 323 877 323 877 305.5 818 c 128,-1,41
 288 759 288 759 277 703 c 128,-1,42
 266 647 266 647 261 590 c 128,-1,43
 256 533 256 533 256 471 c 0,44,45
 256 380 256 380 264 315.5 c 128,-1,46
 272 251 272 251 289.5 210 c 128,-1,47
 307 169 307 169 333 150 c 128,-1,48
 359 131 359 131 395 131 c 256,49,50
 431 131 431 131 458 151.5 c 128,-1,51
 485 172 485 172 502.5 208 c 128,-1,52
 520 244 520 244 528.5 293 c 128,-1,53
 537 342 537 342 537 399 c 2,54,-1
 537 602 l 1,55,-1
 694 602 l 1,56,-1
 694 399 l 2,57,58
 694 269 694 269 733.5 200 c 128,-1,59
 773 131 773 131 836 131 c 0,60,61
 872 131 872 131 898 150 c 128,-1,62
 924 169 924 169 941.5 210 c 128,-1,63
 959 251 959 251 967 315.5 c 128,-1,64
 975 380 975 380 975 471 c 0,33,34
EndSplineSet
EndChar

StartChar: uni02F3
Encoding: 755 755 603
Width: 1229
Flags: W
LayerCount: 2
Fore
SplineSet
840 -338 m 0,0,1
 840 -389 840 -389 822.5 -429.5 c 128,-1,2
 805 -470 805 -470 774 -498 c 128,-1,3
 743 -526 743 -526 701 -540.5 c 128,-1,4
 659 -555 659 -555 610 -555 c 0,5,6
 560 -555 560 -555 519 -540.5 c 128,-1,7
 478 -526 478 -526 448.5 -498 c 128,-1,8
 419 -470 419 -470 403 -430.5 c 128,-1,9
 387 -391 387 -391 387 -340 c 256,10,11
 387 -289 387 -289 403 -249.5 c 128,-1,12
 419 -210 419 -210 448.5 -182 c 128,-1,13
 478 -154 478 -154 519 -139.5 c 128,-1,14
 560 -125 560 -125 610 -125 c 0,15,16
 658 -125 658 -125 700 -139.5 c 128,-1,17
 742 -154 742 -154 773 -181.5 c 128,-1,18
 804 -209 804 -209 822 -248.5 c 128,-1,19
 840 -288 840 -288 840 -338 c 0,0,1
723 -340 m 256,20,21
 723 -287 723 -287 691.5 -257 c 128,-1,22
 660 -227 660 -227 610 -227 c 0,23,24
 561 -227 561 -227 529.5 -257 c 128,-1,25
 498 -287 498 -287 498 -340 c 256,26,27
 498 -393 498 -393 526.5 -423 c 128,-1,28
 555 -453 555 -453 610 -453 c 0,29,30
 660 -453 660 -453 691.5 -423 c 128,-1,31
 723 -393 723 -393 723 -340 c 256,20,21
EndSplineSet
EndChar

StartChar: dasiaoxia
Encoding: 65551 -1 604
Width: 1229
Flags: W
LayerCount: 2
Fore
SplineSet
301 1255 m 0,0,1
 301 1333 301 1333 361 1390.5 c 128,-1,2
 421 1448 421 1448 543 1479 c 1,3,-1
 543 1403 l 1,4,5
 483 1381 483 1381 454.5 1358 c 128,-1,6
 426 1335 426 1335 426 1311 c 0,7,8
 426 1292 426 1292 441.5 1283 c 128,-1,9
 457 1274 457 1274 475 1266 c 128,-1,10
 493 1258 493 1258 508.5 1245 c 128,-1,11
 524 1232 524 1232 524 1204 c 0,12,13
 524 1167 524 1167 499 1147.5 c 128,-1,14
 474 1128 474 1128 428 1128 c 0,15,16
 369 1128 369 1128 335 1163 c 128,-1,17
 301 1198 301 1198 301 1255 c 0,0,1
610 1161 m 1,18,19
 621 1191 621 1191 633.5 1228.5 c 128,-1,20
 646 1266 646 1266 658 1305.5 c 128,-1,21
 670 1345 670 1345 681 1385.5 c 128,-1,22
 692 1426 692 1426 700 1462 c 1,23,-1
 907 1462 l 1,24,-1
 907 1442 l 1,25,26
 889 1410 889 1410 865 1371.5 c 128,-1,27
 841 1333 841 1333 813 1293 c 128,-1,28
 785 1253 785 1253 754 1212.5 c 128,-1,29
 723 1172 723 1172 692 1135 c 1,30,-1
 610 1135 l 1,31,-1
 610 1161 l 1,18,19
EndSplineSet
EndChar

StartChar: uniFB03
Encoding: 64259 64259 605
Width: 1229
Flags: W
LayerCount: 2
Fore
SplineSet
1065 0 m 1,0,-1
 901 0 l 1,1,-1
 901 971 l 1,2,-1
 698 971 l 1,3,-1
 698 0 l 1,4,-1
 535 0 l 1,5,-1
 535 971 l 1,6,-1
 330 971 l 1,7,-1
 330 0 l 1,8,-1
 166 0 l 1,9,-1
 166 971 l 1,10,-1
 66 971 l 1,11,-1
 66 1036 l 1,12,-1
 166 1098 l 1,13,-1
 166 1180 l 2,14,15
 166 1286 166 1286 186 1356.5 c 128,-1,16
 206 1427 206 1427 244.5 1469 c 128,-1,17
 283 1511 283 1511 339 1528.5 c 128,-1,18
 395 1546 395 1546 467 1546 c 0,19,20
 516 1546 516 1546 559.5 1535 c 128,-1,21
 603 1524 603 1524 637 1511 c 1,22,23
 675 1540 675 1540 726 1553.5 c 128,-1,24
 777 1567 777 1567 840 1567 c 0,25,26
 892 1567 892 1567 937.5 1555.5 c 128,-1,27
 983 1544 983 1544 1020 1530 c 1,28,-1
 979 1399 l 1,29,30
 950 1410 950 1410 915.5 1418.5 c 128,-1,31
 881 1427 881 1427 844 1427 c 0,32,33
 806 1427 806 1427 778.5 1416 c 128,-1,34
 751 1405 751 1405 733 1379 c 128,-1,35
 715 1353 715 1353 706.5 1309.5 c 128,-1,36
 698 1266 698 1266 698 1202 c 2,37,-1
 698 1098 l 1,38,-1
 1065 1098 l 1,39,-1
 1065 0 l 1,0,-1
330 1098 m 1,40,-1
 535 1098 l 1,41,-1
 535 1200 l 2,42,43
 535 1315 535 1315 559 1393 c 1,44,45
 539 1399 539 1399 516.5 1403 c 128,-1,46
 494 1407 494 1407 471 1407 c 0,47,48
 436 1407 436 1407 409.5 1396 c 128,-1,49
 383 1385 383 1385 365.5 1359 c 128,-1,50
 348 1333 348 1333 339 1289.5 c 128,-1,51
 330 1246 330 1246 330 1182 c 2,52,-1
 330 1098 l 1,40,-1
EndSplineSet
EndChar

StartChar: uniFB04
Encoding: 64260 64260 606
Width: 1229
Flags: W
LayerCount: 2
Fore
SplineSet
840 971 m 1,0,-1
 698 971 l 1,1,-1
 698 0 l 1,2,-1
 535 0 l 1,3,-1
 535 971 l 1,4,-1
 330 971 l 1,5,-1
 330 0 l 1,6,-1
 166 0 l 1,7,-1
 166 971 l 1,8,-1
 66 971 l 1,9,-1
 66 1036 l 1,10,-1
 166 1098 l 1,11,-1
 166 1180 l 2,12,13
 166 1286 166 1286 186 1356.5 c 128,-1,14
 206 1427 206 1427 244.5 1469 c 128,-1,15
 283 1511 283 1511 339 1528.5 c 128,-1,16
 395 1546 395 1546 467 1546 c 0,17,18
 516 1546 516 1546 559.5 1535 c 128,-1,19
 603 1524 603 1524 637 1511 c 1,20,21
 675 1540 675 1540 726 1553.5 c 128,-1,22
 777 1567 777 1567 840 1567 c 0,23,24
 888 1567 888 1567 934 1556 c 1,25,-1
 1065 1556 l 1,26,-1
 1065 0 l 1,27,-1
 901 0 l 1,28,-1
 901 1421 l 1,29,30
 887 1424 887 1424 872.5 1425.5 c 128,-1,31
 858 1427 858 1427 844 1427 c 0,32,33
 806 1427 806 1427 778.5 1416 c 128,-1,34
 751 1405 751 1405 733 1379 c 128,-1,35
 715 1353 715 1353 706.5 1309.5 c 128,-1,36
 698 1266 698 1266 698 1202 c 2,37,-1
 698 1098 l 1,38,-1
 840 1098 l 1,39,-1
 840 971 l 1,0,-1
330 1098 m 1,40,-1
 535 1098 l 1,41,-1
 535 1200 l 2,42,43
 535 1315 535 1315 559 1393 c 1,44,45
 539 1399 539 1399 516.5 1403 c 128,-1,46
 494 1407 494 1407 471 1407 c 0,47,48
 436 1407 436 1407 409.5 1396 c 128,-1,49
 383 1385 383 1385 365.5 1359 c 128,-1,50
 348 1333 348 1333 339 1289.5 c 128,-1,51
 330 1246 330 1246 330 1182 c 2,52,-1
 330 1098 l 1,40,-1
EndSplineSet
EndChar

StartChar: Ohorn
Encoding: 416 416 607
Width: 1229
Flags: W
LayerCount: 2
Fore
SplineSet
1147 733 m 0,0,1
 1147 564 1147 564 1115 425 c 128,-1,2
 1083 286 1083 286 1017 187 c 128,-1,3
 951 88 951 88 851 34 c 128,-1,4
 751 -20 751 -20 616 -20 c 0,5,6
 474 -20 474 -20 373.5 34 c 128,-1,7
 273 88 273 88 208.5 187 c 128,-1,8
 144 286 144 286 114 425.5 c 128,-1,9
 84 565 84 565 84 735 c 256,10,11
 84 905 84 905 114 1043.5 c 128,-1,12
 144 1182 144 1182 208.5 1280 c 128,-1,13
 273 1378 273 1378 374.5 1431.5 c 128,-1,14
 476 1485 476 1485 618 1485 c 0,15,16
 742 1485 742 1485 835.5 1440 c 128,-1,17
 929 1395 929 1395 995 1309 c 1,18,19
 1013 1328 1013 1328 1024.5 1354 c 128,-1,20
 1036 1380 1036 1380 1042.5 1411.5 c 128,-1,21
 1049 1443 1049 1443 1052 1479.5 c 128,-1,22
 1055 1516 1055 1516 1057 1556 c 1,23,-1
 1255 1556 l 1,24,-1
 1270 1534 l 1,25,26
 1259 1482 1259 1482 1242.5 1432.5 c 128,-1,27
 1226 1383 1226 1383 1201.5 1339.5 c 128,-1,28
 1177 1296 1177 1296 1143 1259 c 128,-1,29
 1109 1222 1109 1222 1063 1194 c 1,30,31
 1105 1103 1105 1103 1126 986.5 c 128,-1,32
 1147 870 1147 870 1147 733 c 0,0,1
281 733 m 0,33,34
 281 596 281 596 299 486.5 c 128,-1,35
 317 377 317 377 356.5 300.5 c 128,-1,36
 396 224 396 224 460 183.5 c 128,-1,37
 524 143 524 143 616 143 c 0,38,39
 709 143 709 143 773 183.5 c 128,-1,40
 837 224 837 224 876 300.5 c 128,-1,41
 915 377 915 377 932.5 486.5 c 128,-1,42
 950 596 950 596 950 733 c 0,43,44
 950 871 950 871 932.5 980 c 128,-1,45
 915 1089 915 1089 876 1164.5 c 128,-1,46
 837 1240 837 1240 773.5 1280.5 c 128,-1,47
 710 1321 710 1321 618 1321 c 0,48,49
 525 1321 525 1321 461 1280.5 c 128,-1,50
 397 1240 397 1240 357 1164.5 c 128,-1,51
 317 1089 317 1089 299 980 c 128,-1,52
 281 871 281 871 281 733 c 0,33,34
EndSplineSet
EndChar

StartChar: ohorn
Encoding: 417 417 608
Width: 1229
Flags: W
LayerCount: 2
Fore
SplineSet
1112 551 m 0,0,1
 1112 414 1112 414 1075 307.5 c 128,-1,2
 1038 201 1038 201 971.5 128.5 c 128,-1,3
 905 56 905 56 813 18 c 128,-1,4
 721 -20 721 -20 610 -20 c 0,5,6
 507 -20 507 -20 417 18 c 128,-1,7
 327 56 327 56 260 128.5 c 128,-1,8
 193 201 193 201 154 307.5 c 128,-1,9
 115 414 115 414 115 551 c 0,10,11
 115 687 115 687 151.5 792.5 c 128,-1,12
 188 898 188 898 254 970.5 c 128,-1,13
 320 1043 320 1043 412.5 1080.5 c 128,-1,14
 505 1118 505 1118 616 1118 c 0,15,16
 713 1118 713 1118 798.5 1085 c 128,-1,17
 884 1052 884 1052 950 987 c 1,18,19
 988 1003 988 1003 1009.5 1031 c 128,-1,20
 1031 1059 1031 1059 1041.5 1095 c 128,-1,21
 1052 1131 1052 1131 1054.5 1174.5 c 128,-1,22
 1057 1218 1057 1218 1057 1266 c 1,23,-1
 1255 1266 l 1,24,-1
 1270 1243 l 1,25,26
 1255 1174 1255 1174 1234 1117 c 128,-1,27
 1213 1060 1213 1060 1184.5 1014.5 c 128,-1,28
 1156 969 1156 969 1118.5 935.5 c 128,-1,29
 1081 902 1081 902 1032 881 c 1,30,31
 1070 815 1070 815 1091 732.5 c 128,-1,32
 1112 650 1112 650 1112 551 c 0,0,1
303 551 m 0,33,34
 303 340 303 340 381.5 235.5 c 128,-1,35
 460 131 460 131 614 131 c 0,36,37
 924 131 924 131 924 551 c 0,38,39
 924 761 924 761 845.5 864 c 128,-1,40
 767 967 767 967 612 967 c 0,41,42
 458 967 458 967 380.5 864 c 128,-1,43
 303 761 303 761 303 551 c 0,33,34
EndSplineSet
EndChar

StartChar: Uhorn
Encoding: 431 431 609
Width: 1229
Flags: W
LayerCount: 2
Fore
SplineSet
950 1462 m 1,0,-1
 950 1268 l 1,1,2
 997 1276 997 1276 1024.5 1302 c 128,-1,3
 1052 1328 1052 1328 1066.5 1366.5 c 128,-1,4
 1081 1405 1081 1405 1085.5 1453.5 c 128,-1,5
 1090 1502 1090 1502 1090 1556 c 1,6,-1
 1288 1556 l 1,7,-1
 1303 1534 l 1,8,9
 1288 1465 1288 1465 1264 1401.5 c 128,-1,10
 1240 1338 1240 1338 1199 1285.5 c 128,-1,11
 1158 1233 1158 1233 1097.5 1195.5 c 128,-1,12
 1037 1158 1037 1158 950 1141 c 1,13,-1
 950 475 l 2,14,15
 950 361 950 361 927.5 269.5 c 128,-1,16
 905 178 905 178 855.5 113.5 c 128,-1,17
 806 49 806 49 726.5 14.5 c 128,-1,18
 647 -20 647 -20 532 -20 c 0,19,20
 424 -20 424 -20 347 12.5 c 128,-1,21
 270 45 270 45 220.5 108 c 128,-1,22
 171 171 171 171 148 264 c 128,-1,23
 125 357 125 357 125 479 c 2,24,-1
 125 1462 l 1,25,-1
 311 1462 l 1,26,-1
 311 489 l 2,27,28
 311 402 311 402 323 337 c 128,-1,29
 335 272 335 272 362 229 c 128,-1,30
 389 186 389 186 433.5 164.5 c 128,-1,31
 478 143 478 143 543 143 c 0,32,33
 610 143 610 143 653 167 c 128,-1,34
 696 191 696 191 720.5 236 c 128,-1,35
 745 281 745 281 754.5 345.5 c 128,-1,36
 764 410 764 410 764 492 c 2,37,-1
 764 1462 l 1,38,-1
 950 1462 l 1,0,-1
EndSplineSet
EndChar

StartChar: uhorn
Encoding: 432 432 610
Width: 1229
Flags: W
LayerCount: 2
Fore
SplineSet
786 0 m 1,0,-1
 760 147 l 1,1,-1
 752 147 l 1,2,3
 730 104 730 104 700 72.5 c 128,-1,4
 670 41 670 41 634 20.5 c 128,-1,5
 598 0 598 0 558 -10 c 128,-1,6
 518 -20 518 -20 477 -20 c 0,7,8
 398 -20 398 -20 338.5 3 c 128,-1,9
 279 26 279 26 239.5 75 c 128,-1,10
 200 124 200 124 180 200 c 128,-1,11
 160 276 160 276 160 381 c 2,12,-1
 160 1098 l 1,13,-1
 342 1098 l 1,14,-1
 342 391 l 2,15,16
 342 261 342 261 384 196 c 128,-1,17
 426 131 426 131 516 131 c 0,18,19
 582 131 582 131 627 157 c 128,-1,20
 672 183 672 183 700 233.5 c 128,-1,21
 728 284 728 284 740 358 c 128,-1,22
 752 432 752 432 752 528 c 2,23,-1
 752 1098 l 1,24,-1
 934 1098 l 1,25,-1
 934 975 l 1,26,27
 986 981 986 981 1017 1006 c 128,-1,28
 1048 1031 1048 1031 1064 1070 c 128,-1,29
 1080 1109 1080 1109 1085 1159.5 c 128,-1,30
 1090 1210 1090 1210 1090 1266 c 1,31,-1
 1288 1266 l 1,32,-1
 1303 1243 l 1,33,34
 1288 1173 1288 1173 1263 1105 c 128,-1,35
 1238 1037 1238 1037 1195.5 982 c 128,-1,36
 1153 927 1153 927 1089.5 891 c 128,-1,37
 1026 855 1026 855 934 848 c 1,38,-1
 934 0 l 1,39,-1
 786 0 l 1,0,-1
EndSplineSet
EndChar

StartChar: hook
Encoding: 777 777 614
Width: 1229
Flags: W
LayerCount: 2
Fore
SplineSet
801 1491 m 0,0,1
 801 1452 801 1452 787.5 1423 c 128,-1,2
 774 1394 774 1394 751.5 1373.5 c 128,-1,3
 729 1353 729 1353 699 1340 c 128,-1,4
 669 1327 669 1327 635 1319 c 1,5,-1
 625 1208 l 1,6,-1
 512 1208 l 1,7,-1
 498 1384 l 1,8,9
 535 1390 535 1390 564.5 1398 c 128,-1,10
 594 1406 594 1406 615 1418 c 128,-1,11
 636 1430 636 1430 647.5 1446.5 c 128,-1,12
 659 1463 659 1463 659 1487 c 256,13,14
 659 1511 659 1511 649 1527 c 128,-1,15
 639 1543 639 1543 621 1552.5 c 128,-1,16
 603 1562 603 1562 578 1565.5 c 128,-1,17
 553 1569 553 1569 524 1569 c 0,18,19
 496 1569 496 1569 470 1567.5 c 128,-1,20
 444 1566 444 1566 428 1563 c 1,21,-1
 428 1671 l 1,22,23
 444 1674 444 1674 469 1676.5 c 128,-1,24
 494 1679 494 1679 535 1679 c 0,25,26
 668 1679 668 1679 734.5 1633.5 c 128,-1,27
 801 1588 801 1588 801 1491 c 0,0,1
EndSplineSet
EndChar

StartChar: dotbelow
Encoding: 803 803 615
Width: 1229
Flags: W
LayerCount: 2
Fore
SplineSet
508 -246 m 0,0,1
 508 -186 508 -186 538.5 -158.5 c 128,-1,2
 569 -131 569 -131 614 -131 c 0,3,4
 658 -131 658 -131 689.5 -158.5 c 128,-1,5
 721 -186 721 -186 721 -246 c 0,6,7
 721 -275 721 -275 712.5 -296.5 c 128,-1,8
 704 -318 704 -318 689.5 -332 c 128,-1,9
 675 -346 675 -346 655.5 -353 c 128,-1,10
 636 -360 636 -360 614 -360 c 0,11,12
 569 -360 569 -360 538.5 -332.5 c 128,-1,13
 508 -305 508 -305 508 -246 c 0,0,1
EndSplineSet
EndChar

StartChar: uni0460
Encoding: 1120 1120 620
Width: 1229
Flags: W
LayerCount: 2
Fore
SplineSet
700 186 m 1,0,1
 739 143 739 143 795 143 c 0,2,3
 843 143 843 143 876.5 187.5 c 128,-1,4
 910 232 910 232 931 314 c 128,-1,5
 952 396 952 396 961.5 510.5 c 128,-1,6
 971 625 971 625 971 766 c 0,7,8
 971 1041 971 1041 932 1179 c 128,-1,9
 893 1317 893 1317 827 1317 c 0,10,11
 772 1317 772 1317 731 1288 c 1,12,-1
 684 1440 l 1,13,14
 718 1463 718 1463 762 1472 c 128,-1,15
 806 1481 806 1481 854 1481 c 0,16,17
 1000 1481 1000 1481 1073.5 1301.5 c 128,-1,18
 1147 1122 1147 1122 1147 764 c 0,19,20
 1147 572 1147 572 1130 425.5 c 128,-1,21
 1113 279 1113 279 1074 180 c 128,-1,22
 1035 81 1035 81 971 30.5 c 128,-1,23
 907 -20 907 -20 813 -20 c 0,24,25
 780 -20 780 -20 753 -13.5 c 128,-1,26
 726 -7 726 -7 703 5 c 128,-1,27
 680 17 680 17 658.5 35.5 c 128,-1,28
 637 54 637 54 614 78 c 1,29,30
 592 54 592 54 571 35.5 c 128,-1,31
 550 17 550 17 527 5 c 128,-1,32
 504 -7 504 -7 477.5 -13.5 c 128,-1,33
 451 -20 451 -20 418 -20 c 0,34,35
 324 -20 324 -20 260 30.5 c 128,-1,36
 196 81 196 81 156.5 180 c 128,-1,37
 117 279 117 279 99.5 425.5 c 128,-1,38
 82 572 82 572 82 764 c 0,39,40
 82 1122 82 1122 155.5 1301.5 c 128,-1,41
 229 1481 229 1481 375 1481 c 0,42,43
 423 1481 423 1481 467 1472 c 128,-1,44
 511 1463 511 1463 545 1440 c 1,45,-1
 498 1288 l 1,46,47
 457 1317 457 1317 401 1317 c 0,48,49
 335 1317 335 1317 296.5 1179 c 128,-1,50
 258 1041 258 1041 258 766 c 0,51,52
 258 625 258 625 267.5 510.5 c 128,-1,53
 277 396 277 396 298.5 314 c 128,-1,54
 320 232 320 232 354 187.5 c 128,-1,55
 388 143 388 143 436 143 c 0,56,57
 493 143 493 143 530 186 c 1,58,-1
 530 662 l 1,59,-1
 700 662 l 1,60,-1
 700 186 l 1,0,1
EndSplineSet
EndChar

StartChar: uni0461
Encoding: 1121 1121 621
Width: 1229
Flags: W
LayerCount: 2
Fore
SplineSet
283 0 m 1,0,-1
 -4 1098 l 1,1,-1
 156 1098 l 1,2,-1
 319 422 l 2,3,4
 339 337 339 337 356 258.5 c 128,-1,5
 373 180 373 180 381 129 c 1,6,-1
 385 129 l 1,7,8
 390 147 390 147 397.5 175 c 128,-1,9
 405 203 405 203 414 235.5 c 128,-1,10
 423 268 423 268 433 301.5 c 128,-1,11
 443 335 443 335 453 365 c 2,12,-1
 539 637 l 1,13,-1
 430 1098 l 1,14,-1
 580 1098 l 1,15,-1
 717 506 l 2,16,17
 725 473 725 473 736 425 c 128,-1,18
 747 377 747 377 758.5 325.5 c 128,-1,19
 770 274 770 274 781 226 c 128,-1,20
 792 178 792 178 799 145 c 1,21,-1
 805 145 l 1,22,23
 868 249 868 249 907.5 354 c 128,-1,24
 947 459 947 459 969.5 574 c 128,-1,25
 992 689 992 689 1000 818 c 128,-1,26
 1008 947 1008 947 1008 1098 c 1,27,-1
 1161 1098 l 1,28,29
 1161 935 1161 935 1148 791 c 128,-1,30
 1135 647 1135 647 1102 513.5 c 128,-1,31
 1069 380 1069 380 1012.5 253.5 c 128,-1,32
 956 127 956 127 868 0 c 1,33,-1
 705 0 l 1,34,-1
 621 340 l 2,35,36
 614 366 614 366 608.5 394 c 128,-1,37
 603 422 603 422 600 442 c 1,38,39
 595 422 595 422 587 391 c 128,-1,40
 579 360 579 360 571 338 c 2,41,-1
 465 0 l 1,42,-1
 283 0 l 1,0,-1
EndSplineSet
EndChar

StartChar: uni0462
Encoding: 1122 1122 622
Width: 1229
Flags: W
LayerCount: 2
Fore
SplineSet
506 846 m 1,0,-1
 600 846 l 2,1,2
 752 846 752 846 855.5 813 c 128,-1,3
 959 780 959 780 1022.5 723.5 c 128,-1,4
 1086 667 1086 667 1113.5 591 c 128,-1,5
 1141 515 1141 515 1141 428 c 0,6,7
 1141 331 1141 331 1111 252 c 128,-1,8
 1081 173 1081 173 1018 117 c 128,-1,9
 955 61 955 61 858 30.5 c 128,-1,10
 761 0 761 0 627 0 c 2,11,-1
 319 0 l 1,12,-1
 319 1120 l 1,13,-1
 20 1120 l 1,14,-1
 20 1284 l 1,15,-1
 319 1284 l 1,16,-1
 319 1556 l 1,17,-1
 506 1556 l 1,18,-1
 506 1284 l 1,19,-1
 899 1284 l 1,20,-1
 899 1120 l 1,21,-1
 506 1120 l 1,22,-1
 506 846 l 1,0,-1
506 160 m 1,23,-1
 610 160 l 2,24,25
 785 160 785 160 866.5 226 c 128,-1,26
 948 292 948 292 948 428 c 0,27,28
 948 498 948 498 925 546.5 c 128,-1,29
 902 595 902 595 856.5 625 c 128,-1,30
 811 655 811 655 742 668.5 c 128,-1,31
 673 682 673 682 580 682 c 2,32,-1
 506 682 l 1,33,-1
 506 160 l 1,23,-1
EndSplineSet
EndChar

